<?xml version="1.0" encoding="UTF-8" standalone="no"?>
<svg
   xmlns:dc="http://purl.org/dc/elements/1.1/"
   xmlns:cc="http://creativecommons.org/ns#"
   xmlns:rdf="http://www.w3.org/1999/02/22-rdf-syntax-ns#"
   xmlns:svg="http://www.w3.org/2000/svg"
   xmlns="http://www.w3.org/2000/svg"
   xmlns:sodipodi="http://sodipodi.sourceforge.net/DTD/sodipodi-0.dtd"
   xmlns:inkscape="http://www.inkscape.org/namespaces/inkscape"
   color-interpolation="auto"
   color-rendering="auto"
   font-size="12px"
   font-style="normal"
   font-weight="normal"
   height="53"
   image-rendering="auto"
   shape-rendering="auto"
   stroke-miterlimit="10"
   text-rendering="auto"
   width="306.91501"
   id="svg3074"
   version="1.1"
   inkscape:version="0.48.5 r10040"
   sodipodi:docname="C-element-gate.svg"
   style="font-size:12px;font-style:normal;font-weight:normal;fill:#000000;fill-opacity:1;stroke:#000000;stroke-width:1;stroke-linecap:square;stroke-linejoin:miter;stroke-miterlimit:10;stroke-opacity:1;stroke-dasharray:none;stroke-dashoffset:0;font-family:Dialog">
  <metadata
     id="metadata3161">
    <rdf:RDF>
      <cc:Work
         rdf:about="">
        <dc:format>image/svg+xml</dc:format>
        <dc:type
           rdf:resource="http://purl.org/dc/dcmitype/StillImage" />
      </cc:Work>
    </rdf:RDF>
  </metadata>
  <sodipodi:namedview
     pagecolor="#ffffff"
     bordercolor="#666666"
     borderopacity="1"
     objecttolerance="10"
     gridtolerance="10"
     guidetolerance="10"
     inkscape:pageopacity="0"
     inkscape:pageshadow="2"
     inkscape:window-width="640"
     inkscape:window-height="480"
     id="namedview3159"
     showgrid="false"
     fit-margin-top="0"
     fit-margin-left="0"
     fit-margin-right="0"
     fit-margin-bottom="0"
     inkscape:zoom="0.95886076"
     inkscape:cx="153.0016"
     inkscape:cy="6.5"
     inkscape:window-x="369"
     inkscape:window-y="209"
     inkscape:window-maximized="0"
     inkscape:current-layer="g3077" />
  <!--Generated by the Batik Graphics2D SVG Generator-->
  <defs
     id="genericDefs" />
  <g
     id="g3077"
     transform="translate(-4.9984,-3.5)">
    <g
       transform="matrix(50,0,0,50,159.05,30)"
       id="g3079"
       style="fill:#ffffff;stroke:#ffffff;stroke-width:0.06">
      <path
         d="m -0.4062,-0.5 0.25,0 c 0.75,0 0.75,1 0,1 l -0.25,0 z"
         id="path3081"
         inkscape:connector-curvature="0"
         style="stroke:none" />
      <path
         d="m -0.4062,-0.5 0.25,0 c 0.75,0 0.75,1 0,1 l -0.25,0 z"
         id="path3083"
         inkscape:connector-curvature="0"
         style="fill:none;stroke:#000000" />
    </g>
    <g
       transform="matrix(50,0,0,50,159.0484,30)"
       id="g3085"
       style="stroke-width:0.04">
      <line
         x1="0.40619999"
         x2="1"
         y1="0"
         y2="0"
         id="line3087"
         style="fill:none" />
      <line
         x1="-0.40619999"
         x2="-1"
         y1="-0.25"
         y2="-0.25"
         id="line3089"
         style="fill:none" />
      <line
         x1="-0.40619999"
         x2="-1"
         y1="0.25"
         y2="0.25"
         id="line3091"
         style="fill:none" />
      <path
         d="m 0.075,-0.1299 a 0.15,0.15 0 1 0 0,0.2598"
         id="path3093"
         inkscape:connector-curvature="0"
         style="fill:none" />
    </g>
    <g
       font-size="0.5px"
       font-style="italic"
       transform="matrix(50,0,0,50,34.0484,17.5)"
       id="g3099"
       style="font-size:0.5px;font-style:italic;fill:#ffffff;stroke:#ffffff;stroke-width:0.04;font-family:sans-serif">
      <path
         d="M -0.13,-0.13 0,-0.13 0.13,0 0,0.13 l -0.13,0 z"
         id="path3101"
         inkscape:connector-curvature="0"
         style="stroke:none" />
      <path
         d="M -0.13,-0.13 0,-0.13 0.13,0 0,0.13 l -0.13,0 z"
         id="path3103"
         inkscape:connector-curvature="0"
         style="fill:none;stroke:#000000" />
    </g>
    <g
       font-size="0.5px"
       font-style="italic"
       transform="matrix(50,0,0,50,34.0484,17.5)"
       id="g3105"
       style="font-size:0.5px;font-style:italic;fill:#ff0000;stroke:#ff0000;stroke-width:0.04;font-family:sans-serif">
      <path
         d="m -0.4018,0.0626 q -0.0229,0.0198 -0.0442,0.029 -0.0212,0.0091 -0.0454,0.0091 -0.0359,0 -0.0578,-0.0211 -0.022,-0.0211 -0.022,-0.0541 0,-0.0217 0.0099,-0.0384 0.0099,-0.0168 0.0262,-0.0269 0.0164,-0.0101 0.0401,-0.0145 0.0148,-0.0029 0.0565,-0.0047 0.0416,-0.0017 0.0597,-0.0087 0.0051,-0.0181 0.0051,-0.0301 0,-0.0154 -0.0112,-0.0241 -0.0154,-0.0122 -0.045,-0.0122 -0.0278,0 -0.0455,0.0123 -0.0177,0.0123 -0.0257,0.035 l -0.0447,-0.0039 q 0.0136,-0.0386 0.0433,-0.0591 0.0297,-0.0205 0.0748,-0.0205 0.0481,0 0.0762,0.023 0.0215,0.0171 0.0215,0.0444 0,0.0208 -0.0061,0.0481 l -0.0144,0.0644 q -0.0068,0.0308 -0.0068,0.0501 0,0.0122 0.0053,0.0352 l -0.0447,0 Q -0.4003,0.0821 -0.4018,0.0626 z m 0.0164,-0.0991 q -0.0093,0.0037 -0.0199,0.0056 -0.0106,0.002 -0.0355,0.0042 -0.0386,0.0034 -0.0545,0.0086 -0.0159,0.0053 -0.0239,0.0168 -0.0081,0.0114 -0.0081,0.0254 0,0.0185 0.0128,0.0305 0.0129,0.0119 0.0365,0.0119 0.022,0 0.0423,-0.0116 0.0202,-0.0116 0.032,-0.0323 0.0117,-0.0208 0.0183,-0.0591 z"
         id="path3107"
         inkscape:connector-curvature="0"
         style="stroke:none" />
    </g>
    <g
       font-size="0.5px"
       font-style="italic"
       transform="matrix(50,0,0,50,34.0484,42.5)"
       id="g3109"
       style="font-size:0.5px;font-style:italic;fill:#ffffff;stroke:#ffffff;stroke-width:0.04;font-family:sans-serif">
      <path
         d="M -0.13,-0.13 0,-0.13 0.13,0 0,0.13 l -0.13,0 z"
         id="path3111"
         inkscape:connector-curvature="0"
         style="stroke:none" />
      <path
         d="M -0.13,-0.13 0,-0.13 0.13,0 0,0.13 l -0.13,0 z"
         id="path3113"
         inkscape:connector-curvature="0"
         style="fill:none;stroke:#000000" />
    </g>
    <g
       font-size="0.5px"
       font-style="italic"
       transform="matrix(50,0,0,50,34.0484,42.5)"
       id="g3115"
       style="font-size:0.5px;font-style:italic;fill:#ff0000;stroke:#ff0000;stroke-width:0.04;font-family:sans-serif">
      <path
         d="m -0.581,0.1273 0.0747,-0.3579 0.0442,0 -0.0266,0.1279 q 0.021,-0.0192 0.0381,-0.0272 0.0171,-0.0079 0.0356,-0.0079 0.0364,0 0.0607,0.0271 0.0243,0.0271 0.0243,0.0788 0,0.0345 -0.0098,0.063 -0.0097,0.0286 -0.0241,0.048 -0.0144,0.0194 -0.0298,0.031 -0.0154,0.0116 -0.0315,0.0173 -0.0161,0.0058 -0.031,0.0058 -0.0257,0 -0.0452,-0.0136 -0.0195,-0.0135 -0.0305,-0.0414 l -0.0103,0.0491 -0.0388,0 z m 0.0655,-0.1064 -3e-4,0.0083 q 0,0.0332 0.0159,0.0505 0.0159,0.0173 0.0395,0.0173 0.0232,0 0.0426,-0.0162 0.0194,-0.0162 0.0319,-0.0507 0.0124,-0.0344 0.0124,-0.0634 0,-0.0327 -0.0157,-0.0508 -0.0158,-0.0181 -0.0389,-0.0181 -0.024,0 -0.044,0.0185 -0.02,0.0184 -0.0334,0.0567 -0.01,0.0286 -0.01,0.0479 z"
         id="path3117"
         inkscape:connector-curvature="0"
         style="stroke:none" />
    </g>
    <g
       font-size="0.5px"
       font-style="italic"
       transform="matrix(50,0,0,50,284.0484,30)"
       id="g3119"
       style="font-size:0.5px;font-style:italic;fill:#ffffff;stroke:#ffffff;stroke-width:0.04;font-family:sans-serif">
      <path
         d="M -0.13,-0.13 0,-0.13 0.13,0 0,0.13 l -0.13,0 z"
         id="path3121"
         inkscape:connector-curvature="0"
         style="stroke:none" />
      <path
         d="M -0.13,-0.13 0,-0.13 0.13,0 0,0.13 l -0.13,0 z"
         id="path3123"
         inkscape:connector-curvature="0"
         style="fill:none;stroke:#000000" />
    </g>
    <g
       font-size="0.5px"
       font-style="italic"
       transform="matrix(50,0,0,50,284.0484,30)"
       id="g3125"
       style="font-size:0.5px;font-style:italic;fill:#0000ff;stroke:#0000ff;stroke-width:0.04;font-family:sans-serif">
      <path
         d="M 0.4975,4e-4 0.5417,0.005 Q 0.5251,0.0536 0.4944,0.0771 0.4638,0.1007 0.4247,0.1007 0.3825,0.1007 0.3562,0.0734 0.33,0.046 0.33,-0.0031 q 0,-0.0424 0.0168,-0.0834 0.0169,-0.0411 0.0483,-0.0624 0.0313,-0.0214 0.0716,-0.0214 0.0418,0 0.0662,0.0236 0.0244,0.0235 0.0244,0.0623 l -0.0435,0.003 Q 0.5136,-0.1061 0.4996,-0.12 0.4855,-0.1339 0.4626,-0.1339 q -0.0266,0 -0.0462,0.0168 -0.0195,0.0169 -0.0306,0.0512 -0.0111,0.0343 -0.0111,0.066 0,0.0332 0.0146,0.0498 0.0147,0.0166 0.0362,0.0166 0.0214,0 0.0411,-0.0163 Q 0.4862,0.0338 0.4975,4e-4 z"
         id="path3127"
         inkscape:connector-curvature="0"
         style="stroke:none" />
    </g>
    <g
       font-size="0.5px"
       font-style="italic"
       transform="matrix(50,0,0,50,159.0484,30)"
       id="g3129"
       style="font-size:0.5px;font-style:italic;stroke-width:0.04;font-family:sans-serif">
      <path
         d="m -2.37,-0.25 1.26,0"
         id="path3131"
         inkscape:connector-curvature="0"
         style="fill:none" />
      <path
         d="m -1.11,-0.325 0,0.15 0,-0.075 z"
         id="path3133"
         inkscape:connector-curvature="0"
         style="stroke:none" />
    </g>
    <g
       font-size="0.5px"
       font-style="italic"
       transform="matrix(50,0,0,50,159.0484,30)"
       id="g3135"
       style="font-size:0.5px;font-style:italic;stroke-width:0.04;font-family:sans-serif">
      <line
         x1="-1.11"
         x2="-1"
         y1="-0.25"
         y2="-0.25"
         id="line3137"
         style="fill:none" />
    </g>
    <g
       font-size="0.5px"
       font-style="italic"
       transform="matrix(50,0,0,50,159.0484,30)"
       id="g3139"
       style="font-size:0.5px;font-style:italic;stroke-width:0.04;font-family:sans-serif">
      <path
         d="m -2.37,0.25 1.26,0"
         id="path3141"
         inkscape:connector-curvature="0"
         style="fill:none" />
      <path
         d="m -1.11,0.175 0,0.15 0,-0.075 z"
         id="path3143"
         inkscape:connector-curvature="0"
         style="stroke:none" />
    </g>
    <g
       font-size="0.5px"
       font-style="italic"
       transform="matrix(50,0,0,50,159.0484,30)"
       id="g3145"
       style="font-size:0.5px;font-style:italic;stroke-width:0.04;font-family:sans-serif">
      <line
         x1="-1.11"
         x2="-1"
         y1="0.25"
         y2="0.25"
         id="line3147"
         style="fill:none" />
    </g>
    <g
       font-size="0.5px"
       font-style="italic"
       transform="matrix(50,0,0,50,159.0484,30)"
       id="g3149"
       style="font-size:0.5px;font-style:italic;stroke-width:0.04;font-family:sans-serif">
      <path
         d="M 1.11,0 2.37,0"
         id="path3151"
         inkscape:connector-curvature="0"
         style="fill:none" />
      <path
         d="m 2.37,-0.075 0,0.15 0,-0.075 z"
         id="path3153"
         inkscape:connector-curvature="0"
         style="stroke:none" />
    </g>
    <g
       font-size="0.5px"
       font-style="italic"
       transform="matrix(50,0,0,50,159.0484,30)"
       id="g3155"
       style="font-size:0.5px;font-style:italic;stroke-width:0.04;font-family:sans-serif">
      <line
         x1="1"
         x2="1.11"
         y1="0"
         y2="0"
         id="line3157"
         style="fill:none" />
    </g>
  </g>
</svg>
