<?xml version="1.0" encoding="UTF-8" standalone="no"?>
<svg
   xmlns:dc="http://purl.org/dc/elements/1.1/"
   xmlns:cc="http://creativecommons.org/ns#"
   xmlns:rdf="http://www.w3.org/1999/02/22-rdf-syntax-ns#"
   xmlns:svg="http://www.w3.org/2000/svg"
   xmlns="http://www.w3.org/2000/svg"
   xmlns:sodipodi="http://sodipodi.sourceforge.net/DTD/sodipodi-0.dtd"
   xmlns:inkscape="http://www.inkscape.org/namespaces/inkscape"
   color-interpolation="auto"
   color-rendering="auto"
   font-size="12"
   font-style="normal"
   font-weight="normal"
   height="253"
   image-rendering="auto"
   shape-rendering="auto"
   stroke-miterlimit="10"
   text-rendering="auto"
   width="520.32001"
   id="svg2"
   version="1.1"
   inkscape:version="0.48.4 r9939"
   sodipodi:docname="Circuit.svg"
   style="font-size:12px;font-style:normal;font-weight:normal;fill:#000000;fill-opacity:1;stroke:#000000;stroke-width:1;stroke-linecap:square;stroke-linejoin:miter;stroke-miterlimit:10;stroke-opacity:1;stroke-dasharray:none;stroke-dashoffset:0;font-family:Dialog">
  <metadata
     id="metadata251">
    <rdf:RDF>
      <cc:Work
         rdf:about="">
        <dc:format>image/svg+xml</dc:format>
        <dc:type
           rdf:resource="http://purl.org/dc/dcmitype/StillImage" />
      </cc:Work>
    </rdf:RDF>
  </metadata>
  <sodipodi:namedview
     pagecolor="#ffffff"
     bordercolor="#666666"
     borderopacity="1"
     objecttolerance="10"
     gridtolerance="10"
     guidetolerance="10"
     inkscape:pageopacity="0"
     inkscape:pageshadow="2"
     inkscape:window-width="640"
     inkscape:window-height="480"
     id="namedview249"
     showgrid="false"
     fit-margin-top="0"
     fit-margin-left="0"
     fit-margin-right="0"
     fit-margin-bottom="0"
     inkscape:zoom="0.78145695"
     inkscape:cx="287.45"
     inkscape:cy="105.5"
     inkscape:window-x="0"
     inkscape:window-y="24"
     inkscape:window-maximized="0"
     inkscape:current-layer="svg2" />
  <!--Generated by the Batik Graphics2D SVG Generator-->
  <defs
     id="genericDefs" />
  <g
     id="g5"
     transform="translate(87.45,-3.5)">
    <g
       transform="matrix(50,0,0,50,196.875,30)"
       id="g7"
       style="fill:#ffffff;stroke:#ffffff;stroke-width:0.06">
      <path
         d="m -0.35,-0.5 c 0.5,0 0.85,0.25 1,0.5 -0.15,0.25 -0.5,0.5 -1,0.5 q 0.3333,-0.5 0,-1 z"
         id="path9"
         inkscape:connector-curvature="0"
         style="stroke:none" />
    </g>
    <g
       transform="matrix(50,0,0,50,196.875,30)"
       id="g11"
       style="stroke-width:0.06">
      <path
         d="m -0.35,-0.5 c 0.5,0 0.85,0.25 1,0.5 -0.15,0.25 -0.5,0.5 -1,0.5 q 0.3333,-0.5 0,-1 z"
         id="path13"
         inkscape:connector-curvature="0"
         style="fill:none" />
      <circle
         cx="0"
         cy="0"
         r="0.15000001"
         transform="translate(-0.375,-0.25)"
         id="circle15"
         d="M 0.15000001,0 C 0.15000001,0.08284272 0.08284272,0.15000001 0,0.15000001 -0.08284272,0.15000001 -0.15000001,0.08284272 -0.15000001,0 c 0,-0.08284272 0.06715729,-0.15000001 0.15000001,-0.15000001 0.08284272,0 0.15000001,0.06715729 0.15000001,0.15000001 z"
         sodipodi:cx="0"
         sodipodi:cy="0"
         sodipodi:rx="0.15000001"
         sodipodi:ry="0.15000001"
         style="fill:#ffffff;stroke:none" />
      <circle
         cx="0"
         cy="0"
         r="0.15000001"
         transform="translate(-0.375,-0.25)"
         id="circle17"
         d="M 0.15000001,0 C 0.15000001,0.08284272 0.08284272,0.15000001 0,0.15000001 -0.08284272,0.15000001 -0.15000001,0.08284272 -0.15000001,0 c 0,-0.08284272 0.06715729,-0.15000001 0.15000001,-0.15000001 0.08284272,0 0.15000001,0.06715729 0.15000001,0.15000001 z"
         sodipodi:cx="0"
         sodipodi:cy="0"
         sodipodi:rx="0.15000001"
         sodipodi:ry="0.15000001"
         style="fill:none" />
      <path
         d="m -0.35,-0.5 c 0.5,0 0.85,0.25 1,0.5 -0.15,0.25 -0.5,0.5 -1,0.5 q 0.3333,-0.5 0,-1 z"
         transform="translate(0,1)"
         id="path19"
         inkscape:connector-curvature="0"
         style="fill:#ffffff;stroke:none" />
      <path
         d="m -0.35,-0.5 c 0.5,0 0.85,0.25 1,0.5 -0.15,0.25 -0.5,0.5 -1,0.5 q 0.3333,-0.5 0,-1 z"
         transform="translate(0,1)"
         id="path21"
         inkscape:connector-curvature="0"
         style="fill:none" />
      <circle
         cx="0"
         cy="0"
         r="0.15000001"
         transform="translate(-0.375,0.75)"
         id="circle23"
         d="M 0.15000001,0 C 0.15000001,0.08284272 0.08284272,0.15000001 0,0.15000001 -0.08284272,0.15000001 -0.15000001,0.08284272 -0.15000001,0 c 0,-0.08284272 0.06715729,-0.15000001 0.15000001,-0.15000001 0.08284272,0 0.15000001,0.06715729 0.15000001,0.15000001 z"
         sodipodi:cx="0"
         sodipodi:cy="0"
         sodipodi:rx="0.15000001"
         sodipodi:ry="0.15000001"
         style="fill:#ffffff;stroke:none" />
      <circle
         cx="0"
         cy="0"
         r="0.15000001"
         transform="translate(-0.375,0.75)"
         id="circle25"
         d="M 0.15000001,0 C 0.15000001,0.08284272 0.08284272,0.15000001 0,0.15000001 -0.08284272,0.15000001 -0.15000001,0.08284272 -0.15000001,0 c 0,-0.08284272 0.06715729,-0.15000001 0.15000001,-0.15000001 0.08284272,0 0.15000001,0.06715729 0.15000001,0.15000001 z"
         sodipodi:cx="0"
         sodipodi:cy="0"
         sodipodi:rx="0.15000001"
         sodipodi:ry="0.15000001"
         style="fill:none" />
      <path
         d="m -0.0125,-1 0.5,0 c 1.5,0 1.5,2 0,2 l -0.5,0 z"
         transform="translate(0.6625,0.5)"
         id="path27"
         inkscape:connector-curvature="0"
         style="fill:#ffffff;stroke:none" />
      <path
         d="m -0.0125,-1 0.5,0 c 1.5,0 1.5,2 0,2 l -0.5,0 z"
         transform="translate(0.6625,0.5)"
         id="path29"
         inkscape:connector-curvature="0"
         style="fill:none" />
      <circle
         cx="0"
         cy="0"
         r="0.15000001"
         transform="translate(2.275,0.5)"
         id="circle31"
         d="M 0.15000001,0 C 0.15000001,0.08284272 0.08284272,0.15000001 0,0.15000001 -0.08284272,0.15000001 -0.15000001,0.08284272 -0.15000001,0 c 0,-0.08284272 0.06715729,-0.15000001 0.15000001,-0.15000001 0.08284272,0 0.15000001,0.06715729 0.15000001,0.15000001 z"
         sodipodi:cx="0"
         sodipodi:cy="0"
         sodipodi:rx="0.15000001"
         sodipodi:ry="0.15000001"
         style="fill:#ffffff;stroke:none" />
      <circle
         cx="0"
         cy="0"
         r="0.15000001"
         transform="translate(2.275,0.5)"
         id="circle33"
         d="M 0.15000001,0 C 0.15000001,0.08284272 0.08284272,0.15000001 0,0.15000001 -0.08284272,0.15000001 -0.15000001,0.08284272 -0.15000001,0 c 0,-0.08284272 0.06715729,-0.15000001 0.15000001,-0.15000001 0.08284272,0 0.15000001,0.06715729 0.15000001,0.15000001 z"
         sodipodi:cx="0"
         sodipodi:cy="0"
         sodipodi:rx="0.15000001"
         sodipodi:ry="0.15000001"
         style="fill:none" />
      <line
         transform="translate(0.8125,0.5)"
         x1="1.6125"
         x2="2"
         y1="0"
         y2="0"
         id="line35"
         style="fill:none;stroke-width:0.04" />
      <line
         transform="translate(0.8125,0.5)"
         x1="-1.3375"
         x2="-2"
         y1="-0.75"
         y2="-0.75"
         id="line37"
         style="fill:none;stroke-width:0.04" />
      <line
         transform="translate(0.8125,0.5)"
         x1="-1.0375"
         x2="-2"
         y1="-0.25"
         y2="-0.25"
         id="line39"
         style="fill:none;stroke-width:0.04" />
      <line
         transform="translate(0.8125,0.5)"
         x1="-1.3375"
         x2="-2"
         y1="0.25"
         y2="0.25"
         id="line41"
         style="fill:none;stroke-width:0.04" />
      <line
         transform="translate(0.8125,0.5)"
         x1="-1.0375"
         x2="-2"
         y1="0.75"
         y2="0.75"
         id="line43"
         style="fill:none;stroke-width:0.04" />
    </g>
    <g
       font-size="0.5"
       font-style="italic"
       transform="matrix(50,0,0,50,255,217.5)"
       id="g49"
       style="font-size:0.5px;font-style:italic;fill:#ffffff;stroke:#ffffff;stroke-width:0.06">
      <path
         d="m -0.6,-0.75 c 0.75,0 1.275,0.375 1.5,0.75 -0.225,0.375 -0.75,0.75 -1.5,0.75 q 0.5,-0.75 0,-1.5 z"
         id="path51"
         inkscape:connector-curvature="0"
         style="stroke:none" />
      <path
         d="m -0.6,-0.75 c 0.75,0 1.275,0.375 1.5,0.75 -0.225,0.375 -0.75,0.75 -1.5,0.75 q 0.5,-0.75 0,-1.5 z"
         id="path53"
         inkscape:connector-curvature="0"
         style="fill:none;stroke:#000000" />
      <circle
         cx="0"
         cy="0"
         r="0.15000001"
         transform="translate(0.9,0)"
         id="circle55"
         d="M 0.15000001,0 C 0.15000001,0.08284272 0.08284272,0.15000001 0,0.15000001 -0.08284272,0.15000001 -0.15000001,0.08284272 -0.15000001,0 c 0,-0.08284272 0.06715729,-0.15000001 0.15000001,-0.15000001 0.08284272,0 0.15000001,0.06715729 0.15000001,0.15000001 z"
         sodipodi:cx="0"
         sodipodi:cy="0"
         sodipodi:rx="0.15000001"
         sodipodi:ry="0.15000001"
         style="stroke:none" />
      <circle
         cx="0"
         cy="0"
         r="0.15000001"
         transform="translate(0.9,0)"
         id="circle57"
         d="M 0.15000001,0 C 0.15000001,0.08284272 0.08284272,0.15000001 0,0.15000001 -0.08284272,0.15000001 -0.15000001,0.08284272 -0.15000001,0 c 0,-0.08284272 0.06715729,-0.15000001 0.15000001,-0.15000001 0.08284272,0 0.15000001,0.06715729 0.15000001,0.15000001 z"
         sodipodi:cx="0"
         sodipodi:cy="0"
         sodipodi:rx="0.15000001"
         sodipodi:ry="0.15000001"
         style="fill:none;stroke:#000000" />
      <line
         transform="translate(0.15,0)"
         x1="0.89999998"
         x2="1.5"
         y1="0"
         y2="0"
         id="line59"
         style="fill:none;stroke:#000000;stroke-width:0.04" />
      <line
         transform="translate(0.15,0)"
         x1="-0.61110002"
         x2="-1.5"
         y1="-0.5"
         y2="-0.5"
         id="line61"
         style="fill:none;stroke:#000000;stroke-width:0.04" />
      <line
         transform="translate(0.15,0)"
         x1="-0.5"
         x2="-1.5"
         y1="0"
         y2="0"
         id="line63"
         style="fill:none;stroke:#000000;stroke-width:0.04" />
      <line
         transform="translate(0.15,0)"
         x1="-0.61110002"
         x2="-1.5"
         y1="0.5"
         y2="0.5"
         id="line65"
         style="fill:none;stroke:#000000;stroke-width:0.04" />
    </g>
    <g
       font-size="0.5"
       font-style="italic"
       transform="matrix(50,0,0,50,387.5,55)"
       id="g69"
       style="font-size:0.5px;font-style:italic;fill:#ffffff;stroke:#ffffff;stroke-width:0.04">
      <path
         d="M -0.15,-0.15 0,-0.15 0.15,0 0,0.15 l -0.15,0 z"
         id="path71"
         inkscape:connector-curvature="0"
         style="stroke:none" />
      <path
         d="M -0.15,-0.15 0,-0.15 0.15,0 0,0.15 l -0.15,0 z"
         id="path73"
         inkscape:connector-curvature="0"
         style="fill:none;stroke:#000000" />
    </g>
    <g
       font-size="0.5"
       font-style="italic"
       transform="matrix(50,0,0,50,387.5,55)"
       id="g75"
       style="font-size:0.5px;font-style:italic;fill:#0000ff;stroke:#0000ff;stroke-width:0.04">
      <path
         d="m 0.527,0.0101 q 0,-0.0488 -0.0201,-0.0757 -0.0201,-0.0268 -0.0565,-0.0268 -0.0361,0 -0.0563,0.0268 -0.0201,0.0269 -0.0201,0.0757 0,0.0486 0.0201,0.0754 0.0202,0.0269 0.0563,0.0269 0.0364,0 0.0565,-0.0269 Q 0.527,0.0587 0.527,0.0101 z m 0.045,0.106 q 0,0.0698 -0.031,0.1038 Q 0.51,0.254 0.446,0.254 0.4223,0.254 0.4013,0.2505 0.3803,0.2469 0.3605,0.2396 l 0,-0.0437 q 0.0198,0.0107 0.0391,0.0159 0.0193,0.0051 0.0393,0.0051 0.0442,0 0.0662,-0.0231 Q 0.527,0.1708 0.527,0.1241 l 0,-0.0222 Q 0.5131,0.1261 0.4914,0.138 0.4697,0.15 0.4394,0.15 0.3891,0.15 0.3584,0.1117 0.3276,0.0733 0.3276,0.0101 q 0,-0.0635 0.0308,-0.1018 0.0307,-0.0383 0.081,-0.0383 0.0303,0 0.052,0.0119 0.0217,0.012 0.0356,0.0362 l 0,-0.0415 0.045,0 0,0.2395 z m 0.136,-0.0071 0,0.145 -0.0452,0 0,-0.3774 0.0452,0 0,0.0415 Q 0.7221,-0.1063 0.7437,-0.1182 0.7653,-0.13 0.7954,-0.13 q 0.0498,0 0.0809,0.0395 0.0311,0.0396 0.0311,0.104 0,0.0645 -0.0311,0.104 Q 0.8452,0.1571 0.7954,0.1571 0.7653,0.1571 0.7437,0.1452 0.7221,0.1334 0.708,0.109 z M 0.8608,0.0135 q 0,-0.0495 -0.0204,-0.0777 -0.0204,-0.0282 -0.056,-0.0282 -0.0357,0 -0.0561,0.0282 -0.0203,0.0282 -0.0203,0.0777 0,0.0496 0.0203,0.0778 0.0204,0.0282 0.0561,0.0282 0.0356,0 0.056,-0.0282 0.0204,-0.0282 0.0204,-0.0778 z"
         id="path77"
         inkscape:connector-curvature="0"
         style="stroke:none" />
    </g>
    <g
       font-size="0.5"
       font-style="italic"
       transform="matrix(50,0,0,50,387.5,217.5)"
       id="g79"
       style="font-size:0.5px;font-style:italic;fill:#ffffff;stroke:#ffffff;stroke-width:0.04">
      <path
         d="M -0.15,-0.15 0,-0.15 0.15,0 0,0.15 l -0.15,0 z"
         id="path81"
         inkscape:connector-curvature="0"
         style="stroke:none" />
      <path
         d="M -0.15,-0.15 0,-0.15 0.15,0 0,0.15 l -0.15,0 z"
         id="path83"
         inkscape:connector-curvature="0"
         style="fill:none;stroke:#000000" />
    </g>
    <g
       font-size="0.5"
       font-style="italic"
       transform="matrix(50,0,0,50,387.5,217.5)"
       id="g85"
       style="font-size:0.5px;font-style:italic;fill:#0000ff;stroke:#0000ff;stroke-width:0.04">
      <path
         d="m 0.527,0.0101 q 0,-0.0488 -0.0201,-0.0757 -0.0201,-0.0268 -0.0565,-0.0268 -0.0361,0 -0.0563,0.0268 -0.0201,0.0269 -0.0201,0.0757 0,0.0486 0.0201,0.0754 0.0202,0.0269 0.0563,0.0269 0.0364,0 0.0565,-0.0269 Q 0.527,0.0587 0.527,0.0101 z m 0.045,0.106 q 0,0.0698 -0.031,0.1038 Q 0.51,0.254 0.446,0.254 0.4223,0.254 0.4013,0.2505 0.3803,0.2469 0.3605,0.2396 l 0,-0.0437 q 0.0198,0.0107 0.0391,0.0159 0.0193,0.0051 0.0393,0.0051 0.0442,0 0.0662,-0.0231 Q 0.527,0.1708 0.527,0.1241 l 0,-0.0222 Q 0.5131,0.1261 0.4914,0.138 0.4697,0.15 0.4394,0.15 0.3891,0.15 0.3584,0.1117 0.3276,0.0733 0.3276,0.0101 q 0,-0.0635 0.0308,-0.1018 0.0307,-0.0383 0.081,-0.0383 0.0303,0 0.052,0.0119 0.0217,0.012 0.0356,0.0362 l 0,-0.0415 0.045,0 0,0.2395 z m 0.3198,-0.1311 0,0.165 -0.0449,0 0,-0.1636 q 0,-0.0388 -0.0152,-0.0581 -0.0151,-0.0193 -0.0454,-0.0193 -0.0364,0 -0.0573,0.0232 -0.021,0.0232 -0.021,0.0633 l 0,0.1545 -0.0452,0 0,-0.2734 0.0452,0 0,0.0424 Q 0.7241,-0.1056 0.7459,-0.1178 0.7678,-0.13 0.7963,-0.13 q 0.0472,0 0.0713,0.0291 0.0242,0.0292 0.0242,0.0859 z"
         id="path87"
         inkscape:connector-curvature="0"
         style="stroke:none" />
    </g>
    <g
       font-size="0.5"
       font-style="italic"
       transform="matrix(50,0,0,50,12.5,92.5)"
       id="g89"
       style="font-size:0.5px;font-style:italic;fill:#ffffff;stroke:#ffffff;stroke-width:0.04">
      <path
         d="M -0.15,-0.15 0,-0.15 0.15,0 0,0.15 l -0.15,0 z"
         id="path91"
         inkscape:connector-curvature="0"
         style="stroke:none" />
      <path
         d="M -0.15,-0.15 0,-0.15 0.15,0 0,0.15 l -0.15,0 z"
         id="path93"
         inkscape:connector-curvature="0"
         style="fill:none;stroke:#000000" />
    </g>
    <g
       font-size="0.5"
       font-style="italic"
       transform="matrix(50,0,0,50,12.5,92.5)"
       id="g95"
       style="font-size:0.5px;font-style:italic;fill:#ff0000;stroke:#ff0000;stroke-width:0.04">
      <path
         d="m -0.6691,-0.0919 q -0.0362,0 -0.0572,0.0282 -0.021,0.0282 -0.021,0.0772 0,0.0491 0.0209,0.0773 0.0209,0.0282 0.0573,0.0282 0.0359,0 0.0569,-0.0283 0.0209,-0.0283 0.0209,-0.0772 0,-0.0486 -0.0209,-0.077 -0.021,-0.0284 -0.0569,-0.0284 z m 0,-0.0381 q 0.0586,0 0.092,0.0381 0.0335,0.038 0.0335,0.1054 0,0.0672 -0.0335,0.1054 -0.0334,0.0382 -0.092,0.0382 -0.0589,0 -0.0922,-0.0382 -0.0333,-0.0382 -0.0333,-0.1054 0,-0.0674 0.0333,-0.1054 Q -0.728,-0.13 -0.6691,-0.13 z m 0.3967,0.0171 0,0.0419 q -0.019,-0.0105 -0.0382,-0.0157 -0.0192,-0.0052 -0.0387,-0.0052 -0.0437,0 -0.0679,0.0277 -0.0241,0.0277 -0.0241,0.0777 0,0.0501 0.0241,0.0778 0.0242,0.0277 0.0679,0.0277 0.0195,0 0.0387,-0.0052 0.0192,-0.0053 0.0382,-0.0158 l 0,0.0415 q -0.0188,0.0088 -0.0389,0.0132 -0.0202,0.0044 -0.0429,0.0044 -0.0618,0 -0.0981,-0.0388 -0.0364,-0.0389 -0.0364,-0.1048 0,-0.0669 0.0367,-0.1052 0.0368,-0.0383 0.1007,-0.0383 0.0208,0 0.0406,0.0042 0.0197,0.0043 0.0383,0.0129 z"
         id="path97"
         inkscape:connector-curvature="0"
         style="stroke:none" />
    </g>
    <g
       font-size="0.5"
       font-style="italic"
       transform="matrix(50,0,0,50,12.5,192.5)"
       id="g99"
       style="font-size:0.5px;font-style:italic;fill:#ffffff;stroke:#ffffff;stroke-width:0.04">
      <path
         d="M -0.15,-0.15 0,-0.15 0.15,0 0,0.15 l -0.15,0 z"
         id="path101"
         inkscape:connector-curvature="0"
         style="stroke:none" />
      <path
         d="M -0.15,-0.15 0,-0.15 0.15,0 0,0.15 l -0.15,0 z"
         id="path103"
         inkscape:connector-curvature="0"
         style="fill:none;stroke:#000000" />
    </g>
    <g
       font-size="0.5"
       font-style="italic"
       transform="matrix(50,0,0,50,12.5,192.5)"
       id="g105"
       style="font-size:0.5px;font-style:italic;fill:#ff0000;stroke:#ff0000;stroke-width:0.04">
      <path
         d="m -0.7573,-0.1234 0.2134,0 0,0.041 -0.1689,0.1965 0.1689,0 0,0.0359 -0.2195,0 0,-0.041 0.169,-0.1965 -0.1629,0 0,-0.0359 z m 0.4788,0.0105 0,0.0419 q -0.019,-0.0105 -0.0382,-0.0157 -0.0192,-0.0052 -0.0387,-0.0052 -0.0437,0 -0.0679,0.0277 -0.0242,0.0277 -0.0242,0.0777 0,0.0501 0.0242,0.0778 0.0242,0.0277 0.0679,0.0277 0.0195,0 0.0387,-0.0052 0.0192,-0.0053 0.0382,-0.0158 l 0,0.0415 q -0.0188,0.0088 -0.039,0.0132 -0.0201,0.0044 -0.0428,0.0044 -0.0618,0 -0.0981,-0.0388 -0.0364,-0.0389 -0.0364,-0.1048 0,-0.0669 0.0367,-0.1052 0.0368,-0.0383 0.1007,-0.0383 0.0208,0 0.0406,0.0042 0.0197,0.0043 0.0383,0.0129 z"
         id="path107"
         inkscape:connector-curvature="0"
         style="stroke:none" />
    </g>
    <g
       font-size="0.5"
       font-style="italic"
       transform="matrix(50,0,0,50,12.5,242.5)"
       id="g109"
       style="font-size:0.5px;font-style:italic;fill:#ffffff;stroke:#ffffff;stroke-width:0.04">
      <path
         d="M -0.15,-0.15 0,-0.15 0.15,0 0,0.15 l -0.15,0 z"
         id="path111"
         inkscape:connector-curvature="0"
         style="stroke:none" />
      <path
         d="M -0.15,-0.15 0,-0.15 0.15,0 0,0.15 l -0.15,0 z"
         id="path113"
         inkscape:connector-curvature="0"
         style="fill:none;stroke:#000000" />
    </g>
    <g
       font-size="0.5"
       font-style="italic"
       transform="matrix(50,0,0,50,12.5,242.5)"
       id="g115"
       style="font-size:0.5px;font-style:italic;fill:#ff0000;stroke:#ff0000;stroke-width:0.04">
      <path
         d="m -1.7995,0.0101 q 0,-0.0488 -0.0202,-0.0757 -0.0201,-0.0268 -0.0565,-0.0268 -0.0361,0 -0.0562,0.0268 -0.0202,0.0269 -0.0202,0.0757 0,0.0486 0.0202,0.0754 0.0201,0.0269 0.0562,0.0269 0.0364,0 0.0565,-0.0269 0.0202,-0.0268 0.0202,-0.0754 z m 0.0449,0.106 q 0,0.0698 -0.031,0.1038 -0.031,0.0341 -0.095,0.0341 -0.0237,0 -0.0446,-0.0035 -0.021,-0.0036 -0.0408,-0.0109 l 0,-0.0437 q 0.0198,0.0107 0.039,0.0159 0.0193,0.0051 0.0394,0.0051 0.0441,0 0.0661,-0.0231 0.022,-0.023 0.022,-0.0697 l 0,-0.0222 Q -1.8134,0.1261 -1.8352,0.138 -1.8569,0.15 -1.8872,0.15 -1.9375,0.15 -1.9682,0.1117 -1.999,0.0733 -1.999,0.0101 q 0,-0.0635 0.0308,-0.1018 0.0307,-0.0383 0.081,-0.0383 0.0303,0 0.052,0.0119 0.0218,0.012 0.0357,0.0362 l 0,-0.0415 0.0449,0 0,0.2395 z m 0.136,-0.0071 0,0.145 -0.0452,0 0,-0.3774 0.0452,0 0,0.0415 q 0.0142,-0.0244 0.0358,-0.0363 0.0216,-0.0118 0.0516,-0.0118 0.0498,0 0.0809,0.0395 0.0312,0.0396 0.0312,0.104 0,0.0645 -0.0312,0.104 -0.0311,0.0396 -0.0809,0.0396 -0.03,0 -0.0516,-0.0119 Q -1.6044,0.1334 -1.6186,0.109 z m 0.1528,-0.0955 q 0,-0.0495 -0.0204,-0.0777 -0.0203,-0.0282 -0.056,-0.0282 -0.0356,0 -0.056,0.0282 -0.0204,0.0282 -0.0204,0.0777 0,0.0496 0.0204,0.0778 0.0204,0.0282 0.056,0.0282 0.0357,0 0.056,-0.0282 0.0204,-0.0282 0.0204,-0.0778 z m 0.3289,0.2195 0,0.0349 -0.2598,0 0,-0.0349 0.2598,0 z m 0.1665,-0.2205 q -0.0545,0 -0.0755,0.0125 -0.0209,0.0125 -0.0209,0.0425 0,0.0239 0.0157,0.0379 0.0158,0.0141 0.0428,0.0141 0.0374,0 0.06,-0.0265 0.0226,-0.0265 0.0226,-0.0704 l 0,-0.0101 -0.0447,0 z m 0.0896,-0.0185 0,0.156 -0.0449,0 0,-0.0415 q -0.0154,0.0249 -0.0384,0.0367 -0.0229,0.0119 -0.0561,0.0119 -0.042,0 -0.0668,-0.0236 -0.0248,-0.0235 -0.0248,-0.0631 0,-0.0461 0.0309,-0.0696 0.0309,-0.0234 0.0922,-0.0234 l 0.063,0 0,-0.0044 q 0,-0.031 -0.0204,-0.048 -0.0204,-0.0169 -0.0573,-0.0169 -0.0234,0 -0.0456,0.0056 -0.0222,0.0056 -0.0428,0.0168 l 0,-0.0415 q 0.0247,-0.0095 0.0479,-0.0143 0.0232,-0.0047 0.0452,-0.0047 0.0593,0 0.0886,0.0307 0.0293,0.0308 0.0293,0.0933 z m 0.2893,-0.1069 0,0.0419 q -0.019,-0.0105 -0.0382,-0.0157 -0.0192,-0.0052 -0.0387,-0.0052 -0.0437,0 -0.0679,0.0277 -0.0241,0.0277 -0.0241,0.0777 0,0.0501 0.0241,0.0778 0.0242,0.0277 0.0679,0.0277 0.0195,0 0.0387,-0.0052 0.0192,-0.0053 0.0382,-0.0158 l 0,0.0415 q -0.0188,0.0088 -0.0389,0.0132 -0.0202,0.0044 -0.0429,0.0044 -0.0618,0 -0.0981,-0.0388 -0.0364,-0.0389 -0.0364,-0.1048 0,-0.0669 0.0367,-0.1052 0.0368,-0.0383 0.1007,-0.0383 0.0208,0 0.0406,0.0042 0.0197,0.0043 0.0383,0.0129 z m 0.0764,-0.117 0.0452,0 0,0.2244 0.134,-0.1179 0.0574,0 -0.145,0.1279 0.1511,0.1455 -0.0586,0 -0.1389,-0.1335 0,0.1335 -0.0452,0 0,-0.3799 z"
         id="path117"
         inkscape:connector-curvature="0"
         style="stroke:none" />
    </g>
    <g
       font-size="0.5"
       font-style="italic"
       transform="matrix(50,0,0,50,62.5,242.5)"
       id="g119"
       style="font-size:0.5px;font-style:italic;stroke-width:0.04">
      <circle
         cx="0"
         cy="0"
         r="0.125"
         id="circle121"
         d="M 0.125,0 C 0.125,0.06903559 0.06903559,0.125 0,0.125 -0.06903559,0.125 -0.125,0.06903559 -0.125,0 c 0,-0.06903559 0.05596441,-0.125 0.125,-0.125 0.06903559,0 0.125,0.05596441 0.125,0.125 z"
         sodipodi:cx="0"
         sodipodi:cy="0"
         sodipodi:rx="0.125"
         sodipodi:ry="0.125"
         style="stroke:none" />
    </g>
    <g
       font-size="0.5"
       font-style="italic"
       transform="matrix(50,0,0,50,12.5,142.5)"
       id="g123"
       style="font-size:0.5px;font-style:italic;fill:#ffffff;stroke:#ffffff;stroke-width:0.04">
      <path
         d="M -0.15,-0.15 0,-0.15 0.15,0 0,0.15 l -0.15,0 z"
         id="path125"
         inkscape:connector-curvature="0"
         style="stroke:none" />
      <path
         d="M -0.15,-0.15 0,-0.15 0.15,0 0,0.15 l -0.15,0 z"
         id="path127"
         inkscape:connector-curvature="0"
         style="fill:none;stroke:#000000" />
    </g>
    <g
       font-size="0.5"
       font-style="italic"
       transform="matrix(50,0,0,50,12.5,142.5)"
       id="g129"
       style="font-size:0.5px;font-style:italic;fill:#ff0000;stroke:#ff0000;stroke-width:0.04">
      <path
         d="m -0.8129,0.0421 0,-0.1655 0.0449,0 0,0.1638 q 0,0.0388 0.0151,0.0582 0.0152,0.0194 0.0454,0.0194 0.0364,0 0.0575,-0.0232 0.0212,-0.0232 0.0212,-0.0632 l 0,-0.155 0.0449,0 0,0.2734 -0.0449,0 0,-0.042 q -0.0164,0.0249 -0.038,0.037 -0.0216,0.0121 -0.0502,0.0121 -0.0471,0 -0.0715,-0.0293 -0.0244,-0.0293 -0.0244,-0.0857 z m 0.2893,-0.1655 0.0476,0 0.0854,0.2294 0.0855,-0.2294 0.0476,0 -0.1025,0.2734 -0.0611,0 -0.1025,-0.2734 z"
         id="path131"
         inkscape:connector-curvature="0"
         style="stroke:none" />
    </g>
    <g
       font-size="0.5"
       font-style="italic"
       transform="matrix(50,0,0,50,112.5,142.5)"
       id="g133"
       style="font-size:0.5px;font-style:italic;stroke-width:0.04">
      <circle
         cx="0"
         cy="0"
         r="0.125"
         id="circle135"
         d="M 0.125,0 C 0.125,0.06903559 0.06903559,0.125 0,0.125 -0.06903559,0.125 -0.125,0.06903559 -0.125,0 c 0,-0.06903559 0.05596441,-0.125 0.125,-0.125 0.06903559,0 0.125,0.05596441 0.125,0.125 z"
         sodipodi:cx="0"
         sodipodi:cy="0"
         sodipodi:rx="0.125"
         sodipodi:ry="0.125"
         style="stroke:none" />
    </g>
    <g
       font-size="0.5"
       font-style="italic"
       transform="matrix(50,0,0,50,12.5,42.5)"
       id="g137"
       style="font-size:0.5px;font-style:italic;fill:#ffffff;stroke:#ffffff;stroke-width:0.04">
      <path
         d="M -0.15,-0.15 0,-0.15 0.15,0 0,0.15 l -0.15,0 z"
         id="path139"
         inkscape:connector-curvature="0"
         style="stroke:none" />
      <path
         d="M -0.15,-0.15 0,-0.15 0.15,0 0,0.15 l -0.15,0 z"
         id="path141"
         inkscape:connector-curvature="0"
         style="fill:none;stroke:#000000" />
    </g>
    <g
       font-size="0.5"
       font-style="italic"
       transform="matrix(50,0,0,50,12.5,42.5)"
       id="g143"
       style="font-size:0.5px;font-style:italic;fill:#ff0000;stroke:#ff0000;stroke-width:0.04">
      <path
         d="m -1.799,0.0101 q 0,-0.0488 -0.0202,-0.0757 -0.0201,-0.0268 -0.0565,-0.0268 -0.0361,0 -0.0563,0.0268 -0.0201,0.0269 -0.0201,0.0757 0,0.0486 0.0201,0.0754 0.0202,0.0269 0.0563,0.0269 0.0364,0 0.0565,-0.0269 0.0202,-0.0268 0.0202,-0.0754 z m 0.0449,0.106 q 0,0.0698 -0.031,0.1038 -0.031,0.0341 -0.095,0.0341 -0.0237,0 -0.0447,-0.0035 -0.0209,-0.0036 -0.0407,-0.0109 l 0,-0.0437 q 0.0198,0.0107 0.039,0.0159 0.0193,0.0051 0.0393,0.0051 0.0442,0 0.0662,-0.0231 0.022,-0.023 0.022,-0.0697 l 0,-0.0222 q -0.0139,0.0242 -0.0357,0.0361 -0.0217,0.012 -0.052,0.012 -0.0503,0 -0.081,-0.0383 -0.0308,-0.0384 -0.0308,-0.1016 0,-0.0635 0.0308,-0.1018 0.0307,-0.0383 0.081,-0.0383 0.0303,0 0.052,0.0119 0.0218,0.012 0.0357,0.0362 l 0,-0.0415 0.0449,0 0,0.2395 z m 0.3198,-0.1311 0,0.165 -0.0449,0 0,-0.1636 q 0,-0.0388 -0.0151,-0.0581 -0.0152,-0.0193 -0.0454,-0.0193 -0.0364,0 -0.0574,0.0232 -0.021,0.0232 -0.021,0.0633 l 0,0.1545 -0.0452,0 0,-0.2734 0.0452,0 0,0.0424 q 0.0161,-0.0246 0.0379,-0.0368 0.0219,-0.0122 0.0505,-0.0122 0.0471,0 0.0713,0.0291 0.0241,0.0292 0.0241,0.0859 z m 0.2974,0.248 0,0.0349 -0.2598,0 0,-0.0349 0.2598,0 z m 0.1665,-0.2205 q -0.0545,0 -0.0755,0.0125 -0.0209,0.0125 -0.0209,0.0425 0,0.0239 0.0157,0.0379 0.0158,0.0141 0.0428,0.0141 0.0374,0 0.06,-0.0265 0.0226,-0.0265 0.0226,-0.0704 l 0,-0.0101 -0.0447,0 z m 0.0896,-0.0185 0,0.156 -0.0449,0 0,-0.0415 q -0.0154,0.0249 -0.0384,0.0367 -0.0229,0.0119 -0.0561,0.0119 -0.042,0 -0.0668,-0.0236 -0.0248,-0.0235 -0.0248,-0.0631 0,-0.0461 0.0309,-0.0696 0.0309,-0.0234 0.0922,-0.0234 l 0.063,0 0,-0.0044 q 0,-0.031 -0.0204,-0.048 -0.0204,-0.0169 -0.0573,-0.0169 -0.0234,0 -0.0456,0.0056 -0.0222,0.0056 -0.0428,0.0168 l 0,-0.0415 q 0.0247,-0.0095 0.0479,-0.0143 0.0232,-0.0047 0.0452,-0.0047 0.0593,0 0.0886,0.0307 0.0293,0.0308 0.0293,0.0933 z m 0.2893,-0.1069 0,0.0419 q -0.019,-0.0105 -0.0382,-0.0157 -0.0192,-0.0052 -0.0387,-0.0052 -0.0437,0 -0.0679,0.0277 -0.0241,0.0277 -0.0241,0.0777 0,0.0501 0.0241,0.0778 0.0242,0.0277 0.0679,0.0277 0.0195,0 0.0387,-0.0052 0.0192,-0.0053 0.0382,-0.0158 l 0,0.0415 q -0.0188,0.0088 -0.0389,0.0132 -0.0202,0.0044 -0.0429,0.0044 -0.0618,0 -0.0981,-0.0388 -0.0364,-0.0389 -0.0364,-0.1048 0,-0.0669 0.0367,-0.1052 0.0368,-0.0383 0.1007,-0.0383 0.0208,0 0.0406,0.0042 0.0197,0.0043 0.0383,0.0129 z m 0.0764,-0.117 0.0452,0 0,0.2244 0.134,-0.1179 0.0574,0 -0.145,0.1279 0.1511,0.1455 -0.0586,0 -0.1389,-0.1335 0,0.1335 -0.0452,0 0,-0.3799 z"
         id="path145"
         inkscape:connector-curvature="0"
         style="stroke:none" />
    </g>
    <g
       font-size="0.5"
       font-style="italic"
       transform="matrix(50,0,0,50,212.5,155)"
       id="g147"
       style="font-size:0.5px;font-style:italic;stroke-width:0.04">
      <line
         x1="2.5"
         x2="2.6099999"
         y1="-2"
         y2="-2"
         id="line149"
         style="fill:none" />
    </g>
    <g
       font-size="0.5"
       font-style="italic"
       transform="matrix(50,0,0,50,212.5,155)"
       id="g151"
       style="font-size:0.5px;font-style:italic;stroke-width:0.04">
      <path
         d="m 2.61,-2 0.74,0"
         id="path153"
         inkscape:connector-curvature="0"
         style="fill:none" />
      <path
         d="m 3.35,-2.075 0,0.15 0,-0.075 z"
         id="path155"
         inkscape:connector-curvature="0"
         style="stroke:none" />
    </g>
    <g
       font-size="0.5"
       font-style="italic"
       transform="matrix(50,0,0,50,212.5,155)"
       id="g157"
       style="font-size:0.5px;font-style:italic;stroke-width:0.04">
      <line
         x1="2.5"
         x2="2.6099999"
         y1="1.25"
         y2="1.25"
         id="line159"
         style="fill:none" />
    </g>
    <g
       font-size="0.5"
       font-style="italic"
       transform="matrix(50,0,0,50,212.5,155)"
       id="g161"
       style="font-size:0.5px;font-style:italic;stroke-width:0.04">
      <path
         d="m 2.61,1.25 0.74,0"
         id="path163"
         inkscape:connector-curvature="0"
         style="fill:none" />
      <path
         d="m 3.35,1.175 0,0.15 0,-0.075 z"
         id="path165"
         inkscape:connector-curvature="0"
         style="stroke:none" />
    </g>
    <g
       font-size="0.5"
       font-style="italic"
       transform="matrix(50,0,0,50,212.5,155)"
       id="g167"
       style="font-size:0.5px;font-style:italic;stroke-width:0.04">
      <line
         x1="-0.61000001"
         x2="-0.5"
         y1="0.75"
         y2="0.75"
         id="line169"
         style="fill:none" />
    </g>
    <g
       font-size="0.5"
       font-style="italic"
       transform="matrix(50,0,0,50,212.5,155)"
       id="g171"
       style="font-size:0.5px;font-style:italic;stroke-width:0.04">
      <path
         d="m -3.85,0.75 3.24,0"
         id="path173"
         inkscape:connector-curvature="0"
         style="fill:none" />
      <path
         d="m -0.61,0.675 0,0.15 0,-0.075 z"
         id="path175"
         inkscape:connector-curvature="0"
         style="stroke:none" />
    </g>
    <g
       font-size="0.5"
       font-style="italic"
       transform="matrix(50,0,0,50,212.5,155)"
       id="g177"
       style="font-size:0.5px;font-style:italic;stroke-width:0.04">
      <line
         x1="-1.61"
         x2="-1.5"
         y1="-1.25"
         y2="-1.25"
         id="line179"
         style="fill:none" />
    </g>
    <g
       font-size="0.5"
       font-style="italic"
       transform="matrix(50,0,0,50,212.5,155)"
       id="g181"
       style="font-size:0.5px;font-style:italic;stroke-width:0.04">
      <path
         d="m -3.85,-1.25 2.24,0"
         id="path183"
         inkscape:connector-curvature="0"
         style="fill:none" />
      <path
         d="m -1.61,-1.325 0,0.15 0,-0.075 z"
         id="path185"
         inkscape:connector-curvature="0"
         style="stroke:none" />
    </g>
    <g
       font-size="0.5"
       font-style="italic"
       transform="matrix(50,0,0,50,212.5,155)"
       id="g187"
       style="font-size:0.5px;font-style:italic;stroke-width:0.04">
      <path
         d="m -3.85,1.75 0.725,0"
         id="path189"
         inkscape:connector-curvature="0"
         style="fill:none" />
      <path
         d="m -3.125,1.675 0,0.15 0,-0.075 z"
         id="path191"
         inkscape:connector-curvature="0"
         style="stroke:none" />
    </g>
    <g
       font-size="0.5"
       font-style="italic"
       transform="matrix(50,0,0,50,212.5,155)"
       id="g193"
       style="font-size:0.5px;font-style:italic;stroke-width:0.04">
      <line
         x1="-0.61000001"
         x2="-0.5"
         y1="1.75"
         y2="1.75"
         id="line195"
         style="fill:none" />
    </g>
    <g
       font-size="0.5"
       font-style="italic"
       transform="matrix(50,0,0,50,212.5,155)"
       id="g197"
       style="font-size:0.5px;font-style:italic;stroke-width:0.04">
      <path
         d="m -2.875,1.75 2.265,0"
         id="path199"
         inkscape:connector-curvature="0"
         style="fill:none" />
      <path
         d="m -0.61,1.675 0,0.15 0,-0.075 z"
         id="path201"
         inkscape:connector-curvature="0"
         style="stroke:none" />
    </g>
    <g
       font-size="0.5"
       font-style="italic"
       transform="matrix(50,0,0,50,212.5,155)"
       id="g203"
       style="font-size:0.5px;font-style:italic;stroke-width:0.04">
      <line
         x1="-1.61"
         x2="-1.5"
         y1="-1.75"
         y2="-1.75"
         id="line205"
         style="fill:none" />
    </g>
    <g
       font-size="0.5"
       font-style="italic"
       transform="matrix(50,0,0,50,212.5,155)"
       id="g207"
       style="font-size:0.5px;font-style:italic;stroke-width:0.04">
      <path
         d="m -3,1.625 0,-3.375 1.39,0"
         id="path209"
         inkscape:connector-curvature="0"
         style="fill:none" />
      <path
         d="m -1.61,-1.825 0,0.15 0,-0.075 z"
         id="path211"
         inkscape:connector-curvature="0"
         style="stroke:none" />
    </g>
    <g
       font-size="0.5"
       font-style="italic"
       transform="matrix(50,0,0,50,212.5,155)"
       id="g213"
       style="font-size:0.5px;font-style:italic;stroke-width:0.04">
      <path
         d="m -3.85,-0.25 1.725,0"
         id="path215"
         inkscape:connector-curvature="0"
         style="fill:none" />
      <path
         d="m -2.125,-0.325 0,0.15 0,-0.075 z"
         id="path217"
         inkscape:connector-curvature="0"
         style="stroke:none" />
    </g>
    <g
       font-size="0.5"
       font-style="italic"
       transform="matrix(50,0,0,50,212.5,155)"
       id="g219"
       style="font-size:0.5px;font-style:italic;stroke-width:0.04">
      <line
         x1="-1.61"
         x2="-1.5"
         y1="-2.75"
         y2="-2.75"
         id="line221"
         style="fill:none" />
    </g>
    <g
       font-size="0.5"
       font-style="italic"
       transform="matrix(50,0,0,50,212.5,155)"
       id="g223"
       style="font-size:0.5px;font-style:italic;stroke-width:0.04">
      <path
         d="m -2,-0.375 0,-2.375 0.39,0"
         id="path225"
         inkscape:connector-curvature="0"
         style="fill:none" />
      <path
         d="m -1.61,-2.825 0,0.15 0,-0.075 z"
         id="path227"
         inkscape:connector-curvature="0"
         style="stroke:none" />
    </g>
    <g
       font-size="0.5"
       font-style="italic"
       transform="matrix(50,0,0,50,212.5,155)"
       id="g229"
       style="font-size:0.5px;font-style:italic;stroke-width:0.04">
      <line
         x1="-0.61000001"
         x2="-0.5"
         y1="1.25"
         y2="1.25"
         id="line231"
         style="fill:none" />
    </g>
    <g
       font-size="0.5"
       font-style="italic"
       transform="matrix(50,0,0,50,212.5,155)"
       id="g233"
       style="font-size:0.5px;font-style:italic;stroke-width:0.04">
      <path
         d="m -2,-0.125 0,1.375 1.39,0"
         id="path235"
         inkscape:connector-curvature="0"
         style="fill:none" />
      <path
         d="m -0.61,1.175 0,0.15 0,-0.075 z"
         id="path237"
         inkscape:connector-curvature="0"
         style="stroke:none" />
    </g>
    <g
       font-size="0.5"
       font-style="italic"
       transform="matrix(50,0,0,50,212.5,155)"
       id="g239"
       style="font-size:0.5px;font-style:italic;stroke-width:0.04">
      <line
         x1="-1.61"
         x2="-1.5"
         y1="-2.25"
         y2="-2.25"
         id="line241"
         style="fill:none" />
    </g>
    <g
       font-size="0.5"
       font-style="italic"
       transform="matrix(50,0,0,50,212.5,155)"
       id="g243"
       style="font-size:0.5px;font-style:italic;stroke-width:0.04">
      <path
         d="m -3.85,-2.25 2.24,0"
         id="path245"
         inkscape:connector-curvature="0"
         style="fill:none" />
      <path
         d="m -1.61,-2.325 0,0.15 0,-0.075 z"
         id="path247"
         inkscape:connector-curvature="0"
         style="stroke:none" />
    </g>
  </g>
</svg>
