<?xml version="1.0" encoding="UTF-8" standalone="no"?>
<svg
   xmlns:dc="http://purl.org/dc/elements/1.1/"
   xmlns:cc="http://creativecommons.org/ns#"
   xmlns:rdf="http://www.w3.org/1999/02/22-rdf-syntax-ns#"
   xmlns:svg="http://www.w3.org/2000/svg"
   xmlns="http://www.w3.org/2000/svg"
   xmlns:sodipodi="http://sodipodi.sourceforge.net/DTD/sodipodi-0.dtd"
   xmlns:inkscape="http://www.inkscape.org/namespaces/inkscape"
   color-interpolation="auto"
   color-rendering="auto"
   font-size="12px"
   font-style="normal"
   font-weight="normal"
   height="366.73935"
   image-rendering="auto"
   shape-rendering="auto"
   stroke-miterlimit="10"
   text-rendering="auto"
   width="750"
   id="svg4093"
   version="1.1"
   inkscape:version="0.48.5 r10040"
   sodipodi:docname="inverter(c,b).pdf"
   style="font-size:12px;font-style:normal;font-weight:normal;fill:#000000;fill-opacity:1;stroke:#000000;stroke-width:1;stroke-linecap:square;stroke-linejoin:miter;stroke-miterlimit:10;stroke-opacity:1;stroke-dasharray:none;stroke-dashoffset:0;font-family:Dialog">
  <metadata
     id="metadata4216">
    <rdf:RDF>
      <cc:Work
         rdf:about="">
        <dc:format>image/svg+xml</dc:format>
        <dc:type
           rdf:resource="http://purl.org/dc/dcmitype/StillImage" />
        <dc:title></dc:title>
      </cc:Work>
    </rdf:RDF>
  </metadata>
  <sodipodi:namedview
     pagecolor="#ffffff"
     bordercolor="#666666"
     borderopacity="1"
     objecttolerance="10"
     gridtolerance="10"
     guidetolerance="10"
     inkscape:pageopacity="0"
     inkscape:pageshadow="2"
     inkscape:window-width="640"
     inkscape:window-height="480"
     id="namedview4214"
     showgrid="false"
     fit-margin-top="0"
     fit-margin-left="0"
     fit-margin-right="0"
     fit-margin-bottom="0"
     inkscape:zoom="0.37631579"
     inkscape:cx="375"
     inkscape:cy="246.49"
     inkscape:window-x="0"
     inkscape:window-y="0"
     inkscape:window-maximized="0"
     inkscape:current-layer="svg4093" />
  <!--Generated by the Batik Graphics2D SVG Generator-->
  <defs
     id="genericDefs" />
  <g
     id="g4096"
     transform="translate(-5.0000006,-143.25065)">
    <g
       font-size="0.75px"
       transform="matrix(50,0,0,50,580,200)"
       id="g4098"
       style="font-size:0.75px;fill:#b20000;stroke:#b20000;font-family:sans-serif">
      <path
         d="m -0.321,0.191 -0.0611,0 0,-0.5369 0.0659,0 0,0.1915 q 0.0417,-0.0523 0.1065,-0.0523 0.0359,0 0.068,0.0144 0.032,0.0145 0.0527,0.0407 0.0207,0.0262 0.0324,0.0632 0.0117,0.0369 0.0117,0.0791 0,0.0999 -0.0494,0.1545 -0.0494,0.0546 -0.1186,0.0546 -0.0689,0 -0.1081,-0.0575 l 0,0.0487 z m -7e-4,-0.1974 q 0,0.0699 0.019,0.1011 0.0312,0.0509 0.0843,0.0509 0.0432,0 0.0747,-0.0376 0.0315,-0.0375 0.0315,-0.1118 0,-0.0762 -0.0303,-0.1125 -0.0302,-0.0362 -0.073,-0.0362 -0.0432,0 -0.0747,0.0375 -0.0315,0.0375 -0.0315,0.1086 z m 0.4955,0.1106 0,-0.1472 -0.1461,0 0,-0.0616 0.1461,0 0,-0.1461 0.0622,0 0,0.1461 0.1461,0 0,0.0616 -0.1461,0 0,0.1472 -0.0622,0 z"
         id="path4100"
         inkscape:connector-curvature="0"
         style="stroke:none" />
    </g>
    <g
       font-size="0.75px"
       transform="matrix(50,0,0,50,730,350)"
       id="g4102"
       style="font-size:0.75px;fill:#ffffff;stroke:#ffffff;font-family:sans-serif">
      <circle
         cx="0"
         cy="0"
         r="0.44999999"
         id="circle4104"
         d="M 0.44999999,0 C 0.44999999,0.24852813 0.24852813,0.44999999 0,0.44999999 -0.24852813,0.44999999 -0.44999999,0.24852813 -0.44999999,0 c 0,-0.24852813 0.20147186,-0.44999999 0.44999999,-0.44999999 0.24852813,0 0.44999999,0.20147186 0.44999999,0.44999999 z"
         sodipodi:cx="0"
         sodipodi:cy="0"
         sodipodi:rx="0.44999999"
         sodipodi:ry="0.44999999"
         style="stroke:none" />
      <circle
         cx="0"
         cy="0"
         r="0.44999999"
         id="circle4106"
         d="M 0.44999999,0 C 0.44999999,0.24852813 0.24852813,0.44999999 0,0.44999999 -0.24852813,0.44999999 -0.44999999,0.24852813 -0.44999999,0 c 0,-0.24852813 0.20147186,-0.44999999 0.44999999,-0.44999999 0.24852813,0 0.44999999,0.20147186 0.44999999,0.44999999 z"
         sodipodi:cx="0"
         sodipodi:cy="0"
         sodipodi:rx="0.44999999"
         sodipodi:ry="0.44999999"
         style="fill:none;stroke:#000000;stroke-width:0.1" />
    </g>
    <g
       font-size="0.5px"
       font-style="italic"
       transform="matrix(50,0,0,50,730,350)"
       id="g4108"
       style="font-size:0.5px;font-style:italic;fill:#595959;stroke:#595959;stroke-width:0.1;font-family:sans-serif">
      <path
         d="m -0.3896,1.1587 0.0747,-0.3579 0.0441,0 -0.0266,0.1279 q 0.021,-0.0192 0.0381,-0.0272 0.0171,-0.0079 0.0357,-0.0079 0.0363,0 0.0606,0.0271 0.0243,0.0271 0.0243,0.0788 0,0.0345 -0.0097,0.063 -0.0098,0.0286 -0.0242,0.048 -0.0144,0.0194 -0.0298,0.031 -0.0154,0.0116 -0.0315,0.0174 -0.0161,0.0057 -0.031,0.0057 -0.0256,0 -0.0452,-0.0136 -0.0195,-0.0135 -0.0305,-0.0413 l -0.0102,0.049 -0.0388,0 z m 0.0654,-0.1064 -3e-4,0.0083 q 0,0.0332 0.0159,0.0505 0.0159,0.0174 0.0395,0.0174 0.0233,0 0.0427,-0.0163 0.0194,-0.0162 0.0318,-0.0506 0.0125,-0.0345 0.0125,-0.0635 0,-0.0327 -0.0158,-0.0508 -0.0157,-0.0181 -0.0389,-0.0181 -0.0239,0 -0.044,0.0185 -0.02,0.0184 -0.0334,0.0567 -0.01,0.0286 -0.01,0.0479 z m 0.1643,0.2058 0,-0.0317 0.2912,0 0,0.0317 -0.2912,0 z M 0.2703,1.1587 0.3269,0.8885 Q 0.2903,0.9173 0.2239,0.9346 l 0.0083,-0.04 Q 0.2651,0.8814 0.2972,0.8601 0.3293,0.8389 0.3455,0.823 0.3552,0.8133 0.364,0.7994 l 0.0256,0 -0.0749,0.3593 -0.0444,0 z"
         id="path4110"
         inkscape:connector-curvature="0"
         style="stroke:none" />
    </g>
    <g
       font-size="0.75px"
       transform="matrix(50,0,0,50,580,500)"
       id="g4112"
       style="font-size:0.75px;fill:#b20000;stroke:#b20000;stroke-width:0.1;font-family:sans-serif">
      <path
         d="m -0.236,0.191 -0.0612,0 0,-0.5369 0.0659,0 0,0.1915 q 0.0418,-0.0523 0.1066,-0.0523 0.0359,0 0.0679,0.0144 0.0321,0.0145 0.0528,0.0407 0.0207,0.0262 0.0324,0.0632 0.0117,0.0369 0.0117,0.0791 0,0.0999 -0.0494,0.1545 -0.0495,0.0546 -0.1187,0.0546 -0.0688,0 -0.108,-0.0575 l 0,0.0487 z m -8e-4,-0.1974 q 0,0.0699 0.0191,0.1011 0.0311,0.0509 0.0842,0.0509 0.0432,0 0.0747,-0.0376 0.0315,-0.0375 0.0315,-0.1118 0,-0.0762 -0.0302,-0.1125 -0.0302,-0.0362 -0.073,-0.0362 -0.0433,0 -0.0748,0.0375 -0.0315,0.0375 -0.0315,0.1086 z m 0.3315,0.0362 0,-0.0662 0.2025,0 0,0.0662 -0.2025,0 z"
         id="path4114"
         inkscape:connector-curvature="0"
         style="stroke:none" />
    </g>
    <g
       font-size="0.75px"
       transform="matrix(50,0,0,50,430,350)"
       id="g4116"
       style="font-size:0.75px;fill:#ffffff;stroke:#ffffff;stroke-width:0.1;font-family:sans-serif">
      <circle
         cx="0"
         cy="0"
         r="0.44999999"
         id="circle4118"
         d="M 0.44999999,0 C 0.44999999,0.24852813 0.24852813,0.44999999 0,0.44999999 -0.24852813,0.44999999 -0.44999999,0.24852813 -0.44999999,0 c 0,-0.24852813 0.20147186,-0.44999999 0.44999999,-0.44999999 0.24852813,0 0.44999999,0.20147186 0.44999999,0.44999999 z"
         sodipodi:cx="0"
         sodipodi:cy="0"
         sodipodi:rx="0.44999999"
         sodipodi:ry="0.44999999"
         style="stroke:none" />
      <circle
         cx="0"
         cy="0"
         r="0.44999999"
         id="circle4120"
         d="M 0.44999999,0 C 0.44999999,0.24852813 0.24852813,0.44999999 0,0.44999999 -0.24852813,0.44999999 -0.44999999,0.24852813 -0.44999999,0 c 0,-0.24852813 0.20147186,-0.44999999 0.44999999,-0.44999999 0.24852813,0 0.44999999,0.20147186 0.44999999,0.44999999 z"
         sodipodi:cx="0"
         sodipodi:cy="0"
         sodipodi:rx="0.44999999"
         sodipodi:ry="0.44999999"
         style="fill:none;stroke:#000000" />
      <circle
         cx="0"
         cy="0"
         r="0.26320001"
         id="circle4122"
         d="M 0.26320001,0 C 0.26320001,0.14536135 0.14536135,0.26320001 0,0.26320001 -0.14536135,0.26320001 -0.26320001,0.14536135 -0.26320001,0 c 0,-0.14536135 0.11783866,-0.26320001 0.26320001,-0.26320001 0.14536135,0 0.26320001,0.11783866 0.26320001,0.26320001 z"
         sodipodi:cx="0"
         sodipodi:cy="0"
         sodipodi:rx="0.26320001"
         sodipodi:ry="0.26320001"
         style="fill:#000000;stroke:none" />
    </g>
    <g
       font-size="0.5px"
       font-style="italic"
       transform="matrix(50,0,0,50,430,350)"
       id="g4124"
       style="font-size:0.5px;font-style:italic;fill:#595959;stroke:#595959;stroke-width:0.1;font-family:sans-serif">
      <path
         d="m -0.4111,1.1587 0.0747,-0.3579 0.0442,0 -0.0266,0.1279 q 0.021,-0.0192 0.038,-0.0272 0.0171,-0.0079 0.0357,-0.0079 0.0364,0 0.0606,0.0271 0.0243,0.0271 0.0243,0.0788 0,0.0345 -0.0097,0.063 -0.0098,0.0286 -0.0242,0.048 -0.0144,0.0194 -0.0298,0.031 -0.0154,0.0116 -0.0315,0.0174 -0.0161,0.0057 -0.031,0.0057 -0.0256,0 -0.0452,-0.0136 -0.0195,-0.0135 -0.0305,-0.0413 l -0.0102,0.049 -0.0388,0 z m 0.0654,-0.1064 -3e-4,0.0083 q 0,0.0332 0.0159,0.0505 0.0159,0.0174 0.0396,0.0174 0.0232,0 0.0426,-0.0163 0.0194,-0.0162 0.0318,-0.0506 0.0125,-0.0345 0.0125,-0.0635 0,-0.0327 -0.0158,-0.0508 -0.0157,-0.0181 -0.0389,-0.0181 -0.0239,0 -0.0439,0.0185 -0.0201,0.0184 -0.0335,0.0567 -0.01,0.0286 -0.01,0.0479 z m 0.1643,0.2058 0,-0.0317 0.2913,0 0,0.0317 -0.2913,0 z M 0.1638,1.0413 Q 0.1638,0.9959 0.1774,0.949 0.1909,0.9021 0.2075,0.8741 0.2241,0.846 0.2419,0.8301 0.2598,0.8142 0.277,0.8068 0.2942,0.7994 0.3152,0.7994 q 0.041,0 0.0685,0.0305 0.0274,0.0305 0.0274,0.0881 0,0.0593 -0.019,0.1174 Q 0.3696,1.1043 0.3296,1.1387 0.2988,1.1648 0.2595,1.1648 0.2192,1.1648 0.1915,1.1332 0.1638,1.1016 0.1638,1.0413 z m 0.0427,0.0112 q 0,0.033 0.011,0.0515 0.0149,0.0257 0.0442,0.0257 0.0256,0 0.0466,-0.0232 Q 0.3386,1.0738 0.3539,1.0107 0.3691,0.9475 0.3691,0.9075 0.3691,0.8689 0.3544,0.8519 0.3396,0.8348 0.3154,0.8348 0.2978,0.8348 0.2826,0.8438 0.2673,0.8528 0.2534,0.8748 0.2336,0.9058 0.219,0.9676 0.2065,1.0203 0.2065,1.0525 z"
         id="path4126"
         inkscape:connector-curvature="0"
         style="stroke:none" />
    </g>
    <g
       font-size="0.75px"
       transform="matrix(50,0,0,50,180,200)"
       id="g4128"
       style="font-size:0.75px;fill:#0000b2;stroke:#0000b2;stroke-width:0.1;font-family:sans-serif">
      <path
         d="m -0.097,0.0152 0.0648,0.0084 q -0.0106,0.067 -0.0544,0.1049 -0.0438,0.038 -0.1075,0.038 -0.0798,0 -0.1283,-0.0522 -0.0486,-0.0522 -0.0486,-0.1496 0,-0.063 0.0209,-0.1103 0.0209,-0.0472 0.0635,-0.0708 0.0427,-0.0236 0.0929,-0.0236 0.0633,0 0.1036,0.032 0.0403,0.032 0.0516,0.091 l -0.064,0.0099 q -0.0092,-0.0392 -0.0324,-0.059 -0.0233,-0.0197 -0.0563,-0.0197 -0.0498,0 -0.0809,0.0357 -0.0311,0.0357 -0.0311,0.1129 0,0.0784 0.03,0.1139 0.03,0.0356 0.0784,0.0356 0.0388,0 0.0648,-0.0239 0.026,-0.0238 0.033,-0.0732 z m 0.2596,0.0557 0,-0.1473 -0.1461,0 0,-0.0615 0.1461,0 0,-0.1461 0.0623,0 0,0.1461 0.1461,0 0,0.0615 -0.1461,0 0,0.1473 -0.0623,0 z"
         id="path4130"
         inkscape:connector-curvature="0"
         style="stroke:none" />
    </g>
    <g
       font-size="0.75px"
       transform="matrix(50,0,0,50,330,350)"
       id="g4132"
       style="font-size:0.75px;fill:#ffffff;stroke:#ffffff;stroke-width:0.1;font-family:sans-serif">
      <circle
         cx="0"
         cy="0"
         r="0.44999999"
         id="circle4134"
         d="M 0.44999999,0 C 0.44999999,0.24852813 0.24852813,0.44999999 0,0.44999999 -0.24852813,0.44999999 -0.44999999,0.24852813 -0.44999999,0 c 0,-0.24852813 0.20147186,-0.44999999 0.44999999,-0.44999999 0.24852813,0 0.44999999,0.20147186 0.44999999,0.44999999 z"
         sodipodi:cx="0"
         sodipodi:cy="0"
         sodipodi:rx="0.44999999"
         sodipodi:ry="0.44999999"
         style="stroke:none" />
      <circle
         cx="0"
         cy="0"
         r="0.44999999"
         id="circle4136"
         d="M 0.44999999,0 C 0.44999999,0.24852813 0.24852813,0.44999999 0,0.44999999 -0.24852813,0.44999999 -0.44999999,0.24852813 -0.44999999,0 c 0,-0.24852813 0.20147186,-0.44999999 0.44999999,-0.44999999 0.24852813,0 0.44999999,0.20147186 0.44999999,0.44999999 z"
         sodipodi:cx="0"
         sodipodi:cy="0"
         sodipodi:rx="0.44999999"
         sodipodi:ry="0.44999999"
         style="fill:none;stroke:#000000" />
    </g>
    <g
       font-size="0.5px"
       font-style="italic"
       transform="matrix(50,0,0,50,330,350)"
       id="g4138"
       style="font-size:0.5px;font-style:italic;fill:#595959;stroke:#595959;stroke-width:0.1;font-family:sans-serif">
      <path
         d="m -0.2024,1.0642 0.0442,0.0047 q -0.0166,0.0486 -0.0473,0.0721 -0.0306,0.0236 -0.0697,0.0236 -0.0422,0 -0.0684,-0.0274 -0.0263,-0.0273 -0.0263,-0.0764 0,-0.0424 0.0169,-0.0835 0.0168,-0.041 0.0482,-0.0623 0.0314,-0.0214 0.0716,-0.0214 0.0418,0 0.0662,0.0236 0.0244,0.0235 0.0244,0.0623 L -0.186,0.9825 Q -0.1863,0.9578 -0.2003,0.9439 -0.2144,0.93 -0.2373,0.93 q -0.0266,0 -0.0462,0.0168 -0.0195,0.0169 -0.0306,0.0512 -0.0111,0.0343 -0.0111,0.066 0,0.0332 0.0146,0.0498 0.0147,0.0166 0.0362,0.0166 0.0215,0 0.0411,-0.0163 0.0197,-0.0164 0.0309,-0.0499 z m 0.0227,0.1939 0,-0.0317 0.2913,0 0,0.0317 -0.2913,0 z M 0.2505,1.1587 0.3071,0.8885 Q 0.2705,0.9173 0.2041,0.9346 l 0.0083,-0.04 Q 0.2454,0.8814 0.2775,0.8601 0.3096,0.8389 0.3257,0.823 0.3355,0.8133 0.3442,0.7994 l 0.0257,0 -0.075,0.3593 -0.0444,0 z"
         id="path4140"
         inkscape:connector-curvature="0"
         style="stroke:none" />
    </g>
    <g
       font-size="0.75px"
       transform="matrix(50,0,0,50,180,500)"
       id="g4142"
       style="font-size:0.75px;fill:#0000b2;stroke:#0000b2;stroke-width:0.1;font-family:sans-serif">
      <path
         d="m -0.0121,-2e-4 0.0648,0.0084 q -0.0106,0.0671 -0.0543,0.105 -0.0438,0.0379 -0.1075,0.0379 -0.0799,0 -0.1284,-0.0522 -0.0485,-0.0522 -0.0485,-0.1496 0,-0.063 0.0209,-0.1103 0.0208,-0.0472 0.0635,-0.0708 0.0427,-0.0236 0.0928,-0.0236 0.0634,0 0.1037,0.032 0.0403,0.0321 0.0516,0.091 l -0.0641,0.0099 q -0.0091,-0.0392 -0.0324,-0.059 -0.0232,-0.0197 -0.0562,-0.0197 -0.0498,0 -0.0809,0.0357 -0.0312,0.0357 -0.0312,0.1129 0,0.0784 0.0301,0.1139 0.03,0.0356 0.0783,0.0356 0.0389,0 0.0649,-0.0238 0.026,-0.0238 0.0329,-0.0733 z m 0.0956,-0.0187 0,-0.0662 0.2025,0 0,0.0662 -0.2025,0 z"
         id="path4144"
         inkscape:connector-curvature="0"
         style="stroke:none" />
    </g>
    <g
       font-size="0.75px"
       transform="matrix(50,0,0,50,30,350)"
       id="g4146"
       style="font-size:0.75px;fill:#ffffff;stroke:#ffffff;stroke-width:0.1;font-family:sans-serif">
      <circle
         cx="0"
         cy="0"
         r="0.44999999"
         id="circle4148"
         d="M 0.44999999,0 C 0.44999999,0.24852813 0.24852813,0.44999999 0,0.44999999 -0.24852813,0.44999999 -0.44999999,0.24852813 -0.44999999,0 c 0,-0.24852813 0.20147186,-0.44999999 0.44999999,-0.44999999 0.24852813,0 0.44999999,0.20147186 0.44999999,0.44999999 z"
         sodipodi:cx="0"
         sodipodi:cy="0"
         sodipodi:rx="0.44999999"
         sodipodi:ry="0.44999999"
         style="stroke:none" />
      <circle
         cx="0"
         cy="0"
         r="0.44999999"
         id="circle4150"
         d="M 0.44999999,0 C 0.44999999,0.24852813 0.24852813,0.44999999 0,0.44999999 -0.24852813,0.44999999 -0.44999999,0.24852813 -0.44999999,0 c 0,-0.24852813 0.20147186,-0.44999999 0.44999999,-0.44999999 0.24852813,0 0.44999999,0.20147186 0.44999999,0.44999999 z"
         sodipodi:cx="0"
         sodipodi:cy="0"
         sodipodi:rx="0.44999999"
         sodipodi:ry="0.44999999"
         style="fill:none;stroke:#000000" />
      <circle
         cx="0"
         cy="0"
         r="0.26320001"
         id="circle4152"
         d="M 0.26320001,0 C 0.26320001,0.14536135 0.14536135,0.26320001 0,0.26320001 -0.14536135,0.26320001 -0.26320001,0.14536135 -0.26320001,0 c 0,-0.14536135 0.11783866,-0.26320001 0.26320001,-0.26320001 0.14536135,0 0.26320001,0.11783866 0.26320001,0.26320001 z"
         sodipodi:cx="0"
         sodipodi:cy="0"
         sodipodi:rx="0.26320001"
         sodipodi:ry="0.26320001"
         style="fill:#000000;stroke:none" />
    </g>
    <g
       font-size="0.5px"
       font-style="italic"
       transform="matrix(50,0,0,50,30,350)"
       id="g4154"
       style="font-size:0.5px;font-style:italic;fill:#595959;stroke:#595959;stroke-width:0.1;font-family:sans-serif">
      <path
         d="m -0.2239,1.0642 0.0442,0.0047 q -0.0166,0.0486 -0.0472,0.0721 -0.0307,0.0236 -0.0697,0.0236 -0.0423,0 -0.0685,-0.0274 -0.0263,-0.0273 -0.0263,-0.0764 0,-0.0424 0.0169,-0.0835 0.0168,-0.041 0.0482,-0.0623 0.0314,-0.0214 0.0717,-0.0214 0.0417,0 0.0661,0.0236 0.0244,0.0235 0.0244,0.0623 l -0.0434,0.003 Q -0.2078,0.9578 -0.2218,0.9439 -0.2358,0.93 -0.2588,0.93 q -0.0266,0 -0.0461,0.0168 -0.0196,0.0169 -0.0307,0.0512 -0.0111,0.0343 -0.0111,0.066 0,0.0332 0.0147,0.0498 0.0146,0.0166 0.0361,0.0166 0.0215,0 0.0411,-0.0163 0.0197,-0.0164 0.0309,-0.0499 z m 0.0227,0.1939 0,-0.0317 0.2913,0 0,0.0317 -0.2913,0 z M 0.144,1.0413 Q 0.144,0.9959 0.1576,0.949 0.1711,0.9021 0.1877,0.8741 0.2043,0.846 0.2222,0.8301 0.24,0.8142 0.2572,0.8068 0.2744,0.7994 0.2954,0.7994 q 0.041,0 0.0685,0.0305 0.0275,0.0305 0.0275,0.0881 0,0.0593 -0.0191,0.1174 Q 0.3499,1.1043 0.3098,1.1387 0.279,1.1648 0.2397,1.1648 0.1995,1.1648 0.1718,1.1332 0.144,1.1016 0.144,1.0413 z m 0.0428,0.0112 q 0,0.033 0.0109,0.0515 0.0149,0.0257 0.0442,0.0257 0.0257,0 0.0467,-0.0232 Q 0.3188,1.0738 0.3341,1.0107 0.3494,0.9475 0.3494,0.9075 0.3494,0.8689 0.3346,0.8519 0.3198,0.8348 0.2957,0.8348 0.2781,0.8348 0.2628,0.8438 0.2476,0.8528 0.2336,0.8748 0.2139,0.9058 0.1992,0.9676 0.1868,1.0203 0.1868,1.0525 z"
         id="path4156"
         inkscape:connector-curvature="0"
         style="stroke:none" />
    </g>
    <g
       font-size="0.5px"
       font-style="italic"
       transform="matrix(50,0,0,50,955,550)"
       id="g4158"
       style="font-size:0.5px;font-style:italic;stroke-width:0.02;font-family:sans-serif">
      <path
         d="m -7.0453,-6.5453 1.9089,1.9089"
         id="path4160"
         inkscape:connector-curvature="0"
         style="fill:none" />
      <path
         d="m -5.0834,-4.6894 -0.106,0.106 0.3358,0.2298 z"
         id="path4162"
         inkscape:connector-curvature="0"
         style="stroke:none" />
    </g>
    <g
       font-size="0.5px"
       font-style="italic"
       transform="matrix(50,0,0,50,955,550)"
       id="g4164"
       style="font-size:0.5px;font-style:italic;stroke-width:0.02;font-family:sans-serif">
      <path
         d="M -7.8972,-1.3972 -9.8636,-3.3636"
         id="path4166"
         inkscape:connector-curvature="0"
         style="fill:none" />
      <path
         d="m -9.9166,-3.3106 0.106,-0.106 -0.3358,-0.2298 z"
         id="path4168"
         inkscape:connector-curvature="0"
         style="stroke:none" />
    </g>
    <g
       font-size="0.5px"
       font-style="italic"
       transform="matrix(50,0,0,50,955,550)"
       id="g4170"
       style="font-size:0.5px;font-style:italic;stroke-width:0.02;font-family:sans-serif">
      <path
         d="M -4.8536,-3.6464 -6.82,-1.68"
         id="path4172"
         inkscape:connector-curvature="0"
         style="fill:none" />
      <path
         d="m -6.767,-1.627 -0.106,-0.106 -0.2298,0.3358 z"
         id="path4174"
         inkscape:connector-curvature="0"
         style="stroke:none" />
    </g>
    <g
       font-size="0.5px"
       font-style="italic"
       transform="matrix(50,0,0,50,955,550)"
       id="g4176"
       style="font-size:0.5px;font-style:italic;stroke-width:0.02;font-family:sans-serif">
      <path
         d="m -10.1464,-4.3536 1.9089,-1.9089"
         id="path4178"
         inkscape:connector-curvature="0"
         style="fill:none" />
      <path
         d="m -8.2905,-6.3155 0.106,0.106 0.2298,-0.3358 z"
         id="path4180"
         inkscape:connector-curvature="0"
         style="stroke:none" />
    </g>
    <g
       font-size="0.5px"
       font-style="italic"
       transform="matrix(50,0,0,50,955,550)"
       id="g4182"
       style="font-size:0.5px;font-style:italic;stroke-width:0.02;font-family:sans-serif">
      <path
         d="m -15.1072,-6.6072 1.9708,1.9708"
         id="path4184"
         inkscape:connector-curvature="0"
         style="fill:none" />
      <path
         d="m -13.0834,-4.6894 -0.106,0.106 0.3358,0.2298 z"
         id="path4186"
         inkscape:connector-curvature="0"
         style="stroke:none" />
    </g>
    <g
       font-size="0.5px"
       font-style="italic"
       transform="matrix(50,0,0,50,955,550)"
       id="g4188"
       style="font-size:0.5px;font-style:italic;stroke-width:0.02;font-family:sans-serif">
      <path
         d="m -15.8642,-1.3642 -1.9994,-1.9994"
         id="path4190"
         inkscape:connector-curvature="0"
         style="fill:none" />
      <path
         d="m -17.9166,-3.3106 0.106,-0.106 -0.3359,-0.2298 z"
         id="path4192"
         inkscape:connector-curvature="0"
         style="stroke:none" />
    </g>
    <g
       font-size="0.5px"
       font-style="italic"
       transform="matrix(50,0,0,50,955,550)"
       id="g4194"
       style="font-size:0.5px;font-style:italic;stroke-width:0.02;font-family:sans-serif">
      <path
         d="m -12.8536,-3.6464 -1.9993,1.9993"
         id="path4196"
         inkscape:connector-curvature="0"
         style="fill:none" />
      <path
         d="m -14.7999,-1.594 -0.1061,-0.1061 -0.2298,0.3359 z"
         id="path4198"
         inkscape:connector-curvature="0"
         style="stroke:none" />
    </g>
    <g
       font-size="0.5px"
       font-style="italic"
       transform="matrix(50,0,0,50,955,550)"
       id="g4200"
       style="font-size:0.5px;font-style:italic;stroke-width:0.02;font-family:sans-serif">
      <path
         d="m -18.1465,-4.3536 1.9709,-1.9708"
         id="path4202"
         inkscape:connector-curvature="0"
         style="fill:none" />
      <path
         d="m -16.2287,-6.3774 0.1061,0.1061 0.2298,-0.3359 z"
         id="path4204"
         inkscape:connector-curvature="0"
         style="stroke:none" />
    </g>
    <g
       font-size="0.5px"
       font-style="italic"
       transform="matrix(50,0,0,50,955,550)"
       id="g4206"
       style="font-size:0.5px;font-style:italic;stroke-width:0.02;font-family:sans-serif">
      <path
         d="m -18.4121,-4.4922 c 1.1563,-5.639 6.1475,-3.1912 10.43,-2.5699"
         id="path4208"
         inkscape:connector-curvature="0"
         style="fill:none" />
    </g>
    <g
       font-size="0.5px"
       font-style="italic"
       transform="matrix(50,0,0,50,955,550)"
       id="g4210"
       style="font-size:0.5px;font-style:italic;stroke-width:0.02;font-family:sans-serif">
      <path
         d="m -12.0713,-3.7428 4.1741,2.5045"
         id="path4212"
         inkscape:connector-curvature="0"
         style="fill:none" />
    </g>
  </g>
</svg>
