<?xml version="1.0" encoding="UTF-8" standalone="no"?>
<svg
   xmlns:dc="http://purl.org/dc/elements/1.1/"
   xmlns:cc="http://creativecommons.org/ns#"
   xmlns:rdf="http://www.w3.org/1999/02/22-rdf-syntax-ns#"
   xmlns:svg="http://www.w3.org/2000/svg"
   xmlns="http://www.w3.org/2000/svg"
   xmlns:sodipodi="http://sodipodi.sourceforge.net/DTD/sodipodi-0.dtd"
   xmlns:inkscape="http://www.inkscape.org/namespaces/inkscape"
   color-interpolation="auto"
   color-rendering="auto"
   font-size="12px"
   font-style="normal"
   font-weight="normal"
   height="424.56775"
   image-rendering="auto"
   shape-rendering="auto"
   stroke-miterlimit="10"
   text-rendering="auto"
   width="1250"
   id="svg4285"
   version="1.1"
   inkscape:version="0.48.5 r10040"
   sodipodi:docname="Step-by-step12.pdf"
   style="font-size:12px;font-style:normal;font-weight:normal;fill:#000000;fill-opacity:1;stroke:#000000;stroke-width:1;stroke-linecap:square;stroke-linejoin:miter;stroke-miterlimit:10;stroke-opacity:1;stroke-dasharray:none;stroke-dashoffset:0;font-family:Dialog">
  <metadata
     id="metadata4482">
    <rdf:RDF>
      <cc:Work
         rdf:about="">
        <dc:format>image/svg+xml</dc:format>
        <dc:type
           rdf:resource="http://purl.org/dc/dcmitype/StillImage" />
        <dc:title></dc:title>
      </cc:Work>
    </rdf:RDF>
  </metadata>
  <sodipodi:namedview
     pagecolor="#ffffff"
     bordercolor="#666666"
     borderopacity="1"
     objecttolerance="10"
     gridtolerance="10"
     guidetolerance="10"
     inkscape:pageopacity="0"
     inkscape:pageshadow="2"
     inkscape:window-width="640"
     inkscape:window-height="480"
     id="namedview4480"
     showgrid="false"
     fit-margin-top="0"
     fit-margin-left="0"
     fit-margin-right="0"
     fit-margin-bottom="0"
     inkscape:zoom="0.21815408"
     inkscape:cx="599.25"
     inkscape:cy="183.74361"
     inkscape:window-x="0"
     inkscape:window-y="0"
     inkscape:window-maximized="0"
     inkscape:current-layer="svg4285" />
  <!--Generated by the Batik Graphics2D SVG Generator-->
  <defs
     id="genericDefs" />
  <g
     id="g4288"
     transform="translate(-56.250001,-83.675858)">
    <g
       font-size="0.75px"
       transform="matrix(50,0,0,50,1131.25,125)"
       id="g4290"
       style="font-size:0.75px;fill:#0000b2;stroke:#0000b2;font-family:sans-serif">
      <path
         d="m -0.097,0.0152 0.0648,0.0084 q -0.0106,0.067 -0.0544,0.1049 -0.0438,0.038 -0.1075,0.038 -0.0798,0 -0.1283,-0.0522 -0.0486,-0.0522 -0.0486,-0.1496 0,-0.063 0.0209,-0.1103 0.0209,-0.0472 0.0635,-0.0708 0.0427,-0.0236 0.0929,-0.0236 0.0633,0 0.1036,0.032 0.0403,0.032 0.0516,0.091 l -0.064,0.0099 q -0.0092,-0.0392 -0.0324,-0.059 -0.0233,-0.0197 -0.0563,-0.0197 -0.0498,0 -0.0809,0.0357 -0.0311,0.0357 -0.0311,0.1129 0,0.0784 0.03,0.1139 0.03,0.0356 0.0784,0.0356 0.0388,0 0.0648,-0.0239 0.026,-0.0238 0.033,-0.0732 z m 0.2596,0.0557 0,-0.1473 -0.1461,0 0,-0.0615 0.1461,0 0,-0.1461 0.0623,0 0,0.1461 0.1461,0 0,0.0615 -0.1461,0 0,0.1473 -0.0623,0 z"
         id="path4292"
         inkscape:connector-curvature="0"
         style="stroke:none" />
    </g>
    <g
       font-size="0.75px"
       transform="matrix(50,0,0,50,1131.25,425)"
       id="g4294"
       style="font-size:0.75px;fill:#0000b2;stroke:#0000b2;font-family:sans-serif">
      <path
         d="m -0.0121,-2e-4 0.0648,0.0084 q -0.0106,0.0671 -0.0543,0.105 -0.0438,0.0379 -0.1075,0.0379 -0.0799,0 -0.1284,-0.0522 -0.0485,-0.0522 -0.0485,-0.1496 0,-0.063 0.0209,-0.1103 0.0208,-0.0472 0.0635,-0.0708 0.0427,-0.0236 0.0928,-0.0236 0.0634,0 0.1037,0.032 0.0403,0.0321 0.0516,0.091 l -0.0641,0.0099 q -0.0091,-0.0392 -0.0324,-0.059 -0.0232,-0.0197 -0.0562,-0.0197 -0.0498,0 -0.0809,0.0357 -0.0312,0.0357 -0.0312,0.1129 0,0.0784 0.0301,0.1139 0.03,0.0356 0.0783,0.0356 0.0389,0 0.0649,-0.0238 0.026,-0.0238 0.0329,-0.0733 z m 0.0956,-0.0187 0,-0.0662 0.2025,0 0,0.0662 -0.2025,0 z"
         id="path4296"
         inkscape:connector-curvature="0"
         style="stroke:none" />
    </g>
    <g
       font-size="0.75px"
       transform="matrix(50,0,0,50,1281.25,275)"
       id="g4298"
       style="font-size:0.75px;fill:#ffffff;stroke:#ffffff;font-family:sans-serif">
      <circle
         cx="0"
         cy="0"
         r="0.44999999"
         id="circle4300"
         d="M 0.44999999,0 C 0.44999999,0.24852813 0.24852813,0.44999999 0,0.44999999 -0.24852813,0.44999999 -0.44999999,0.24852813 -0.44999999,0 c 0,-0.24852813 0.20147186,-0.44999999 0.44999999,-0.44999999 0.24852813,0 0.44999999,0.20147186 0.44999999,0.44999999 z"
         sodipodi:cx="0"
         sodipodi:cy="0"
         sodipodi:rx="0.44999999"
         sodipodi:ry="0.44999999"
         style="stroke:none" />
      <circle
         cx="0"
         cy="0"
         r="0.44999999"
         id="circle4302"
         d="M 0.44999999,0 C 0.44999999,0.24852813 0.24852813,0.44999999 0,0.44999999 -0.24852813,0.44999999 -0.44999999,0.24852813 -0.44999999,0 c 0,-0.24852813 0.20147186,-0.44999999 0.44999999,-0.44999999 0.24852813,0 0.44999999,0.20147186 0.44999999,0.44999999 z"
         sodipodi:cx="0"
         sodipodi:cy="0"
         sodipodi:rx="0.44999999"
         sodipodi:ry="0.44999999"
         style="fill:none;stroke:#000000;stroke-width:0.1" />
    </g>
    <g
       font-size="0.5px"
       font-style="italic"
       transform="matrix(50,0,0,50,1281.25,275)"
       id="g4304"
       style="font-size:0.5px;font-style:italic;fill:#595959;stroke:#595959;stroke-width:0.1;font-family:sans-serif">
      <path
         d="m -0.2024,1.0642 0.0442,0.0047 q -0.0166,0.0486 -0.0473,0.0721 -0.0306,0.0236 -0.0697,0.0236 -0.0422,0 -0.0684,-0.0274 -0.0263,-0.0273 -0.0263,-0.0764 0,-0.0424 0.0169,-0.0835 0.0168,-0.041 0.0482,-0.0623 0.0314,-0.0214 0.0716,-0.0214 0.0418,0 0.0662,0.0236 0.0244,0.0235 0.0244,0.0623 L -0.186,0.9825 Q -0.1863,0.9578 -0.2003,0.9439 -0.2144,0.93 -0.2373,0.93 q -0.0266,0 -0.0462,0.0168 -0.0195,0.0169 -0.0306,0.0512 -0.0111,0.0343 -0.0111,0.066 0,0.0332 0.0146,0.0498 0.0147,0.0166 0.0362,0.0166 0.0215,0 0.0411,-0.0163 0.0197,-0.0164 0.0309,-0.0499 z m 0.0227,0.1939 0,-0.0317 0.2913,0 0,0.0317 -0.2913,0 z M 0.2505,1.1587 0.3071,0.8885 Q 0.2705,0.9173 0.2041,0.9346 l 0.0083,-0.04 Q 0.2454,0.8814 0.2775,0.8601 0.3096,0.8389 0.3257,0.823 0.3355,0.8133 0.3442,0.7994 l 0.0257,0 -0.075,0.3593 -0.0444,0 z"
         id="path4306"
         inkscape:connector-curvature="0"
         style="stroke:none" />
    </g>
    <g
       font-size="0.5px"
       font-style="italic"
       transform="matrix(50,0,0,50,981.25,275)"
       id="g4308"
       style="font-size:0.5px;font-style:italic;fill:#ffffff;stroke:#ffffff;stroke-width:0.1;font-family:sans-serif">
      <circle
         cx="0"
         cy="0"
         r="0.44999999"
         id="circle4310"
         d="M 0.44999999,0 C 0.44999999,0.24852813 0.24852813,0.44999999 0,0.44999999 -0.24852813,0.44999999 -0.44999999,0.24852813 -0.44999999,0 c 0,-0.24852813 0.20147186,-0.44999999 0.44999999,-0.44999999 0.24852813,0 0.44999999,0.20147186 0.44999999,0.44999999 z"
         sodipodi:cx="0"
         sodipodi:cy="0"
         sodipodi:rx="0.44999999"
         sodipodi:ry="0.44999999"
         style="stroke:none" />
      <circle
         cx="0"
         cy="0"
         r="0.44999999"
         id="circle4312"
         d="M 0.44999999,0 C 0.44999999,0.24852813 0.24852813,0.44999999 0,0.44999999 -0.24852813,0.44999999 -0.44999999,0.24852813 -0.44999999,0 c 0,-0.24852813 0.20147186,-0.44999999 0.44999999,-0.44999999 0.24852813,0 0.44999999,0.20147186 0.44999999,0.44999999 z"
         sodipodi:cx="0"
         sodipodi:cy="0"
         sodipodi:rx="0.44999999"
         sodipodi:ry="0.44999999"
         style="fill:none;stroke:#000000" />
      <circle
         cx="0"
         cy="0"
         r="0.26320001"
         id="circle4314"
         d="M 0.26320001,0 C 0.26320001,0.14536135 0.14536135,0.26320001 0,0.26320001 -0.14536135,0.26320001 -0.26320001,0.14536135 -0.26320001,0 c 0,-0.14536135 0.11783866,-0.26320001 0.26320001,-0.26320001 0.14536135,0 0.26320001,0.11783866 0.26320001,0.26320001 z"
         sodipodi:cx="0"
         sodipodi:cy="0"
         sodipodi:rx="0.26320001"
         sodipodi:ry="0.26320001"
         style="fill:#000000;stroke:none" />
      <path
         d="m -0.2239,1.0642 0.0442,0.0047 q -0.0166,0.0486 -0.0472,0.0721 -0.0307,0.0236 -0.0697,0.0236 -0.0423,0 -0.0685,-0.0274 -0.0263,-0.0273 -0.0263,-0.0764 0,-0.0424 0.0169,-0.0835 0.0168,-0.041 0.0482,-0.0623 0.0314,-0.0214 0.0717,-0.0214 0.0417,0 0.0661,0.0236 0.0244,0.0235 0.0244,0.0623 l -0.0434,0.003 Q -0.2078,0.9578 -0.2218,0.9439 -0.2358,0.93 -0.2588,0.93 q -0.0266,0 -0.0461,0.0168 -0.0196,0.0169 -0.0307,0.0512 -0.0111,0.0343 -0.0111,0.066 0,0.0332 0.0147,0.0498 0.0146,0.0166 0.0361,0.0166 0.0215,0 0.0411,-0.0163 0.0197,-0.0164 0.0309,-0.0499 z m 0.0227,0.1939 0,-0.0317 0.2913,0 0,0.0317 -0.2913,0 z M 0.144,1.0413 Q 0.144,0.9959 0.1576,0.949 0.1711,0.9021 0.1877,0.8741 0.2043,0.846 0.2222,0.8301 0.24,0.8142 0.2572,0.8068 0.2744,0.7994 0.2954,0.7994 q 0.041,0 0.0685,0.0305 0.0275,0.0305 0.0275,0.0881 0,0.0593 -0.0191,0.1174 Q 0.3499,1.1043 0.3098,1.1387 0.279,1.1648 0.2397,1.1648 0.1995,1.1648 0.1718,1.1332 0.144,1.1016 0.144,1.0413 z m 0.0428,0.0112 q 0,0.033 0.0109,0.0515 0.0149,0.0257 0.0442,0.0257 0.0257,0 0.0467,-0.0232 Q 0.3188,1.0738 0.3341,1.0107 0.3494,0.9475 0.3494,0.9075 0.3494,0.8689 0.3346,0.8519 0.3198,0.8348 0.2957,0.8348 0.2781,0.8348 0.2628,0.8438 0.2476,0.8528 0.2336,0.8748 0.2139,0.9058 0.1992,0.9676 0.1868,1.0203 0.1868,1.0525 z"
         id="path4316"
         inkscape:connector-curvature="0"
         style="fill:#595959;stroke:none" />
    </g>
    <g
       font-size="0.75px"
       transform="matrix(50,0,0,50,681.25,125)"
       id="g4318"
       style="font-size:0.75px;fill:#b20000;stroke:#b20000;stroke-width:0.1;font-family:sans-serif">
      <path
         d="m -0.321,0.191 -0.0611,0 0,-0.5369 0.0659,0 0,0.1915 q 0.0417,-0.0523 0.1065,-0.0523 0.0359,0 0.068,0.0144 0.032,0.0145 0.0527,0.0407 0.0207,0.0262 0.0324,0.0632 0.0117,0.0369 0.0117,0.0791 0,0.0999 -0.0494,0.1545 -0.0494,0.0546 -0.1186,0.0546 -0.0689,0 -0.1081,-0.0575 l 0,0.0487 z m -7e-4,-0.1974 q 0,0.0699 0.019,0.1011 0.0312,0.0509 0.0843,0.0509 0.0432,0 0.0747,-0.0376 0.0315,-0.0375 0.0315,-0.1118 0,-0.0762 -0.0303,-0.1125 -0.0302,-0.0362 -0.073,-0.0362 -0.0432,0 -0.0747,0.0375 -0.0315,0.0375 -0.0315,0.1086 z m 0.4955,0.1106 0,-0.1472 -0.1461,0 0,-0.0616 0.1461,0 0,-0.1461 0.0622,0 0,0.1461 0.1461,0 0,0.0616 -0.1461,0 0,0.1472 -0.0622,0 z"
         id="path4320"
         inkscape:connector-curvature="0"
         style="stroke:none" />
    </g>
    <g
       font-size="0.75px"
       transform="matrix(50,0,0,50,681.25,425)"
       id="g4322"
       style="font-size:0.75px;fill:#b20000;stroke:#b20000;stroke-width:0.1;font-family:sans-serif">
      <path
         d="m -0.236,0.191 -0.0612,0 0,-0.5369 0.0659,0 0,0.1915 q 0.0418,-0.0523 0.1066,-0.0523 0.0359,0 0.0679,0.0144 0.0321,0.0145 0.0528,0.0407 0.0207,0.0262 0.0324,0.0632 0.0117,0.0369 0.0117,0.0791 0,0.0999 -0.0494,0.1545 -0.0495,0.0546 -0.1187,0.0546 -0.0688,0 -0.108,-0.0575 l 0,0.0487 z m -8e-4,-0.1974 q 0,0.0699 0.0191,0.1011 0.0311,0.0509 0.0842,0.0509 0.0432,0 0.0747,-0.0376 0.0315,-0.0375 0.0315,-0.1118 0,-0.0762 -0.0302,-0.1125 -0.0302,-0.0362 -0.073,-0.0362 -0.0433,0 -0.0748,0.0375 -0.0315,0.0375 -0.0315,0.1086 z m 0.3315,0.0362 0,-0.0662 0.2025,0 0,0.0662 -0.2025,0 z"
         id="path4324"
         inkscape:connector-curvature="0"
         style="stroke:none" />
    </g>
    <g
       font-size="0.75px"
       transform="matrix(50,0,0,50,831.25,275)"
       id="g4326"
       style="font-size:0.75px;fill:#ffffff;stroke:#ffffff;stroke-width:0.1;font-family:sans-serif">
      <circle
         cx="0"
         cy="0"
         r="0.44999999"
         id="circle4328"
         d="M 0.44999999,0 C 0.44999999,0.24852813 0.24852813,0.44999999 0,0.44999999 -0.24852813,0.44999999 -0.44999999,0.24852813 -0.44999999,0 c 0,-0.24852813 0.20147186,-0.44999999 0.44999999,-0.44999999 0.24852813,0 0.44999999,0.20147186 0.44999999,0.44999999 z"
         sodipodi:cx="0"
         sodipodi:cy="0"
         sodipodi:rx="0.44999999"
         sodipodi:ry="0.44999999"
         style="stroke:none" />
      <circle
         cx="0"
         cy="0"
         r="0.44999999"
         id="circle4330"
         d="M 0.44999999,0 C 0.44999999,0.24852813 0.24852813,0.44999999 0,0.44999999 -0.24852813,0.44999999 -0.44999999,0.24852813 -0.44999999,0 c 0,-0.24852813 0.20147186,-0.44999999 0.44999999,-0.44999999 0.24852813,0 0.44999999,0.20147186 0.44999999,0.44999999 z"
         sodipodi:cx="0"
         sodipodi:cy="0"
         sodipodi:rx="0.44999999"
         sodipodi:ry="0.44999999"
         style="fill:none;stroke:#000000" />
    </g>
    <g
       font-size="0.5px"
       font-style="italic"
       transform="matrix(50,0,0,50,831.25,275)"
       id="g4332"
       style="font-size:0.5px;font-style:italic;fill:#595959;stroke:#595959;stroke-width:0.1;font-family:sans-serif">
      <path
         d="m -0.3896,1.1587 0.0747,-0.3579 0.0441,0 -0.0266,0.1279 q 0.021,-0.0192 0.0381,-0.0272 0.0171,-0.0079 0.0357,-0.0079 0.0363,0 0.0606,0.0271 0.0243,0.0271 0.0243,0.0788 0,0.0345 -0.0097,0.063 -0.0098,0.0286 -0.0242,0.048 -0.0144,0.0194 -0.0298,0.031 -0.0154,0.0116 -0.0315,0.0174 -0.0161,0.0057 -0.031,0.0057 -0.0256,0 -0.0452,-0.0136 -0.0195,-0.0135 -0.0305,-0.0413 l -0.0102,0.049 -0.0388,0 z m 0.0654,-0.1064 -3e-4,0.0083 q 0,0.0332 0.0159,0.0505 0.0159,0.0174 0.0395,0.0174 0.0233,0 0.0427,-0.0163 0.0194,-0.0162 0.0318,-0.0506 0.0125,-0.0345 0.0125,-0.0635 0,-0.0327 -0.0158,-0.0508 -0.0157,-0.0181 -0.0389,-0.0181 -0.0239,0 -0.044,0.0185 -0.02,0.0184 -0.0334,0.0567 -0.01,0.0286 -0.01,0.0479 z m 0.1643,0.2058 0,-0.0317 0.2912,0 0,0.0317 -0.2912,0 z M 0.2703,1.1587 0.3269,0.8885 Q 0.2903,0.9173 0.2239,0.9346 l 0.0083,-0.04 Q 0.2651,0.8814 0.2972,0.8601 0.3293,0.8389 0.3455,0.823 0.3552,0.8133 0.364,0.7994 l 0.0256,0 -0.0749,0.3593 -0.0444,0 z"
         id="path4334"
         inkscape:connector-curvature="0"
         style="stroke:none" />
    </g>
    <g
       font-size="0.5px"
       font-style="italic"
       transform="matrix(50,0,0,50,531.25,275)"
       id="g4336"
       style="font-size:0.5px;font-style:italic;fill:#ffffff;stroke:#ffffff;stroke-width:0.1;font-family:sans-serif">
      <circle
         cx="0"
         cy="0"
         r="0.44999999"
         id="circle4338"
         d="M 0.44999999,0 C 0.44999999,0.24852813 0.24852813,0.44999999 0,0.44999999 -0.24852813,0.44999999 -0.44999999,0.24852813 -0.44999999,0 c 0,-0.24852813 0.20147186,-0.44999999 0.44999999,-0.44999999 0.24852813,0 0.44999999,0.20147186 0.44999999,0.44999999 z"
         sodipodi:cx="0"
         sodipodi:cy="0"
         sodipodi:rx="0.44999999"
         sodipodi:ry="0.44999999"
         style="stroke:none" />
      <circle
         cx="0"
         cy="0"
         r="0.44999999"
         id="circle4340"
         d="M 0.44999999,0 C 0.44999999,0.24852813 0.24852813,0.44999999 0,0.44999999 -0.24852813,0.44999999 -0.44999999,0.24852813 -0.44999999,0 c 0,-0.24852813 0.20147186,-0.44999999 0.44999999,-0.44999999 0.24852813,0 0.44999999,0.20147186 0.44999999,0.44999999 z"
         sodipodi:cx="0"
         sodipodi:cy="0"
         sodipodi:rx="0.44999999"
         sodipodi:ry="0.44999999"
         style="fill:none;stroke:#000000" />
      <circle
         cx="0"
         cy="0"
         r="0.26320001"
         id="circle4342"
         d="M 0.26320001,0 C 0.26320001,0.14536135 0.14536135,0.26320001 0,0.26320001 -0.14536135,0.26320001 -0.26320001,0.14536135 -0.26320001,0 c 0,-0.14536135 0.11783866,-0.26320001 0.26320001,-0.26320001 0.14536135,0 0.26320001,0.11783866 0.26320001,0.26320001 z"
         sodipodi:cx="0"
         sodipodi:cy="0"
         sodipodi:rx="0.26320001"
         sodipodi:ry="0.26320001"
         style="fill:#000000;stroke:none" />
      <path
         d="m -0.4111,1.1587 0.0747,-0.3579 0.0442,0 -0.0266,0.1279 q 0.021,-0.0192 0.038,-0.0272 0.0171,-0.0079 0.0357,-0.0079 0.0364,0 0.0606,0.0271 0.0243,0.0271 0.0243,0.0788 0,0.0345 -0.0097,0.063 -0.0098,0.0286 -0.0242,0.048 -0.0144,0.0194 -0.0298,0.031 -0.0154,0.0116 -0.0315,0.0174 -0.0161,0.0057 -0.031,0.0057 -0.0256,0 -0.0452,-0.0136 -0.0195,-0.0135 -0.0305,-0.0413 l -0.0102,0.049 -0.0388,0 z m 0.0654,-0.1064 -3e-4,0.0083 q 0,0.0332 0.0159,0.0505 0.0159,0.0174 0.0396,0.0174 0.0232,0 0.0426,-0.0163 0.0194,-0.0162 0.0318,-0.0506 0.0125,-0.0345 0.0125,-0.0635 0,-0.0327 -0.0158,-0.0508 -0.0157,-0.0181 -0.0389,-0.0181 -0.0239,0 -0.0439,0.0185 -0.0201,0.0184 -0.0335,0.0567 -0.01,0.0286 -0.01,0.0479 z m 0.1643,0.2058 0,-0.0317 0.2913,0 0,0.0317 -0.2913,0 z M 0.1638,1.0413 Q 0.1638,0.9959 0.1774,0.949 0.1909,0.9021 0.2075,0.8741 0.2241,0.846 0.2419,0.8301 0.2598,0.8142 0.277,0.8068 0.2942,0.7994 0.3152,0.7994 q 0.041,0 0.0685,0.0305 0.0274,0.0305 0.0274,0.0881 0,0.0593 -0.019,0.1174 Q 0.3696,1.1043 0.3296,1.1387 0.2988,1.1648 0.2595,1.1648 0.2192,1.1648 0.1915,1.1332 0.1638,1.1016 0.1638,1.0413 z m 0.0427,0.0112 q 0,0.033 0.011,0.0515 0.0149,0.0257 0.0442,0.0257 0.0256,0 0.0466,-0.0232 Q 0.3386,1.0738 0.3539,1.0107 0.3691,0.9475 0.3691,0.9075 0.3691,0.8689 0.3544,0.8519 0.3396,0.8348 0.3154,0.8348 0.2978,0.8348 0.2826,0.8438 0.2673,0.8528 0.2534,0.8748 0.2336,0.9058 0.219,0.9676 0.2065,1.0203 0.2065,1.0525 z"
         id="path4344"
         inkscape:connector-curvature="0"
         style="fill:#595959;stroke:none" />
    </g>
    <g
       font-size="0.75px"
       transform="matrix(50,0,0,50,231.25,125)"
       id="g4346"
       style="font-size:0.75px;fill:#b20000;stroke:#b20000;stroke-width:0.1;font-family:sans-serif">
      <path
         d="m -0.117,0.1097 q -0.0366,0.0311 -0.0705,0.0439 -0.0339,0.0129 -0.0727,0.0129 -0.0641,0 -0.0985,-0.0314 -0.0344,-0.0313 -0.0344,-0.08 0,-0.0286 0.013,-0.0522 0.013,-0.0236 0.034,-0.0379 0.0211,-0.0142 0.0475,-0.0216 0.0194,-0.0051 0.0586,-0.0099 0.0798,-0.0095 0.1175,-0.0227 4e-4,-0.0135 4e-4,-0.0172 0,-0.0403 -0.0187,-0.0567 -0.0253,-0.0224 -0.0751,-0.0224 -0.0465,0 -0.0686,0.0163 -0.0222,0.0163 -0.0328,0.0577 l -0.0645,-0.0088 q 0.0088,-0.0414 0.029,-0.0668 0.0201,-0.0255 0.0582,-0.0392 0.0381,-0.0137 0.0883,-0.0137 0.0498,0 0.0809,0.0117 0.0311,0.0117 0.0457,0.0295 0.0147,0.0177 0.0206,0.0448 0.0033,0.0169 0.0033,0.0608 l 0,0.0879 q 0,0.0919 0.0042,0.1163 0.0042,0.0243 0.0166,0.0467 l -0.0688,0 Q -0.1141,0.1371 -0.117,0.1097 z m -0.0055,-0.1472 q -0.0359,0.0146 -0.1077,0.0249 -0.0406,0.0058 -0.0575,0.0132 -0.0168,0.0073 -0.026,0.0214 -0.0091,0.0141 -0.0091,0.0313 0,0.0264 0.0199,0.0439 0.02,0.0176 0.0585,0.0176 0.0381,0 0.0677,-0.0166 0.0297,-0.0167 0.0436,-0.0457 0.0106,-0.0223 0.0106,-0.0659 l 0,-0.0241 z m 0.3073,0.1084 0,-0.1473 -0.1462,0 0,-0.0615 0.1462,0 0,-0.1461 0.0622,0 0,0.1461 0.1461,0 0,0.0615 -0.1461,0 0,0.1473 -0.0622,0 z"
         id="path4348"
         inkscape:connector-curvature="0"
         style="stroke:none" />
    </g>
    <g
       font-size="0.75px"
       transform="matrix(50,0,0,50,381.25,275)"
       id="g4350"
       style="font-size:0.75px;fill:#ffffff;stroke:#ffffff;stroke-width:0.1;font-family:sans-serif">
      <circle
         cx="0"
         cy="0"
         r="0.44999999"
         id="circle4352"
         d="M 0.44999999,0 C 0.44999999,0.24852813 0.24852813,0.44999999 0,0.44999999 -0.24852813,0.44999999 -0.44999999,0.24852813 -0.44999999,0 c 0,-0.24852813 0.20147186,-0.44999999 0.44999999,-0.44999999 0.24852813,0 0.44999999,0.20147186 0.44999999,0.44999999 z"
         sodipodi:cx="0"
         sodipodi:cy="0"
         sodipodi:rx="0.44999999"
         sodipodi:ry="0.44999999"
         style="stroke:none" />
      <circle
         cx="0"
         cy="0"
         r="0.44999999"
         id="circle4354"
         d="M 0.44999999,0 C 0.44999999,0.24852813 0.24852813,0.44999999 0,0.44999999 -0.24852813,0.44999999 -0.44999999,0.24852813 -0.44999999,0 c 0,-0.24852813 0.20147186,-0.44999999 0.44999999,-0.44999999 0.24852813,0 0.44999999,0.20147186 0.44999999,0.44999999 z"
         sodipodi:cx="0"
         sodipodi:cy="0"
         sodipodi:rx="0.44999999"
         sodipodi:ry="0.44999999"
         style="fill:none;stroke:#000000" />
    </g>
    <g
       font-size="0.5px"
       font-style="italic"
       transform="matrix(50,0,0,50,381.25,275)"
       id="g4356"
       style="font-size:0.5px;font-style:italic;fill:#595959;stroke:#595959;stroke-width:0.1;font-family:sans-serif">
      <path
         d="m -0.2175,1.1265 q -0.023,0.0198 -0.0442,0.0289 -0.0213,0.0092 -0.0454,0.0092 -0.0359,0 -0.0579,-0.0211 -0.022,-0.0211 -0.022,-0.0541 0,-0.0217 0.0099,-0.0385 0.0099,-0.0167 0.0263,-0.0268 0.0163,-0.0101 0.04,-0.0145 0.0149,-0.003 0.0565,-0.0047 0.0417,-0.0017 0.0597,-0.0088 0.0051,-0.018 0.0051,-0.03 0,-0.0154 -0.0112,-0.0242 -0.0154,-0.0122 -0.0449,-0.0122 -0.0278,0 -0.0455,0.0124 -0.0177,0.0123 -0.0258,0.035 L -0.3616,0.9732 q 0.0137,-0.0386 0.0434,-0.0591 0.0296,-0.0205 0.0748,-0.0205 0.0481,0 0.0762,0.0229 0.0215,0.0171 0.0215,0.0445 0,0.0207 -0.0062,0.0481 l -0.0144,0.0644 q -0.0068,0.0308 -0.0068,0.0501 0,0.0122 0.0054,0.0351 l -0.0447,0 Q -0.2161,1.146 -0.2175,1.1265 z M -0.2012,1.0274 Q -0.2105,1.031 -0.2211,1.033 -0.2317,1.035 -0.2566,1.0372 -0.2952,1.0406 -0.311,1.0458 -0.3269,1.0511 -0.335,1.0625 -0.343,1.074 -0.343,1.0879 q 0,0.0186 0.0128,0.0305 0.0128,0.012 0.0365,0.012 0.022,0 0.0422,-0.0116 0.0203,-0.0116 0.032,-0.0323 0.0117,-0.0208 0.0183,-0.0591 z m 0.0386,0.2307 0,-0.0317 0.2913,0 0,0.0317 -0.2913,0 z M 0.2676,1.1587 0.3242,0.8885 Q 0.2876,0.9173 0.2212,0.9346 l 0.0083,-0.04 Q 0.2625,0.8814 0.2946,0.8601 0.3267,0.8389 0.3428,0.823 0.3525,0.8133 0.3613,0.7994 l 0.0257,0 -0.075,0.3593 -0.0444,0 z"
         id="path4358"
         inkscape:connector-curvature="0"
         style="stroke:none" />
    </g>
    <g
       font-size="0.75px"
       transform="matrix(50,0,0,50,231.25,425)"
       id="g4360"
       style="font-size:0.75px;fill:#b20000;stroke:#b20000;stroke-width:0.1;font-family:sans-serif">
      <path
         d="m -0.032,0.0943 q -0.0367,0.0311 -0.0705,0.044 -0.0339,0.0128 -0.0727,0.0128 -0.0641,0 -0.0985,-0.0313 -0.0345,-0.0314 -0.0345,-0.0801 0,-0.0285 0.013,-0.0522 0.013,-0.0236 0.0341,-0.0378 0.0211,-0.0143 0.0474,-0.0217 0.0194,-0.0051 0.0586,-0.0098 0.0799,-0.0096 0.1176,-0.0228 3e-4,-0.0135 3e-4,-0.0172 0,-0.0403 -0.0186,-0.0567 -0.0253,-0.0224 -0.0751,-0.0224 -0.0465,0 -0.0687,0.0163 -0.0221,0.0163 -0.0328,0.0577 l -0.0644,-0.0088 q 0.0088,-0.0414 0.0289,-0.0668 0.0202,-0.0255 0.0583,-0.0392 0.038,-0.0137 0.0882,-0.0137 0.0498,0 0.0809,0.0117 0.0312,0.0117 0.0458,0.0295 0.0147,0.0177 0.0205,0.0448 0.0033,0.0169 0.0033,0.0608 l 0,0.0879 q 0,0.0919 0.0042,0.1163 0.0042,0.0243 0.0167,0.0467 l -0.0689,0 Q -0.0291,0.1218 -0.032,0.0943 z m -0.0055,-0.1472 q -0.0359,0.0146 -0.1077,0.0249 -0.0406,0.0059 -0.0575,0.0132 -0.0168,0.0073 -0.026,0.0214 -0.0092,0.0141 -0.0092,0.0313 0,0.0264 0.02,0.044 0.02,0.0175 0.0584,0.0175 0.0381,0 0.0678,-0.0166 0.0296,-0.0167 0.0435,-0.0456 0.0107,-0.0224 0.0107,-0.0659 l 0,-0.0242 z m 0.1432,0.034 0,-0.0662 0.2025,0 0,0.0662 -0.2025,0 z"
         id="path4362"
         inkscape:connector-curvature="0"
         style="stroke:none" />
    </g>
    <g
       font-size="0.75px"
       transform="matrix(50,0,0,50,81.25,275)"
       id="g4364"
       style="font-size:0.75px;fill:#ffffff;stroke:#ffffff;stroke-width:0.1;font-family:sans-serif">
      <circle
         cx="0"
         cy="0"
         r="0.44999999"
         id="circle4366"
         d="M 0.44999999,0 C 0.44999999,0.24852813 0.24852813,0.44999999 0,0.44999999 -0.24852813,0.44999999 -0.44999999,0.24852813 -0.44999999,0 c 0,-0.24852813 0.20147186,-0.44999999 0.44999999,-0.44999999 0.24852813,0 0.44999999,0.20147186 0.44999999,0.44999999 z"
         sodipodi:cx="0"
         sodipodi:cy="0"
         sodipodi:rx="0.44999999"
         sodipodi:ry="0.44999999"
         style="stroke:none" />
      <circle
         cx="0"
         cy="0"
         r="0.44999999"
         id="circle4368"
         d="M 0.44999999,0 C 0.44999999,0.24852813 0.24852813,0.44999999 0,0.44999999 -0.24852813,0.44999999 -0.44999999,0.24852813 -0.44999999,0 c 0,-0.24852813 0.20147186,-0.44999999 0.44999999,-0.44999999 0.24852813,0 0.44999999,0.20147186 0.44999999,0.44999999 z"
         sodipodi:cx="0"
         sodipodi:cy="0"
         sodipodi:rx="0.44999999"
         sodipodi:ry="0.44999999"
         style="fill:none;stroke:#000000" />
      <circle
         cx="0"
         cy="0"
         r="0.26320001"
         id="circle4370"
         d="M 0.26320001,0 C 0.26320001,0.14536135 0.14536135,0.26320001 0,0.26320001 -0.14536135,0.26320001 -0.26320001,0.14536135 -0.26320001,0 c 0,-0.14536135 0.11783866,-0.26320001 0.26320001,-0.26320001 0.14536135,0 0.26320001,0.11783866 0.26320001,0.26320001 z"
         sodipodi:cx="0"
         sodipodi:cy="0"
         sodipodi:rx="0.26320001"
         sodipodi:ry="0.26320001"
         style="fill:#000000;stroke:none" />
    </g>
    <g
       font-size="0.5px"
       font-style="italic"
       transform="matrix(50,0,0,50,81.25,275)"
       id="g4372"
       style="font-size:0.5px;font-style:italic;fill:#595959;stroke:#595959;stroke-width:0.1;font-family:sans-serif">
      <path
         d="m -0.239,1.1265 q -0.023,0.0198 -0.0442,0.0289 -0.0212,0.0092 -0.0454,0.0092 -0.0359,0 -0.0579,-0.0211 -0.022,-0.0211 -0.022,-0.0541 0,-0.0217 0.0099,-0.0385 0.0099,-0.0167 0.0263,-0.0268 0.0163,-0.0101 0.04,-0.0145 0.0149,-0.003 0.0565,-0.0047 0.0417,-0.0017 0.0597,-0.0088 0.0052,-0.018 0.0052,-0.03 0,-0.0154 -0.0113,-0.0242 -0.0153,-0.0122 -0.0449,-0.0122 -0.0278,0 -0.0455,0.0124 -0.0177,0.0123 -0.0258,0.035 L -0.3831,0.9732 q 0.0137,-0.0386 0.0434,-0.0591 0.0296,-0.0205 0.0748,-0.0205 0.0481,0 0.0762,0.0229 0.0215,0.0171 0.0215,0.0445 0,0.0207 -0.0061,0.0481 l -0.0144,0.0644 q -0.0069,0.0308 -0.0069,0.0501 0,0.0122 0.0054,0.0351 l -0.0447,0 Q -0.2375,1.146 -0.239,1.1265 z M -0.2227,1.0274 Q -0.2319,1.031 -0.2426,1.033 -0.2532,1.035 -0.2781,1.0372 -0.3167,1.0406 -0.3325,1.0458 -0.3484,1.0511 -0.3564,1.0625 -0.3645,1.074 -0.3645,1.0879 q 0,0.0186 0.0128,0.0305 0.0128,0.012 0.0365,0.012 0.022,0 0.0422,-0.0116 0.0203,-0.0116 0.032,-0.0323 0.0118,-0.0208 0.0183,-0.0591 z m 0.0386,0.2307 0,-0.0317 0.2913,0 0,0.0317 -0.2913,0 z M 0.1611,1.0413 Q 0.1611,0.9959 0.1747,0.949 0.1882,0.9021 0.2048,0.8741 0.2214,0.846 0.2393,0.8301 0.2571,0.8142 0.2743,0.8068 0.2915,0.7994 0.3125,0.7994 q 0.041,0 0.0685,0.0305 0.0275,0.0305 0.0275,0.0881 0,0.0593 -0.0191,0.1174 Q 0.367,1.1043 0.3269,1.1387 0.2961,1.1648 0.2568,1.1648 0.2166,1.1648 0.1888,1.1332 0.1611,1.1016 0.1611,1.0413 z m 0.0428,0.0112 q 0,0.033 0.0109,0.0515 0.0149,0.0257 0.0442,0.0257 0.0257,0 0.0467,-0.0232 Q 0.3359,1.0738 0.3512,1.0107 0.3665,0.9475 0.3665,0.9075 0.3665,0.8689 0.3517,0.8519 0.3369,0.8348 0.3127,0.8348 0.2952,0.8348 0.2799,0.8438 0.2647,0.8528 0.2507,0.8748 0.231,0.9058 0.2163,0.9676 0.2039,1.0203 0.2039,1.0525 z"
         id="path4374"
         inkscape:connector-curvature="0"
         style="stroke:none" />
    </g>
    <g
       font-size="0.5px"
       font-style="italic"
       transform="matrix(50,0,0,50,1131.25,575)"
       id="g4376"
       style="font-size:0.5px;font-style:italic;stroke-width:0.02;font-family:sans-serif">
      <path
         d="m 0.3928,-8.6072 1.9708,1.9708"
         id="path4378"
         inkscape:connector-curvature="0"
         style="fill:none" />
      <path
         d="m 2.4166,-6.6894 -0.106,0.106 0.3358,0.2298 z"
         id="path4380"
         inkscape:connector-curvature="0"
         style="stroke:none" />
    </g>
    <g
       font-size="0.5px"
       font-style="italic"
       transform="matrix(50,0,0,50,1131.25,575)"
       id="g4382"
       style="font-size:0.5px;font-style:italic;stroke-width:0.02;font-family:sans-serif">
      <path
         d="M 2.6464,-5.6464 0.6471,-3.6471"
         id="path4384"
         inkscape:connector-curvature="0"
         style="fill:none" />
      <path
         d="M 0.7001,-3.594 0.594,-3.7001 0.3642,-3.3642 z"
         id="path4386"
         inkscape:connector-curvature="0"
         style="stroke:none" />
    </g>
    <g
       font-size="0.5px"
       font-style="italic"
       transform="matrix(50,0,0,50,1131.25,575)"
       id="g4388"
       style="font-size:0.5px;font-style:italic;stroke-width:0.02;font-family:sans-serif">
      <path
         d="M -0.3642,-3.3642 -2.3636,-5.3636"
         id="path4390"
         inkscape:connector-curvature="0"
         style="fill:none" />
      <path
         d="m -2.4166,-5.3106 0.106,-0.106 -0.3358,-0.2298 z"
         id="path4392"
         inkscape:connector-curvature="0"
         style="stroke:none" />
    </g>
    <g
       font-size="0.5px"
       font-style="italic"
       transform="matrix(50,0,0,50,1131.25,575)"
       id="g4394"
       style="font-size:0.5px;font-style:italic;stroke-width:0.02;font-family:sans-serif">
      <path
         d="m -2.6464,-6.3536 1.9708,-1.9708"
         id="path4396"
         inkscape:connector-curvature="0"
         style="fill:none" />
      <path
         d="m -0.7287,-8.3774 0.1061,0.1061 0.2298,-0.3359 z"
         id="path4398"
         inkscape:connector-curvature="0"
         style="stroke:none" />
    </g>
    <g
       font-size="0.5px"
       font-style="italic"
       transform="matrix(50,0,0,50,1131.25,575)"
       id="g4400"
       style="font-size:0.5px;font-style:italic;stroke-width:0.02;font-family:sans-serif">
      <path
         d="m -8.5453,-8.5453 1.9089,1.9089"
         id="path4402"
         inkscape:connector-curvature="0"
         style="fill:none" />
      <path
         d="m -6.5834,-6.6894 -0.106,0.106 0.3358,0.2298 z"
         id="path4404"
         inkscape:connector-curvature="0"
         style="stroke:none" />
    </g>
    <g
       font-size="0.5px"
       font-style="italic"
       transform="matrix(50,0,0,50,1131.25,575)"
       id="g4406"
       style="font-size:0.5px;font-style:italic;stroke-width:0.02;font-family:sans-serif">
      <path
         d="M -6.3536,-5.6464 -8.32,-3.68"
         id="path4408"
         inkscape:connector-curvature="0"
         style="fill:none" />
      <path
         d="m -8.267,-3.627 -0.106,-0.106 -0.2298,0.3358 z"
         id="path4410"
         inkscape:connector-curvature="0"
         style="stroke:none" />
    </g>
    <g
       font-size="0.5px"
       font-style="italic"
       transform="matrix(50,0,0,50,1131.25,575)"
       id="g4412"
       style="font-size:0.5px;font-style:italic;stroke-width:0.02;font-family:sans-serif">
      <path
         d="m -9.3972,-3.3972 -1.9664,-1.9664"
         id="path4414"
         inkscape:connector-curvature="0"
         style="fill:none" />
      <path
         d="m -11.4166,-5.3106 0.106,-0.106 -0.3358,-0.2298 z"
         id="path4416"
         inkscape:connector-curvature="0"
         style="stroke:none" />
    </g>
    <g
       font-size="0.5px"
       font-style="italic"
       transform="matrix(50,0,0,50,1131.25,575)"
       id="g4418"
       style="font-size:0.5px;font-style:italic;stroke-width:0.02;font-family:sans-serif">
      <path
         d="m -11.6464,-6.3536 1.9089,-1.9089"
         id="path4420"
         inkscape:connector-curvature="0"
         style="fill:none" />
      <path
         d="m -9.7905,-8.3155 0.106,0.106 0.2298,-0.3358 z"
         id="path4422"
         inkscape:connector-curvature="0"
         style="stroke:none" />
    </g>
    <g
       font-size="0.5px"
       font-style="italic"
       transform="matrix(50,0,0,50,1131.25,575)"
       id="g4424"
       style="font-size:0.5px;font-style:italic;stroke-width:0.02;font-family:sans-serif">
      <path
         d="m -17.6072,-8.6072 1.9708,1.9708"
         id="path4426"
         inkscape:connector-curvature="0"
         style="fill:none" />
      <path
         d="m -15.5834,-6.6894 -0.106,0.106 0.3358,0.2298 z"
         id="path4428"
         inkscape:connector-curvature="0"
         style="stroke:none" />
    </g>
    <g
       font-size="0.5px"
       font-style="italic"
       transform="matrix(50,0,0,50,1131.25,575)"
       id="g4430"
       style="font-size:0.5px;font-style:italic;stroke-width:0.02;font-family:sans-serif">
      <path
         d="m -18.3642,-3.3642 -1.9994,-1.9994"
         id="path4432"
         inkscape:connector-curvature="0"
         style="fill:none" />
      <path
         d="m -20.4166,-5.3106 0.106,-0.106 -0.3359,-0.2298 z"
         id="path4434"
         inkscape:connector-curvature="0"
         style="stroke:none" />
    </g>
    <g
       font-size="0.5px"
       font-style="italic"
       transform="matrix(50,0,0,50,1131.25,575)"
       id="g4436"
       style="font-size:0.5px;font-style:italic;stroke-width:0.02;font-family:sans-serif">
      <path
         d="m -15.3536,-5.6464 -1.9993,1.9993"
         id="path4438"
         inkscape:connector-curvature="0"
         style="fill:none" />
      <path
         d="m -17.2999,-3.594 -0.1061,-0.1061 -0.2298,0.3359 z"
         id="path4440"
         inkscape:connector-curvature="0"
         style="stroke:none" />
    </g>
    <g
       font-size="0.5px"
       font-style="italic"
       transform="matrix(50,0,0,50,1131.25,575)"
       id="g4442"
       style="font-size:0.5px;font-style:italic;stroke-width:0.02;font-family:sans-serif">
      <path
         d="m -20.6465,-6.3536 1.9709,-1.9708"
         id="path4444"
         inkscape:connector-curvature="0"
         style="fill:none" />
      <path
         d="m -18.7287,-8.3774 0.1061,0.1061 0.2298,-0.3359 z"
         id="path4446"
         inkscape:connector-curvature="0"
         style="stroke:none" />
    </g>
    <g
       font-size="0.5px"
       font-style="italic"
       transform="matrix(50,0,0,50,1131.25,575)"
       id="g4448"
       style="font-size:0.5px;font-style:italic;stroke-width:0.02;font-family:sans-serif">
      <path
         d="m -14.6422,-6.3492 c 4.7043,-4.4784 8.5717,-3.6755 14.1712,-2.7299"
         id="path4450"
         inkscape:connector-curvature="0"
         style="fill:none" />
    </g>
    <g
       font-size="0.5px"
       font-style="italic"
       transform="matrix(50,0,0,50,1131.25,575)"
       id="g4452"
       style="font-size:0.5px;font-style:italic;stroke-width:0.02;font-family:sans-serif">
      <path
         d="m -5.7561,-6.4365 c 1.0029,-1.6105 2.7646,-2.4622 5.2851,-2.555"
         id="path4454"
         inkscape:connector-curvature="0"
         style="fill:none" />
    </g>
    <g
       font-size="0.5px"
       font-style="italic"
       transform="matrix(50,0,0,50,1131.25,575)"
       id="g4456"
       style="font-size:0.5px;font-style:italic;stroke-width:0.02;font-family:sans-serif">
      <path
         d="M 2.9764,-5.5006 C 2.3707,0.6958 -9.7679,-2.8717 -17.5918,-2.9967"
         id="path4458"
         inkscape:connector-curvature="0"
         style="fill:none" />
    </g>
    <g
       font-size="0.5px"
       font-style="italic"
       transform="matrix(50,0,0,50,1131.25,575)"
       id="g4460"
       style="font-size:0.5px;font-style:italic;stroke-width:0.02;font-family:sans-serif">
      <path
         d="M 2.8301,-5.5298 C 0.785,-0.3073 -3.8733,-2.8515 -8.6028,-2.9939"
         id="path4462"
         inkscape:connector-curvature="0"
         style="fill:none" />
    </g>
    <g
       font-size="0.5px"
       font-style="italic"
       transform="matrix(50,0,0,50,1131.25,575)"
       id="g4464"
       style="font-size:0.5px;font-style:italic;stroke-width:0.02;font-family:sans-serif">
      <path
         d="m -21.0594,-5.5035 c -0.0199,4.3689 13.7739,5.3623 20.6734,2.6616"
         id="path4466"
         inkscape:connector-curvature="0"
         style="fill:none" />
    </g>
    <g
       font-size="0.5px"
       font-style="italic"
       transform="matrix(50,0,0,50,1131.25,575)"
       id="g4468"
       style="font-size:0.5px;font-style:italic;stroke-width:0.02;font-family:sans-serif">
      <path
         d="m -11.5519,-5.7782 c 3.6787,1.8021 6.5798,2.7275 11.1659,2.7762"
         id="path4470"
         inkscape:connector-curvature="0"
         style="fill:none" />
    </g>
    <g
       font-size="0.5px"
       font-style="italic"
       transform="matrix(50,0,0,50,1131.25,575)"
       id="g4472"
       style="font-size:0.5px;font-style:italic;stroke-width:0.02;font-family:sans-serif">
      <path
         d="m -3.2693,-6.4213 c -2.9929,-4.3929 -8.5786,-3.6 -14.2376,-2.6608"
         id="path4474"
         inkscape:connector-curvature="0"
         style="fill:none" />
    </g>
    <g
       font-size="0.5px"
       font-style="italic"
       transform="matrix(50,0,0,50,1131.25,575)"
       id="g4476"
       style="font-size:0.5px;font-style:italic;stroke-width:0.02;font-family:sans-serif">
      <path
         d="m -3.3589,-6.3481 c -1.7196,-1.6168 -3.4393,-2.4943 -5.159,-2.6325"
         id="path4478"
         inkscape:connector-curvature="0"
         style="fill:none" />
    </g>
  </g>
</svg>
