<?xml version="1.0" encoding="UTF-8" standalone="no"?>
<svg
   xmlns:dc="http://purl.org/dc/elements/1.1/"
   xmlns:cc="http://creativecommons.org/ns#"
   xmlns:rdf="http://www.w3.org/1999/02/22-rdf-syntax-ns#"
   xmlns:svg="http://www.w3.org/2000/svg"
   xmlns="http://www.w3.org/2000/svg"
   xmlns:sodipodi="http://sodipodi.sourceforge.net/DTD/sodipodi-0.dtd"
   xmlns:inkscape="http://www.inkscape.org/namespaces/inkscape"
   font-size="12"
   font-style="normal"
   font-weight="normal"
   height="574.27856"
   stroke-miterlimit="10"
   width="1413.7284"
   id="svg3122"
   version="1.1"
   inkscape:version="0.91 r13725"
   sodipodi:docname="stg-breakdown.svg"
   style="font-style:normal;font-weight:normal;font-size:12px;font-family:Dialog;color-interpolation:auto;fill:#000000;fill-opacity:1;stroke:#000000;stroke-width:1;stroke-linecap:square;stroke-linejoin:miter;stroke-miterlimit:10;stroke-dasharray:none;stroke-dashoffset:0;stroke-opacity:1;color-rendering:auto;image-rendering:auto;shape-rendering:auto;text-rendering:auto">
  <metadata
     id="metadata3257">
    <rdf:RDF>
      <cc:Work
         rdf:about="">
        <dc:format>image/svg+xml</dc:format>
        <dc:type
           rdf:resource="http://purl.org/dc/dcmitype/StillImage" />
        <dc:title></dc:title>
      </cc:Work>
    </rdf:RDF>
  </metadata>
  <sodipodi:namedview
     pagecolor="#ffffff"
     bordercolor="#666666"
     borderopacity="1"
     objecttolerance="10"
     gridtolerance="10"
     guidetolerance="10"
     inkscape:pageopacity="0"
     inkscape:pageshadow="2"
     inkscape:window-width="1920"
     inkscape:window-height="1058"
     id="namedview3255"
     showgrid="false"
     inkscape:zoom="0.92943088"
     inkscape:cx="659.74899"
     inkscape:cy="184.55107"
     inkscape:window-x="-8"
     inkscape:window-y="-8"
     inkscape:window-maximized="1"
     inkscape:current-layer="svg3122"
     fit-margin-top="0"
     fit-margin-left="0"
     fit-margin-right="0"
     fit-margin-bottom="0" />
  <!--Generated by the Batik Graphics2D SVG Generator-->
  <defs
     id="genericDefs" />
  <rect
     style="fill:#e6e6e6;fill-opacity:1;stroke:none;stroke-width:6.19999981;stroke-miterlimit:10;stroke-dasharray:12.4, 37.2;stroke-dashoffset:0;stroke-opacity:1"
     id="rect3259-1"
     width="111.89643"
     height="286.19666"
     x="1266.2708"
     y="149.20364" />
  <rect
     style="fill:#e6e6e6;fill-opacity:1;stroke:none;stroke-width:6.19999981;stroke-miterlimit:10;stroke-dasharray:12.4, 37.2;stroke-dashoffset:0;stroke-opacity:1"
     id="rect3259"
     width="111.89643"
     height="286.19666"
     x="19.270994"
     y="149.20361" />
  <rect
     style="fill:#e6e6e6;fill-opacity:1;stroke:none;stroke-width:3.05747008;stroke-miterlimit:10;stroke-dasharray:6.11494049, 18.34482149;stroke-dashoffset:0;stroke-opacity:1"
     id="rect3259-1-4"
     width="115.03896"
     height="67.698174"
     x="260.85931"
     y="151.9361" />
  <rect
     style="fill:#e6e6e6;fill-opacity:1;stroke:none;stroke-width:3.05747008;stroke-miterlimit:10;stroke-dasharray:6.11494049, 18.34482149;stroke-dashoffset:0;stroke-opacity:1"
     id="rect3259-1-4-82"
     width="115.03896"
     height="67.698174"
     x="527.68927"
     y="346.37521" />
  <rect
     style="fill:#e6e6e6;fill-opacity:1;stroke:none;stroke-width:3.05747008;stroke-miterlimit:10;stroke-dasharray:6.11494049, 18.34482149;stroke-dashoffset:0;stroke-opacity:1"
     id="rect3259-1-4-8"
     width="115.03896"
     height="67.698174"
     x="757.93768"
     y="153.01201" />
  <rect
     style="fill:#e6e6e6;fill-opacity:1;stroke:none;stroke-width:3.05747008;stroke-miterlimit:10;stroke-dasharray:6.11494049, 18.34482149;stroke-dashoffset:0;stroke-opacity:1"
     id="rect3259-1-4-4"
     width="115.03896"
     height="67.698174"
     x="1018.3121"
     y="348.37518" />
  <g
     id="g3125"
     transform="translate(30.030268,149.10954)">
    <g
       font-size="0.75"
       transform="matrix(50,0,0,50,545.1106,234.2679)"
       id="g3127"
       style="font-size:0.75px;fill:#0000b2;stroke:#0000b2">
      <path
         d="m -0.4303,0.0093 q 0,-0.0732 -0.0302,-0.1135 -0.0302,-0.0403 -0.0848,-0.0403 -0.0542,0 -0.0844,0.0403 -0.0302,0.0403 -0.0302,0.1135 0,0.0729 0.0302,0.1132 0.0302,0.0403 0.0844,0.0403 0.0546,0 0.0848,-0.0403 0.0302,-0.0403 0.0302,-0.1132 z m 0.0674,0.159 q 0,0.1047 -0.0465,0.1558 -0.0465,0.0511 -0.1425,0.0511 -0.0355,0 -0.067,-0.0053 Q -0.6504,0.3646 -0.68,0.3536 l 0,-0.0656 q 0.0296,0.0161 0.0585,0.0238 0.029,0.0077 0.059,0.0077 0.0663,0 0.0992,-0.0346 0.033,-0.0346 0.033,-0.1045 l 0,-0.0334 q -0.0209,0.0363 -0.0535,0.0542 -0.0326,0.018 -0.078,0.018 -0.0754,0 -0.1215,-0.0575 -0.0462,-0.0575 -0.0462,-0.1524 0,-0.0952 0.0462,-0.1527 0.0461,-0.0575 0.1215,-0.0575 0.0454,0 0.078,0.018 0.0326,0.0179 0.0535,0.0542 l 0,-0.0623 0.0674,0 0,0.3593 z m 0.4797,-0.1967 0,0.2476 -0.0674,0 0,-0.2454 q 0,-0.0582 -0.0227,-0.0871 -0.0227,-0.029 -0.0681,-0.029 -0.0545,0 -0.086,0.0348 -0.0315,0.0348 -0.0315,0.0949 l 0,0.2318 -0.0678,0 0,-0.4102 0.0678,0 0,0.0637 q 0.0241,-0.0369 0.0569,-0.0553 0.0328,-0.0183 0.0756,-0.0183 0.0707,0 0.107,0.0438 0.0362,0.0438 0.0362,0.1287 z m 0.4087,-0.2226 0,0.2039 0.204,0 0,0.0623 -0.204,0 0,0.204 -0.0615,0 0,-0.204 -0.204,0 0,-0.0623 0.204,0 0,-0.2039 0.0615,0 z"
         id="path3129"
         inkscape:connector-curvature="0"
         style="stroke:none" />
    </g>
    <g
       font-size="0.75"
       transform="matrix(50,0,0,50,295.1106,234.2679)"
       id="g3131"
       style="font-size:0.75px;fill:#b20000;stroke:#b20000">
      <path
         d="m -1.2709,0.0515 q 0,-0.0732 -0.0302,-0.1135 -0.0303,-0.0403 -0.0848,-0.0403 -0.0542,0 -0.0844,0.0403 -0.0302,0.0403 -0.0302,0.1135 0,0.0729 0.0302,0.1132 0.0302,0.0403 0.0844,0.0403 0.0545,0 0.0848,-0.0403 0.0302,-0.0403 0.0302,-0.1132 z m 0.0673,0.1589 q 0,0.1048 -0.0465,0.1559 -0.0465,0.051 -0.1424,0.051 -0.0355,0 -0.067,-0.0053 Q -1.491,0.4067 -1.5207,0.3958 l 0,-0.0656 q 0.0297,0.0161 0.0586,0.0238 0.0289,0.0077 0.059,0.0077 0.0662,0 0.0992,-0.0346 0.033,-0.0346 0.033,-0.1046 l 0,-0.0333 q -0.0209,0.0363 -0.0535,0.0542 -0.0326,0.0179 -0.078,0.0179 -0.0754,0 -0.1216,-0.0574 -0.0461,-0.0575 -0.0461,-0.1524 0,-0.0952 0.0461,-0.1527 0.0462,-0.0575 0.1216,-0.0575 0.0454,0 0.078,0.0179 0.0326,0.018 0.0535,0.0542 l 0,-0.0622 0.0673,0 0,0.3592 z m 0.4798,-0.1966 0,0.2475 -0.0674,0 0,-0.2453 q 0,-0.0582 -0.0227,-0.0872 -0.0227,-0.0289 -0.0681,-0.0289 -0.0546,0 -0.0861,0.0348 -0.0315,0.0348 -0.0315,0.0948 l 0,0.2318 -0.0677,0 0,-0.4101 0.0677,0 0,0.0637 q 0.0242,-0.037 0.057,-0.0553 0.0328,-0.0183 0.0756,-0.0183 0.0707,0 0.1069,0.0438 0.0363,0.0437 0.0363,0.1287 z m 0.446,0.3721 0,0.0523 -0.3896,0 0,-0.0523 0.3896,0 z M -0.028,0.0552 q -0.0817,0 -0.1132,0.0186 -0.0315,0.0187 -0.0315,0.0638 0,0.0359 0.0237,0.0569 0.0236,0.0211 0.0642,0.0211 0.0561,0 0.0899,-0.0398 Q 0.039,0.1361 0.039,0.0702 l 0,-0.015 -0.067,0 z m 0.1344,-0.0279 0,0.234 -0.0674,0 0,-0.0622 Q 0.0159,0.2364 -0.0185,0.2542 -0.0529,0.272 -0.1027,0.272 -0.1657,0.272 -0.2029,0.2366 -0.24,0.2013 -0.24,0.142 q 0,-0.0692 0.0463,-0.1044 0.0463,-0.0352 0.1382,-0.0352 l 0.0945,0 0,-0.0066 q 0,-0.0465 -0.0306,-0.0719 -0.0306,-0.0255 -0.0859,-0.0255 -0.0351,0 -0.0684,0.0085 -0.0334,0.0084 -0.0641,0.0252 l 0,-0.0622 q 0.037,-0.0143 0.0718,-0.0215 0.0347,-0.0071 0.0677,-0.0071 0.089,0 0.1329,0.0461 0.044,0.0462 0.044,0.1399 z m 0.4339,-0.1604 0,0.063 Q 0.5118,-0.0858 0.483,-0.0937 0.4543,-0.1016 0.425,-0.1016 q -0.0656,0 -0.1018,0.0416 -0.0363,0.0416 -0.0363,0.1166 0,0.0751 0.0363,0.1167 0.0362,0.0415 0.1018,0.0415 0.0293,0 0.058,-0.0078 0.0288,-0.0079 0.0573,-0.0237 l 0,0.0623 Q 0.5121,0.2588 0.4819,0.2654 0.4517,0.272 0.4177,0.272 0.325,0.272 0.2704,0.2137 0.2159,0.1555 0.2159,0.0566 q 0,-0.1003 0.0551,-0.1578 0.0551,-0.0575 0.1511,-0.0575 0.0311,0 0.0608,0.0064 0.0296,0.0064 0.0574,0.0192 z m 0.1147,-0.1754 0.0677,0 0,0.3366 0.2011,-0.1769 0.086,0 -0.2175,0.1919 0.2267,0.2182 -0.0879,0 -0.2084,-0.2003 0,0.2003 -0.0677,0 0,-0.5698 z m 0.7111,0.0996 0,0.204 0.204,0 0,0.0623 -0.204,0 0,0.2039 -0.0615,0 0,-0.2039 -0.204,0 0,-0.0623 0.204,0 0,-0.204 0.0615,0 z"
         id="path3133"
         inkscape:connector-curvature="0"
         style="stroke:none" />
    </g>
    <g
       font-size="0.75"
       transform="matrix(50,0,0,50,45.1106,234.2679)"
       id="g3135"
       style="font-size:0.75px;fill:#b20000;stroke:#b20000">
      <path
         d="m -0.3437,-0.2122 q -0.0542,0 -0.0857,0.0423 -0.0315,0.0423 -0.0315,0.1159 0,0.0736 0.0313,0.1159 0.0313,0.0423 0.0859,0.0423 0.0538,0 0.0853,-0.0425 0.0315,-0.0424 0.0315,-0.1157 0,-0.0729 -0.0315,-0.1155 -0.0315,-0.0427 -0.0853,-0.0427 z m 0,-0.0571 q 0.0879,0 0.1381,0.0571 0.0501,0.0572 0.0501,0.1582 0,0.1007 -0.0501,0.158 -0.0502,0.0574 -0.1381,0.0574 -0.0882,0 -0.1382,-0.0574 -0.05,-0.0573 -0.05,-0.158 0,-0.101 0.05,-0.1582 0.05,-0.0571 0.1382,-0.0571 z m 0.5951,0.0256 0,0.063 Q 0.2228,-0.1964 0.1941,-0.2043 0.1653,-0.2122 0.136,-0.2122 q -0.0655,0 -0.1018,0.0416 -0.0362,0.0416 -0.0362,0.1166 0,0.0751 0.0362,0.1167 0.0363,0.0415 0.1018,0.0415 0.0293,0 0.0581,-0.0078 0.0287,-0.0079 0.0573,-0.0237 l 0,0.0623 Q 0.2232,0.1482 0.193,0.1548 0.1628,0.1614 0.1287,0.1614 q -0.0926,0 -0.1472,-0.0583 -0.0546,-0.0582 -0.0546,-0.1571 0,-0.1003 0.0552,-0.1578 0.0551,-0.0575 0.151,-0.0575 0.0311,0 0.0608,0.0064 0.0297,0.0064 0.0575,0.0192 z m 0.0831,0.159 0.1974,0 0,0.06 -0.1974,0 0,-0.06 z"
         id="path3137"
         inkscape:connector-curvature="0"
         style="stroke:none" />
    </g>
    <g
       font-size="0.75"
       transform="matrix(50,0,0,50,1295.1106,234.2679)"
       id="g3139"
       style="font-size:0.75px;fill:#b20000;stroke:#b20000">
      <path
         d="m -0.5012,-0.1946 q -0.0542,0 -0.0857,0.0423 -0.0315,0.0423 -0.0315,0.1159 0,0.0736 0.0314,0.1159 0.0313,0.0423 0.0858,0.0423 0.0539,0 0.0854,-0.0425 0.0315,-0.0425 0.0315,-0.1157 0,-0.0729 -0.0315,-0.1156 -0.0315,-0.0426 -0.0854,-0.0426 z m 0,-0.0572 q 0.0879,0 0.1381,0.0572 0.0502,0.0571 0.0502,0.1582 0,0.1007 -0.0502,0.158 -0.0502,0.0573 -0.1381,0.0573 -0.0882,0 -0.1382,-0.0573 -0.05,-0.0573 -0.05,-0.158 0,-0.1011 0.05,-0.1582 0.05,-0.0572 0.1382,-0.0572 z m 0.5951,0.0257 0,0.063 q -0.0285,-0.0158 -0.0573,-0.0237 -0.0287,-0.0078 -0.058,-0.0078 -0.0656,0 -0.1018,0.0415 -0.0363,0.0416 -0.0363,0.1167 0,0.0751 0.0363,0.1166 0.0362,0.0416 0.1018,0.0416 0.0293,0 0.058,-0.0079 Q 0.0654,0.106 0.0939,0.0903 l 0,0.0622 Q 0.0657,0.1657 0.0355,0.1723 0.0053,0.1789 -0.0287,0.1789 q -0.0927,0 -0.1473,-0.0582 -0.0545,-0.0582 -0.0545,-0.1571 0,-0.1004 0.0551,-0.1579 0.0551,-0.0575 0.1511,-0.0575 0.0311,0 0.0607,0.0065 0.0297,0.0064 0.0575,0.0192 z m 0.3915,-0.0758 0,0.204 0.204,0 0,0.0622 -0.204,0 0,0.204 -0.0615,0 0,-0.204 -0.204,0 0,-0.0622 0.204,0 0,-0.204 0.0615,0 z"
         id="path3141"
         inkscape:connector-curvature="0"
         style="stroke:none" />
    </g>
    <g
       font-size="0.75"
       transform="matrix(50,0,0,50,1045.1106,234.2679)"
       id="g3143"
       style="font-size:0.75px;fill:#0000b2;stroke:#0000b2">
      <path
         d="m -0.2732,-0.0082 q 0,-0.0733 -0.0302,-0.1135 -0.0302,-0.0403 -0.0848,-0.0403 -0.0542,0 -0.0844,0.0403 -0.0302,0.0402 -0.0302,0.1135 0,0.0728 0.0302,0.1131 0.0302,0.0403 0.0844,0.0403 0.0546,0 0.0848,-0.0403 0.0302,-0.0403 0.0302,-0.1131 z m 0.0674,0.1589 q 0,0.1047 -0.0465,0.1558 -0.0465,0.0511 -0.1425,0.0511 -0.0355,0 -0.067,-0.0053 Q -0.4933,0.347 -0.5229,0.336 l 0,-0.0655 q 0.0296,0.0161 0.0585,0.0238 0.029,0.0077 0.059,0.0077 0.0663,0 0.0992,-0.0346 0.033,-0.0347 0.033,-0.1046 l 0,-0.0333 q -0.0209,0.0362 -0.0535,0.0542 -0.0326,0.0179 -0.078,0.0179 -0.0754,0 -0.1215,-0.0575 -0.0462,-0.0575 -0.0462,-0.1523 0,-0.0952 0.0462,-0.1527 0.0461,-0.0575 0.1215,-0.0575 0.0454,0 0.078,0.0179 0.0326,0.018 0.0535,0.0542 l 0,-0.0622 0.0674,0 0,0.3592 z m 0.204,-0.0106 0,0.2175 -0.0678,0 0,-0.5661 0.0678,0 0,0.0622 q 0.0212,-0.0366 0.0536,-0.0544 0.0324,-0.0177 0.0775,-0.0177 0.0747,0 0.1214,0.0593 0.0467,0.0593 0.0467,0.156 0,0.0967 -0.0467,0.156 Q 0.204,0.2122 0.1293,0.2122 0.0842,0.2122 0.0518,0.1945 0.0194,0.1767 -0.0018,0.1401 Z m 0.2292,-0.1432 q 0,-0.0743 -0.0306,-0.1166 -0.0305,-0.0423 -0.084,-0.0423 -0.0535,0 -0.0841,0.0423 -0.0305,0.0423 -0.0305,0.1166 0,0.0743 0.0305,0.1166 0.0306,0.0423 0.0841,0.0423 0.0535,0 0.084,-0.0423 0.0306,-0.0423 0.0306,-0.1166 z m 0.1476,-0.0308 0.1974,0 0,0.0601 -0.1974,0 0,-0.0601 z"
         id="path3145"
         inkscape:connector-curvature="0"
         style="stroke:none" />
    </g>
    <g
       font-size="0.75"
       transform="matrix(50,0,0,50,295.1106,34.2679)"
       id="g3147"
       style="font-size:0.75px;fill:#0000b2;stroke:#0000b2">
      <path
         d="m -0.2728,-0.0082 q 0,-0.0733 -0.0302,-0.1135 -0.0302,-0.0403 -0.0848,-0.0403 -0.0542,0 -0.0844,0.0403 -0.0302,0.0402 -0.0302,0.1135 0,0.0728 0.0302,0.1131 0.0302,0.0403 0.0844,0.0403 0.0546,0 0.0848,-0.0403 0.0302,-0.0403 0.0302,-0.1131 z m 0.0673,0.1589 q 0,0.1047 -0.0465,0.1558 -0.0465,0.0511 -0.1424,0.0511 -0.0355,0 -0.067,-0.0053 Q -0.4929,0.347 -0.5226,0.336 l 0,-0.0655 q 0.0297,0.0161 0.0586,0.0238 0.0289,0.0077 0.059,0.0077 0.0663,0 0.0992,-0.0346 0.033,-0.0347 0.033,-0.1046 l 0,-0.0333 q -0.0209,0.0362 -0.0535,0.0542 -0.0326,0.0179 -0.078,0.0179 -0.0754,0 -0.1216,-0.0575 -0.0461,-0.0575 -0.0461,-0.1523 0,-0.0952 0.0461,-0.1527 0.0462,-0.0575 0.1216,-0.0575 0.0454,0 0.078,0.0179 0.0326,0.018 0.0535,0.0542 l 0,-0.0622 0.0673,0 0,0.3592 z m 0.4798,-0.1966 0,0.2475 -0.0674,0 0,-0.2453 q 0,-0.0583 -0.0227,-0.0872 -0.0227,-0.0289 -0.0681,-0.0289 -0.0546,0 -0.0861,0.0348 -0.0315,0.0347 -0.0315,0.0948 l 0,0.2318 -0.0677,0 0,-0.4101 0.0677,0 0,0.0637 q 0.0242,-0.037 0.057,-0.0553 0.0328,-0.0183 0.0756,-0.0183 0.0707,0 0.1069,0.0437 0.0363,0.0438 0.0363,0.1288 z m 0.1003,0.012 0.1974,0 0,0.0601 -0.1974,0 0,-0.0601 z"
         id="path3149"
         inkscape:connector-curvature="0"
         style="stroke:none" />
    </g>
    <g
       font-size="0.75"
       transform="matrix(50,0,0,50,545.1106,34.2679)"
       id="g3151"
       style="font-size:0.75px;fill:#b20000;stroke:#b20000">
      <path
         d="m -1.1135,0.0515 q 0,-0.0732 -0.0302,-0.1135 -0.0302,-0.0403 -0.0847,-0.0403 -0.0542,0 -0.0845,0.0403 -0.0302,0.0403 -0.0302,0.1135 0,0.0729 0.0302,0.1132 0.0303,0.0403 0.0845,0.0403 0.0545,0 0.0847,-0.0403 0.0302,-0.0403 0.0302,-0.1132 z m 0.0674,0.1589 q 0,0.1048 -0.0465,0.1559 -0.0465,0.051 -0.1424,0.051 -0.0356,0 -0.0671,-0.0053 -0.0315,-0.0053 -0.0611,-0.0162 l 0,-0.0656 q 0.0296,0.0161 0.0586,0.0238 0.0289,0.0077 0.0589,0.0077 0.0663,0 0.0993,-0.0346 0.0329,-0.0346 0.0329,-0.1046 l 0,-0.0333 q -0.0208,0.0363 -0.0534,0.0542 -0.0326,0.0179 -0.078,0.0179 -0.0755,0 -0.1216,-0.0574 -0.0462,-0.0575 -0.0462,-0.1524 0,-0.0952 0.0462,-0.1527 0.0461,-0.0575 0.1216,-0.0575 0.0454,0 0.078,0.0179 0.0326,0.018 0.0534,0.0542 l 0,-0.0622 0.0674,0 0,0.3592 z m 0.4798,-0.1966 0,0.2475 -0.0674,0 0,-0.2453 q 0,-0.0582 -0.0227,-0.0872 -0.0227,-0.0289 -0.0681,-0.0289 -0.0546,0 -0.0861,0.0348 -0.0315,0.0348 -0.0315,0.0948 l 0,0.2318 -0.0678,0 0,-0.4101 0.0678,0 0,0.0637 q 0.0242,-0.037 0.0569,-0.0553 0.0328,-0.0183 0.0757,-0.0183 0.0706,0 0.1069,0.0438 0.0363,0.0437 0.0363,0.1287 z m 0.446,0.3721 0,0.0523 -0.3897,0 0,-0.0523 0.3897,0 z M 0.1295,0.0552 q -0.0817,0 -0.1132,0.0186 -0.0315,0.0187 -0.0315,0.0638 0,0.0359 0.0236,0.0569 0.0236,0.0211 0.0643,0.0211 0.056,0 0.0899,-0.0398 0.0339,-0.0397 0.0339,-0.1056 l 0,-0.015 -0.067,0 z m 0.1344,-0.0279 0,0.234 -0.0674,0 0,-0.0622 Q 0.1734,0.2364 0.139,0.2542 0.1045,0.272 0.0548,0.272 q -0.063,0 -0.1002,-0.0354 -0.0372,-0.0353 -0.0372,-0.0946 0,-0.0692 0.0464,-0.1044 Q 0.0101,0.0024 0.102,0.0024 l 0.0945,0 0,-0.0066 q 0,-0.0465 -0.0306,-0.0719 -0.0306,-0.0255 -0.0859,-0.0255 -0.0351,0 -0.0685,0.0085 -0.0333,0.0084 -0.064,0.0252 l 0,-0.0622 q 0.0369,-0.0143 0.0717,-0.0215 0.0348,-0.0071 0.0678,-0.0071 0.089,0 0.1329,0.0461 0.044,0.0462 0.044,0.1399 z m 0.4339,-0.1604 0,0.063 Q 0.6693,-0.0858 0.6405,-0.0937 0.6118,-0.1016 0.5825,-0.1016 q -0.0656,0 -0.1019,0.0416 -0.0362,0.0416 -0.0362,0.1166 0,0.0751 0.0362,0.1167 0.0363,0.0415 0.1019,0.0415 0.0293,0 0.058,-0.0078 0.0288,-0.0079 0.0573,-0.0237 l 0,0.0623 Q 0.6696,0.2588 0.6394,0.2654 0.6092,0.272 0.5751,0.272 0.4825,0.272 0.4279,0.2137 0.3733,0.1555 0.3733,0.0566 q 0,-0.1003 0.0552,-0.1578 0.0551,-0.0575 0.151,-0.0575 0.0312,0 0.0608,0.0064 0.0297,0.0064 0.0575,0.0192 z m 0.1146,-0.1754 0.0678,0 0,0.3366 0.201,-0.1769 0.0861,0 -0.2175,0.1919 0.2266,0.2182 -0.0878,0 -0.2084,-0.2003 0,0.2003 -0.0678,0 0,-0.5698 z m 0.4029,0.3344 0.1974,0 0,0.06 -0.1974,0 0,-0.06 z"
         id="path3153"
         inkscape:connector-curvature="0"
         style="stroke:none" />
    </g>
    <g
       font-size="0.75"
       transform="matrix(50,0,0,50,795.1106,34.2679)"
       id="g3155"
       style="font-size:0.75px;fill:#0000b2;stroke:#0000b2">
      <path
         d="m -0.4307,0.0093 q 0,-0.0732 -0.0302,-0.1135 -0.0302,-0.0403 -0.0847,-0.0403 -0.0542,0 -0.0845,0.0403 -0.0302,0.0403 -0.0302,0.1135 0,0.0729 0.0302,0.1132 0.0303,0.0403 0.0845,0.0403 0.0545,0 0.0847,-0.0403 0.0302,-0.0403 0.0302,-0.1132 z m 0.0674,0.159 q 0,0.1047 -0.0465,0.1558 -0.0465,0.0511 -0.1424,0.0511 -0.0356,0 -0.0671,-0.0053 -0.0315,-0.0053 -0.0611,-0.0163 l 0,-0.0656 q 0.0296,0.0161 0.0586,0.0238 0.0289,0.0077 0.0589,0.0077 0.0663,0 0.0993,-0.0346 0.0329,-0.0346 0.0329,-0.1045 l 0,-0.0334 q -0.0208,0.0363 -0.0534,0.0542 -0.0326,0.018 -0.078,0.018 -0.0755,0 -0.1216,-0.0575 -0.0462,-0.0575 -0.0462,-0.1524 0,-0.0952 0.0462,-0.1527 0.0461,-0.0575 0.1216,-0.0575 0.0454,0 0.078,0.018 0.0326,0.0179 0.0534,0.0542 l 0,-0.0623 0.0674,0 0,0.3593 z m 0.204,-0.0107 0,0.2176 -0.0678,0 0,-0.5662 0.0678,0 0,0.0623 q 0.0212,-0.0366 0.0537,-0.0544 0.0324,-0.0178 0.0774,-0.0178 0.0747,0 0.1214,0.0594 0.0467,0.0593 0.0467,0.156 0,0.0966 -0.0467,0.156 -0.0467,0.0593 -0.1214,0.0593 -0.045,0 -0.0774,-0.0178 Q -0.1381,0.1943 -0.1593,0.1576 Z M 0.0699,0.0145 q 0,-0.0744 -0.0305,-0.1167 -0.0306,-0.0423 -0.0841,-0.0423 -0.0534,0 -0.084,0.0423 -0.0306,0.0423 -0.0306,0.1167 0,0.0743 0.0306,0.1166 0.0306,0.0423 0.084,0.0423 0.0535,0 0.0841,-0.0423 0.0305,-0.0423 0.0305,-0.1166 z m 0.456,-0.2655 0,0.2039 0.204,0 0,0.0623 -0.204,0 0,0.204 -0.0615,0 0,-0.204 -0.204,0 0,-0.0623 0.204,0 0,-0.2039 0.0615,0 z"
         id="path3157"
         inkscape:connector-curvature="0"
         style="stroke:none" />
    </g>
    <g
       font-size="0.75"
       transform="matrix(50,0,0,50,45.1106,34.2679)"
       id="g3159"
       style="font-size:0.75px;fill:#b20000;stroke:#b20000">
      <path
         d="m -0.7022,0.0064 0,-0.2483 0.0674,0 0,0.2458 q 0,0.0582 0.0227,0.0873 0.0227,0.0291 0.0681,0.0291 0.0546,0 0.0862,-0.0348 0.0317,-0.0348 0.0317,-0.0948 l 0,-0.2326 0.0674,0 0,0.4102 -0.0674,0 0,-0.063 Q -0.4506,0.1427 -0.483,0.1608 -0.5154,0.1789 -0.5583,0.1789 -0.629,0.1789 -0.6656,0.135 -0.7022,0.091 -0.7022,0.0064 Z m 0.1696,-0.2582 0,0 z m 0.2644,0.0099 0.0714,0 0.1281,0.3443 0.1282,-0.3443 0.0714,0 -0.1538,0.4102 -0.0915,0 -0.1538,-0.4102 z m 0.7664,-0.06 0,0.204 0.204,0 0,0.0622 -0.204,0 0,0.204 -0.0615,0 0,-0.204 -0.204,0 0,-0.0622 0.204,0 0,-0.204 0.0615,0 z"
         id="path3161"
         inkscape:connector-curvature="0"
         style="stroke:none" />
    </g>
    <g
       font-size="0.75"
       transform="matrix(50,0,0,50,1045.1106,34.2679)"
       id="g3163"
       style="font-size:0.75px;fill:#b20000;stroke:#b20000">
      <path
         d="m -1.2713,0.0515 q 0,-0.0732 -0.0302,-0.1135 -0.0302,-0.0403 -0.0848,-0.0403 -0.0542,0 -0.0844,0.0403 -0.0302,0.0403 -0.0302,0.1135 0,0.0729 0.0302,0.1132 0.0302,0.0403 0.0844,0.0403 0.0546,0 0.0848,-0.0403 0.0302,-0.0403 0.0302,-0.1132 z m 0.0674,0.1589 q 0,0.1048 -0.0465,0.1559 -0.0465,0.051 -0.1425,0.051 -0.0355,0 -0.067,-0.0053 Q -1.4914,0.4067 -1.521,0.3958 l 0,-0.0656 q 0.0296,0.0161 0.0585,0.0238 0.029,0.0077 0.059,0.0077 0.0663,0 0.0992,-0.0346 0.033,-0.0346 0.033,-0.1046 l 0,-0.0333 q -0.0209,0.0363 -0.0535,0.0542 -0.0326,0.0179 -0.078,0.0179 -0.0754,0 -0.1216,-0.0574 -0.0461,-0.0575 -0.0461,-0.1524 0,-0.0952 0.0461,-0.1527 0.0462,-0.0575 0.1216,-0.0575 0.0454,0 0.078,0.0179 0.0326,0.018 0.0535,0.0542 l 0,-0.0622 0.0674,0 0,0.3592 z m 0.204,-0.0106 0,0.2175 -0.0678,0 0,-0.5661 0.0678,0 0,0.0622 q 0.0212,-0.0366 0.0536,-0.0543 0.0324,-0.0178 0.0775,-0.0178 0.0747,0 0.1214,0.0593 0.0467,0.0594 0.0467,0.156 0,0.0967 -0.0467,0.156 -0.0467,0.0594 -0.1214,0.0594 -0.0451,0 -0.0775,-0.0178 -0.0324,-0.0178 -0.0536,-0.0544 z m 0.2292,-0.1432 q 0,-0.0743 -0.0306,-0.1166 -0.0305,-0.0423 -0.084,-0.0423 -0.0535,0 -0.0841,0.0423 -0.0305,0.0423 -0.0305,0.1166 0,0.0744 0.0305,0.1167 0.0306,0.0423 0.0841,0.0423 0.0535,0 0.084,-0.0423 0.0306,-0.0423 0.0306,-0.1167 z m 0.4933,0.3293 0,0.0523 -0.3897,0 0,-0.0523 0.3897,0 z m 0.2498,-0.3307 q -0.0817,0 -0.1132,0.0186 -0.0315,0.0187 -0.0315,0.0638 0,0.0359 0.0236,0.0569 0.0236,0.0211 0.0643,0.0211 0.056,0 0.0899,-0.0398 0.0339,-0.0397 0.0339,-0.1056 l 0,-0.015 -0.067,0 z m 0.1344,-0.0279 0,0.234 -0.0674,0 0,-0.0622 Q 0.0163,0.2364 -0.0181,0.2542 -0.0526,0.272 -0.1024,0.272 q -0.0629,0 -0.1001,-0.0354 -0.0372,-0.0353 -0.0372,-0.0946 0,-0.0692 0.0463,-0.1044 0.0464,-0.0352 0.1383,-0.0352 l 0.0945,0 0,-0.0066 q 0,-0.0465 -0.0306,-0.0719 -0.0306,-0.0255 -0.0859,-0.0255 -0.0351,0 -0.0685,0.0085 -0.0333,0.0084 -0.064,0.0252 l 0,-0.0622 q 0.0369,-0.0143 0.0717,-0.0215 0.0348,-0.0071 0.0678,-0.0071 0.089,0 0.1329,0.0461 0.044,0.0462 0.044,0.1399 z m 0.4339,-0.1604 0,0.063 Q 0.5121,-0.0858 0.4834,-0.0937 0.4546,-0.1016 0.4254,-0.1016 q -0.0656,0 -0.1019,0.0416 -0.0362,0.0416 -0.0362,0.1166 0,0.0751 0.0362,0.1167 0.0363,0.0415 0.1019,0.0415 0.0292,0 0.058,-0.0078 0.0287,-0.0079 0.0573,-0.0237 l 0,0.0623 Q 0.5125,0.2588 0.4823,0.2654 0.4521,0.272 0.418,0.272 0.3254,0.272 0.2708,0.2137 0.2162,0.1555 0.2162,0.0566 q 0,-0.1003 0.0552,-0.1578 0.0551,-0.0575 0.151,-0.0575 0.0312,0 0.0608,0.0064 0.0297,0.0064 0.0575,0.0192 z m 0.1146,-0.1754 0.0678,0 0,0.3366 0.201,-0.1769 0.0861,0 -0.2175,0.1919 0.2266,0.2182 -0.0878,0 -0.2084,-0.2003 0,0.2003 -0.0678,0 0,-0.5698 z m 0.7112,0.0996 0,0.204 0.204,0 0,0.0623 -0.204,0 0,0.2039 -0.0615,0 0,-0.2039 -0.204,0 0,-0.0623 0.204,0 0,-0.204 0.0615,0 z"
         id="path3165"
         inkscape:connector-curvature="0"
         style="stroke:none" />
    </g>
    <g
       font-size="0.75"
       transform="matrix(50,0,0,50,1295.1106,34.2679)"
       id="g3167"
       style="font-size:0.75px;fill:#b20000;stroke:#b20000">
      <path
         d="m -0.5447,-0.0111 0,-0.2483 0.0673,0 0,0.2457 q 0,0.0582 0.0228,0.0873 0.0227,0.0292 0.0681,0.0292 0.0545,0 0.0862,-0.0348 0.0317,-0.0348 0.0317,-0.0949 l 0,-0.2325 0.0674,0 0,0.4101 -0.0674,0 0,-0.0629 q -0.0245,0.0373 -0.057,0.0554 -0.0324,0.0182 -0.0752,0.0182 -0.0707,0 -0.1073,-0.044 -0.0366,-0.0439 -0.0366,-0.1285 z m 0.1695,-0.2582 0,0 z m 0.2644,0.0099 0.0714,0 0.1282,0.3442 0.1282,-0.3442 0.0714,0 -0.1538,0.4101 -0.0916,0 -0.1538,-0.4101 z m 0.4582,0.1747 0.1973,0 0,0.06 -0.1973,0 0,-0.06 z"
         id="path3169"
         inkscape:connector-curvature="0"
         style="stroke:none" />
    </g>
    <g
       font-size="0.75"
       transform="matrix(50,0,0,50,795.1106,234.2679)"
       id="g3171"
       style="font-size:0.75px;fill:#b20000;stroke:#b20000">
      <path
         d="m -1.1138,0.0515 q 0,-0.0732 -0.0302,-0.1135 -0.0303,-0.0403 -0.0848,-0.0403 -0.0542,0 -0.0844,0.0403 -0.0302,0.0403 -0.0302,0.1135 0,0.0729 0.0302,0.1132 0.0302,0.0403 0.0844,0.0403 0.0545,0 0.0848,-0.0403 0.0302,-0.0403 0.0302,-0.1132 z m 0.0673,0.1589 q 0,0.1048 -0.0465,0.1559 -0.0465,0.051 -0.1424,0.051 -0.0355,0 -0.067,-0.0053 -0.0315,-0.0053 -0.0612,-0.0162 l 0,-0.0656 q 0.0297,0.0161 0.0586,0.0238 0.0289,0.0077 0.059,0.0077 0.0662,0 0.0992,-0.0346 0.033,-0.0346 0.033,-0.1046 l 0,-0.0333 q -0.0209,0.0363 -0.0535,0.0542 -0.0326,0.0179 -0.078,0.0179 -0.0754,0 -0.1216,-0.0574 -0.0461,-0.0575 -0.0461,-0.1524 0,-0.0952 0.0461,-0.1527 0.0462,-0.0575 0.1216,-0.0575 0.0454,0 0.078,0.0179 0.0326,0.018 0.0535,0.0542 l 0,-0.0622 0.0673,0 0,0.3592 z m 0.204,-0.0106 0,0.2175 -0.0677,0 0,-0.5661 0.0677,0 0,0.0622 q 0.0213,-0.0366 0.0537,-0.0543 0.0324,-0.0178 0.0774,-0.0178 0.0747,0 0.1214,0.0593 0.0467,0.0594 0.0467,0.156 0,0.0967 -0.0467,0.156 -0.0467,0.0594 -0.1214,0.0594 -0.045,0 -0.0774,-0.0178 -0.0324,-0.0178 -0.0537,-0.0544 z m 0.2293,-0.1432 q 0,-0.0743 -0.0306,-0.1166 -0.0306,-0.0423 -0.084,-0.0423 -0.0535,0 -0.0841,0.0423 -0.0306,0.0423 -0.0306,0.1166 0,0.0744 0.0306,0.1167 0.0306,0.0423 0.0841,0.0423 0.0534,0 0.084,-0.0423 0.0306,-0.0423 0.0306,-0.1167 z m 0.4933,0.3293 0,0.0523 -0.3897,0 0,-0.0523 0.3897,0 z M 0.1298,0.0552 q -0.0816,0 -0.1131,0.0186 -0.0315,0.0187 -0.0315,0.0638 0,0.0359 0.0236,0.0569 0.0236,0.0211 0.0643,0.0211 0.056,0 0.0899,-0.0398 0.0338,-0.0397 0.0338,-0.1056 l 0,-0.015 -0.067,0 z m 0.1344,-0.0279 0,0.234 -0.0674,0 0,-0.0622 Q 0.1738,0.2364 0.1393,0.2542 0.1049,0.272 0.0551,0.272 q -0.063,0 -0.1001,-0.0354 -0.0372,-0.0353 -0.0372,-0.0946 0,-0.0692 0.0463,-0.1044 0.0463,-0.0352 0.1383,-0.0352 l 0.0944,0 0,-0.0066 q 0,-0.0465 -0.0305,-0.0719 -0.0306,-0.0255 -0.0859,-0.0255 -0.0352,0 -0.0685,0.0085 -0.0333,0.0084 -0.0641,0.0252 l 0,-0.0622 q 0.037,-0.0143 0.0718,-0.0215 0.0348,-0.0071 0.0677,-0.0071 0.089,0 0.133,0.0461 0.0439,0.0462 0.0439,0.1399 z m 0.434,-0.1604 0,0.063 Q 0.6696,-0.0858 0.6409,-0.0937 0.6121,-0.1016 0.5828,-0.1016 q -0.0655,0 -0.1018,0.0416 -0.0362,0.0416 -0.0362,0.1166 0,0.0751 0.0362,0.1167 0.0363,0.0415 0.1018,0.0415 0.0293,0 0.0581,-0.0078 0.0287,-0.0079 0.0573,-0.0237 l 0,0.0623 Q 0.67,0.2588 0.6398,0.2654 0.6096,0.272 0.5755,0.272 0.4829,0.272 0.4283,0.2137 0.3737,0.1555 0.3737,0.0566 q 0,-0.1003 0.0551,-0.1578 0.0551,-0.0575 0.1511,-0.0575 0.0311,0 0.0608,0.0064 0.0297,0.0064 0.0575,0.0192 z m 0.1146,-0.1754 0.0677,0 0,0.3366 0.2011,-0.1769 0.0861,0 -0.2176,0.1919 0.2267,0.2182 -0.0879,0 -0.2084,-0.2003 0,0.2003 -0.0677,0 0,-0.5698 z m 0.4028,0.3344 0.1974,0 0,0.06 -0.1974,0 0,-0.06 z"
         id="path3173"
         inkscape:connector-curvature="0"
         style="stroke:none" />
    </g>
    <g
       font-size="0.75"
       transform="matrix(50,0,0,50,1045.1106,534.2679)"
       id="g3175"
       style="font-size:0.75px;stroke-width:0.02">
      <path
         d="m -10.8295,-6 -2.1004,0"
         id="path3177"
         inkscape:connector-curvature="0"
         style="fill:none" />
      <path
         d="m -12.9299,-5.925 0,-0.15 -0.4,0.075 z"
         id="path3179"
         inkscape:connector-curvature="0"
         style="stroke:none" />
    </g>
    <g
       font-size="0.75"
       transform="matrix(50,0,0,50,1045.1106,534.2679)"
       id="g3181"
       style="font-size:0.75px;stroke-width:0.02">
      <path
         d="m -16.6701,-6 -2.298,0"
         id="path3183"
         inkscape:connector-curvature="0"
         style="fill:none" />
      <path
         d="m -18.9681,-5.925 0,-0.15 -0.4,0.075 z"
         id="path3185"
         inkscape:connector-curvature="0"
         style="stroke:none" />
    </g>
    <g
       font-size="0.75"
       transform="matrix(50,0,0,50,1045.1106,534.2679)"
       id="g3187"
       style="font-size:0.75px;stroke-width:0.02">
      <path
         d="M 4.2106,-6 1.0724,-6"
         id="path3189"
         inkscape:connector-curvature="0"
         style="fill:none" />
      <path
         d="m 1.0724,-5.925 0,-0.15 -0.4,0.075 z"
         id="path3191"
         inkscape:connector-curvature="0"
         style="stroke:none" />
    </g>
    <g
       font-size="0.75"
       transform="matrix(50,0,0,50,1045.1106,534.2679)"
       id="g3193"
       style="font-size:0.75px;stroke-width:0.02">
      <path
         d="m -14.328,-10 2.4153,0"
         id="path3195"
         inkscape:connector-curvature="0"
         style="fill:none" />
      <path
         d="m -11.9127,-10.075 0,0.15 0.4,-0.075 z"
         id="path3197"
         inkscape:connector-curvature="0"
         style="stroke:none" />
    </g>
    <g
       font-size="0.75"
       transform="matrix(50,0,0,50,1045.1106,534.2679)"
       id="g3199"
       style="font-size:0.75px;stroke-width:0.02">
      <path
         d="m -8.4873,-10 2.2574,0"
         id="path3201"
         inkscape:connector-curvature="0"
         style="fill:none" />
      <path
         d="m -6.2299,-10.075 0,0.15 0.4,-0.075 z"
         id="path3203"
         inkscape:connector-curvature="0"
         style="stroke:none" />
    </g>
    <g
       font-size="0.75"
       transform="matrix(50,0,0,50,1045.1106,534.2679)"
       id="g3205"
       style="font-size:0.75px;stroke-width:0.02">
      <path
         d="m -19.1978,-10 3.1258,0"
         id="path3207"
         inkscape:connector-curvature="0"
         style="fill:none" />
      <path
         d="m -16.072,-10.075 0,0.15 0.4,-0.075 z"
         id="path3209"
         inkscape:connector-curvature="0"
         style="stroke:none" />
    </g>
    <g
       font-size="0.75"
       transform="matrix(50,0,0,50,45.1106,134.2679)"
       id="g3211"
       style="font-size:0.75px;stroke-width:0.02">
      <circle
         cx="0"
         cy="0"
         r="0.2105"
         id="circle3213"
         style="stroke:none" />
    </g>
    <g
       font-size="0.75"
       transform="matrix(50,0,0,50,1045.1106,534.2679)"
       id="g3215"
       style="font-size:0.75px;stroke-width:0.02">
      <path
         d="m -20,-6.3799 0,-2.8076"
         id="path3217"
         inkscape:connector-curvature="0"
         style="fill:none" />
      <path
         d="m -20.075,-9.1875 0.15,0 -0.075,-0.4 z"
         id="path3219"
         inkscape:connector-curvature="0"
         style="stroke:none" />
    </g>
    <g
       font-size="0.75"
       transform="matrix(50,0,0,50,1045.1106,534.2679)"
       id="g3221"
       style="font-size:0.75px;stroke-width:0.02">
      <path
         d="m -4.1701,-10 2.0996,0"
         id="path3223"
         inkscape:connector-curvature="0"
         style="fill:none" />
      <path
         d="m -2.0705,-10.075 0,0.15 0.4,-0.075 z"
         id="path3225"
         inkscape:connector-curvature="0"
         style="stroke:none" />
    </g>
    <g
       font-size="0.75"
       transform="matrix(50,0,0,50,1295.1106,134.2679)"
       id="g3227"
       style="font-size:0.75px;stroke-width:0.02">
      <circle
         cx="0"
         cy="0"
         r="0.2105"
         id="circle3229"
         style="stroke:none" />
    </g>
    <g
       font-size="0.75"
       transform="matrix(50,0,0,50,1045.1106,534.2679)"
       id="g3231"
       style="font-size:0.75px;stroke-width:0.02">
      <path
         d="m 5,-9.6201 0,2.8076"
         id="path3233"
         inkscape:connector-curvature="0"
         style="fill:none" />
      <path
         d="m 5.075,-6.8125 -0.15,0 0.075,0.4 z"
         id="path3235"
         inkscape:connector-curvature="0"
         style="stroke:none" />
    </g>
    <g
       font-size="0.75"
       transform="matrix(50,0,0,50,1045.1106,534.2679)"
       id="g3237"
       style="font-size:0.75px;stroke-width:0.02">
      <path
         d="m 1.6705,-10 2.2848,0"
         id="path3239"
         inkscape:connector-curvature="0"
         style="fill:none" />
      <path
         d="m 3.9553,-10.075 0,0.15 0.4,-0.075 z"
         id="path3241"
         inkscape:connector-curvature="0"
         style="stroke:none" />
    </g>
    <g
       font-size="0.75"
       transform="matrix(50,0,0,50,1045.1106,534.2679)"
       id="g3243"
       style="font-size:0.75px;stroke-width:0.02">
      <path
         d="M -0.6724,-6 -3.087,-6"
         id="path3245"
         inkscape:connector-curvature="0"
         style="fill:none" />
      <path
         d="m -3.087,-5.925 0,-0.15 -0.4,0.075 z"
         id="path3247"
         inkscape:connector-curvature="0"
         style="stroke:none" />
    </g>
    <g
       font-size="0.75"
       transform="matrix(50,0,0,50,1045.1106,534.2679)"
       id="g3249"
       style="font-size:0.75px;stroke-width:0.02">
      <path
         d="m -6.513,-6 -2.2575,0"
         id="path3251"
         inkscape:connector-curvature="0"
         style="fill:none" />
      <path
         d="m -8.7705,-5.925 0,-0.15 -0.4,0.075 z"
         id="path3253"
         inkscape:connector-curvature="0"
         style="stroke:none" />
    </g>
  </g>
  <flowRoot
     xml:space="preserve"
     id="flowRoot4047"
     style="font-style:normal;font-weight:normal;font-size:28px;line-height:125%;font-family:Sans;text-align:center;letter-spacing:0px;word-spacing:0px;text-anchor:middle;fill:#000000;fill-opacity:1;stroke:none"
     transform="translate(17.119141,170.62808)"><flowRegion
       id="flowRegion4049"><rect
         id="rect4051"
         width="172.14836"
         height="111.89643"
         x="-23.670399"
         y="-112.87824"
         style="font-size:28px;text-align:center;text-anchor:middle" /></flowRegion><flowPara
       id="flowPara4053"
       style="font-size:36px">Mutually Exclusive</flowPara></flowRoot>  <flowRoot
     xml:space="preserve"
     id="flowRoot4047-7"
     style="font-style:normal;font-weight:normal;font-size:36px;line-height:125%;font-family:Sans;text-align:center;letter-spacing:0px;word-spacing:0px;text-anchor:middle;fill:#000000;fill-opacity:1;stroke:none"
     transform="translate(1270.0429,174.01587)"><flowRegion
       id="flowRegion4049-4"><rect
         id="rect4051-0"
         width="172.14836"
         height="94.681595"
         x="-23.670399"
         y="-112.87824"
         style="font-size:36px;text-align:center;text-anchor:middle" /></flowRegion><flowPara
       id="flowPara4053-9">Mutually Exclusive</flowPara></flowRoot>  <flowRoot
     xml:space="preserve"
     id="flowRoot4047-5"
     style="font-style:normal;font-weight:normal;font-size:28px;line-height:125%;font-family:Sans;text-align:center;letter-spacing:0px;word-spacing:0px;text-anchor:middle;fill:#000000;fill-opacity:1;stroke:none"
     transform="translate(510.43825,103.00468)"><flowRegion
       id="flowRegion4049-5"><rect
         id="rect4051-1"
         width="167.84465"
         height="96.83345"
         x="-23.670399"
         y="-112.87824"
         style="font-size:28px;text-align:center;text-anchor:middle" /></flowRegion><flowPara
       id="flowPara4053-7"
       style="font-size:36px">Mutually Exclusive</flowPara></flowRoot>  <flowRoot
     xml:space="preserve"
     id="flowRoot4047-1"
     style="font-style:normal;font-weight:normal;font-size:36px;line-height:125%;font-family:Sans;text-align:center;letter-spacing:0px;word-spacing:0px;text-anchor:middle;fill:#000000;fill-opacity:1;stroke:none"
     transform="translate(744.99038,604.38677)"><flowRegion
       id="flowRegion4049-1"><rect
         id="rect4051-5"
         width="178.60393"
         height="94.681595"
         x="-23.670399"
         y="-112.87824"
         style="font-size:36px;text-align:center;text-anchor:middle" /></flowRegion><flowPara
       id="flowPara4053-2">Mutually Exclusive</flowPara></flowRoot>  <path
     style="fill:none;stroke:#000000;stroke-width:4;stroke-linecap:butt;stroke-linejoin:miter;stroke-miterlimit:10;stroke-dasharray:none;stroke-opacity:1"
     d="M 744.56412,498.99817 610.91283,410.53583"
     id="path4178"
     inkscape:connector-curvature="0" />
  <path
     style="fill:none;stroke:#000000;stroke-width:4;stroke-linecap:butt;stroke-linejoin:miter;stroke-miterlimit:10;stroke-dasharray:none;stroke-opacity:1"
     d="M 880.02143,505.32694 1043.5452,412.81447"
     id="path4180"
     inkscape:connector-curvature="0" />
  <path
     style="fill:none;stroke:#000000;stroke-width:4;stroke-linecap:butt;stroke-linejoin:miter;stroke-miterlimit:10;stroke-dasharray:none;stroke-opacity:1"
     d="M 763.13804,146.37719 639.67969,76.7152"
     id="path4178-7"
     inkscape:connector-curvature="0" />
  <path
     style="fill:none;stroke:#000000;stroke-width:4;stroke-linecap:butt;stroke-linejoin:miter;stroke-miterlimit:10;stroke-dasharray:none;stroke-opacity:1"
     d="M 360.02464,153.82263 500.52575,77.877167"
     id="path4180-6"
     inkscape:connector-curvature="0" />
  <rect
     style="fill:none;stroke:#000000;stroke-width:2;stroke-miterlimit:10;stroke-dasharray:none;stroke-dashoffset:0;stroke-opacity:1"
     id="rect4218"
     width="428.21906"
     height="322.77817"
     x="238.76016"
     y="124.45731" />
  <rect
     style="fill:none;stroke:#000000;stroke-width:2;stroke-miterlimit:10;stroke-dasharray:none;stroke-dashoffset:0;stroke-opacity:1"
     id="rect4218-1"
     width="428.21906"
     height="322.77817"
     x="743.37006"
     y="128.76103" />
  <flowRoot
     xml:space="preserve"
     id="flowRoot4047-5-4"
     style="font-style:normal;font-weight:normal;font-size:36px;line-height:125%;font-family:Sans;text-align:center;letter-spacing:0px;word-spacing:0px;text-anchor:middle;fill:#000000;fill-opacity:1;stroke:none"
     transform="translate(381.32696,380.59391)"><flowRegion
       id="flowRegion4049-5-2"><rect
         id="rect4051-1-3"
         width="202.27434"
         height="81.77047"
         x="-23.670399"
         y="-112.87824"
         style="font-size:36px;text-align:center;text-anchor:middle" /></flowRegion><flowPara
       id="flowPara4053-7-2">Handshake</flowPara></flowRoot>  <flowRoot
     xml:space="preserve"
     id="flowRoot4047-5-4-2"
     style="font-style:normal;font-weight:normal;font-size:36px;line-height:125%;font-family:Sans;text-align:center;letter-spacing:0px;word-spacing:0px;text-anchor:middle;fill:#000000;fill-opacity:1;stroke:none"
     transform="translate(886.85651,383.46645)"><flowRegion
       id="flowRegion4049-5-2-1"><rect
         id="rect4051-1-3-6"
         width="202.27434"
         height="83.922325"
         x="-23.670399"
         y="-112.87824"
         style="font-size:36px;text-align:center;text-anchor:middle" /></flowRegion><flowPara
       id="flowPara4053-7-2-8">Handshake</flowPara></flowRoot></svg>
