<?xml version="1.0" encoding="UTF-8" standalone="no"?>
<svg
   xmlns:dc="http://purl.org/dc/elements/1.1/"
   xmlns:cc="http://creativecommons.org/ns#"
   xmlns:rdf="http://www.w3.org/1999/02/22-rdf-syntax-ns#"
   xmlns:svg="http://www.w3.org/2000/svg"
   xmlns="http://www.w3.org/2000/svg"
   xmlns:sodipodi="http://sodipodi.sourceforge.net/DTD/sodipodi-0.dtd"
   xmlns:inkscape="http://www.inkscape.org/namespaces/inkscape"
   color-interpolation="auto"
   color-rendering="auto"
   fill="black"
   fill-opacity="1"
   font-family="'Dialog'"
   font-size="12"
   font-style="normal"
   font-weight="normal"
   height="268"
   image-rendering="auto"
   shape-rendering="auto"
   stroke="black"
   stroke-dasharray="none"
   stroke-dashoffset="0"
   stroke-linecap="square"
   stroke-linejoin="miter"
   stroke-miterlimit="10"
   stroke-opacity="1"
   stroke-width="1"
   text-rendering="auto"
   width="1339"
   id="svg2"
   version="1.1"
   inkscape:version="0.91 r13725"
   sodipodi:docname="stg-UV_before_ZC.svg">
  <metadata
     id="metadata163">
    <rdf:RDF>
      <cc:Work
         rdf:about="">
        <dc:format>image/svg+xml</dc:format>
        <dc:type
           rdf:resource="http://purl.org/dc/dcmitype/StillImage" />
        <dc:title></dc:title>
      </cc:Work>
    </rdf:RDF>
  </metadata>
  <sodipodi:namedview
     pagecolor="#ffffff"
     bordercolor="#666666"
     borderopacity="1"
     objecttolerance="10"
     gridtolerance="10"
     guidetolerance="10"
     inkscape:pageopacity="0"
     inkscape:pageshadow="2"
     inkscape:window-width="1920"
     inkscape:window-height="1176"
     id="namedview161"
     showgrid="false"
     inkscape:zoom="1.2589564"
     inkscape:cx="1327.8054"
     inkscape:cy="94.096953"
     inkscape:window-x="0"
     inkscape:window-y="24"
     inkscape:window-maximized="1"
     inkscape:current-layer="svg2" />
  <!--Generated by the Batik Graphics2D SVG Generator-->
  <defs
     id="genericDefs" />
  <g
     style="font-size:0.75px;fill:#0000b2;stroke:#0000b2"
     id="g7"
     transform="matrix(50,0,0,50,545.1106,234.2679)"
     font-size="0.75">
    <path
       style="stroke:none"
       inkscape:connector-curvature="0"
       id="path9"
       d="m -0.4303,0.0093 q 0,-0.0732 -0.0302,-0.1135 -0.0302,-0.0403 -0.0848,-0.0403 -0.0542,0 -0.0844,0.0403 -0.0302,0.0403 -0.0302,0.1135 0,0.0729 0.0302,0.1132 0.0302,0.0403 0.0844,0.0403 0.0546,0 0.0848,-0.0403 0.0302,-0.0403 0.0302,-0.1132 z m 0.0674,0.159 q 0,0.1047 -0.0465,0.1558 -0.0465,0.0511 -0.1425,0.0511 -0.0355,0 -0.067,-0.0053 Q -0.6504,0.3646 -0.68,0.3536 l 0,-0.0656 q 0.0296,0.0161 0.0585,0.0238 0.029,0.0077 0.059,0.0077 0.0663,0 0.0992,-0.0346 0.033,-0.0346 0.033,-0.1045 l 0,-0.0334 q -0.0209,0.0363 -0.0535,0.0542 -0.0326,0.018 -0.078,0.018 -0.0754,0 -0.1215,-0.0575 -0.0462,-0.0575 -0.0462,-0.1524 0,-0.0952 0.0462,-0.1527 0.0461,-0.0575 0.1215,-0.0575 0.0454,0 0.078,0.018 0.0326,0.0179 0.0535,0.0542 l 0,-0.0623 0.0674,0 0,0.3593 z m 0.4797,-0.1967 0,0.2476 -0.0674,0 0,-0.2454 q 0,-0.0582 -0.0227,-0.0871 -0.0227,-0.029 -0.0681,-0.029 -0.0545,0 -0.086,0.0348 -0.0315,0.0348 -0.0315,0.0949 l 0,0.2318 -0.0678,0 0,-0.4102 0.0678,0 0,0.0637 q 0.0241,-0.0369 0.0569,-0.0553 0.0328,-0.0183 0.0756,-0.0183 0.0707,0 0.107,0.0438 0.0362,0.0438 0.0362,0.1287 z m 0.4087,-0.2226 0,0.2039 0.204,0 0,0.0623 -0.204,0 0,0.204 -0.0615,0 0,-0.204 -0.204,0 0,-0.0623 0.204,0 0,-0.2039 0.0615,0 z" />
  </g>
  <g
     style="font-size:0.75px;fill:#b20000;stroke:#b20000"
     id="g11"
     transform="matrix(50,0,0,50,295.1106,234.2679)"
     font-size="0.75">
    <path
       style="stroke:none"
       inkscape:connector-curvature="0"
       id="path13"
       d="m -1.2709,0.0515 q 0,-0.0732 -0.0302,-0.1135 -0.0303,-0.0403 -0.0848,-0.0403 -0.0542,0 -0.0844,0.0403 -0.0302,0.0403 -0.0302,0.1135 0,0.0729 0.0302,0.1132 0.0302,0.0403 0.0844,0.0403 0.0545,0 0.0848,-0.0403 0.0302,-0.0403 0.0302,-0.1132 z m 0.0673,0.1589 q 0,0.1048 -0.0465,0.1559 -0.0465,0.051 -0.1424,0.051 -0.0355,0 -0.067,-0.0053 Q -1.491,0.4067 -1.5207,0.3958 l 0,-0.0656 q 0.0297,0.0161 0.0586,0.0238 0.0289,0.0077 0.059,0.0077 0.0662,0 0.0992,-0.0346 0.033,-0.0346 0.033,-0.1046 l 0,-0.0333 q -0.0209,0.0363 -0.0535,0.0542 -0.0326,0.0179 -0.078,0.0179 -0.0754,0 -0.1216,-0.0574 -0.0461,-0.0575 -0.0461,-0.1524 0,-0.0952 0.0461,-0.1527 0.0462,-0.0575 0.1216,-0.0575 0.0454,0 0.078,0.0179 0.0326,0.018 0.0535,0.0542 l 0,-0.0622 0.0673,0 0,0.3592 z m 0.4798,-0.1966 0,0.2475 -0.0674,0 0,-0.2453 q 0,-0.0582 -0.0227,-0.0872 -0.0227,-0.0289 -0.0681,-0.0289 -0.0546,0 -0.0861,0.0348 -0.0315,0.0348 -0.0315,0.0948 l 0,0.2318 -0.0677,0 0,-0.4101 0.0677,0 0,0.0637 q 0.0242,-0.037 0.057,-0.0553 0.0328,-0.0183 0.0756,-0.0183 0.0707,0 0.1069,0.0438 0.0363,0.0437 0.0363,0.1287 z m 0.446,0.3721 0,0.0523 -0.3896,0 0,-0.0523 0.3896,0 z M -0.028,0.0552 q -0.0817,0 -0.1132,0.0186 -0.0315,0.0187 -0.0315,0.0638 0,0.0359 0.0237,0.0569 0.0236,0.0211 0.0642,0.0211 0.0561,0 0.0899,-0.0398 Q 0.039,0.1361 0.039,0.0702 l 0,-0.015 -0.067,0 z m 0.1344,-0.0279 0,0.234 -0.0674,0 0,-0.0622 Q 0.0159,0.2364 -0.0185,0.2542 -0.0529,0.272 -0.1027,0.272 -0.1657,0.272 -0.2029,0.2366 -0.24,0.2013 -0.24,0.142 q 0,-0.0692 0.0463,-0.1044 0.0463,-0.0352 0.1382,-0.0352 l 0.0945,0 0,-0.0066 q 0,-0.0465 -0.0306,-0.0719 -0.0306,-0.0255 -0.0859,-0.0255 -0.0351,0 -0.0684,0.0085 -0.0334,0.0084 -0.0641,0.0252 l 0,-0.0622 q 0.037,-0.0143 0.0718,-0.0215 0.0347,-0.0071 0.0677,-0.0071 0.089,0 0.1329,0.0461 0.044,0.0462 0.044,0.1399 z m 0.4339,-0.1604 0,0.063 Q 0.5118,-0.0858 0.483,-0.0937 0.4543,-0.1016 0.425,-0.1016 q -0.0656,0 -0.1018,0.0416 -0.0363,0.0416 -0.0363,0.1166 0,0.0751 0.0363,0.1167 0.0362,0.0415 0.1018,0.0415 0.0293,0 0.058,-0.0078 0.0288,-0.0079 0.0573,-0.0237 l 0,0.0623 Q 0.5121,0.2588 0.4819,0.2654 0.4517,0.272 0.4177,0.272 0.325,0.272 0.2704,0.2137 0.2159,0.1555 0.2159,0.0566 q 0,-0.1003 0.0551,-0.1578 0.0551,-0.0575 0.1511,-0.0575 0.0311,0 0.0608,0.0064 0.0296,0.0064 0.0574,0.0192 z m 0.1147,-0.1754 0.0677,0 0,0.3366 0.2011,-0.1769 0.086,0 -0.2175,0.1919 0.2267,0.2182 -0.0879,0 -0.2084,-0.2003 0,0.2003 -0.0677,0 0,-0.5698 z m 0.7111,0.0996 0,0.204 0.204,0 0,0.0623 -0.204,0 0,0.2039 -0.0615,0 0,-0.2039 -0.204,0 0,-0.0623 0.204,0 0,-0.204 0.0615,0 z" />
  </g>
  <g
     style="font-size:0.75px;fill:#b20000;stroke:#b20000"
     id="g15"
     transform="matrix(50,0,0,50,45.1106,234.2679)"
     font-size="0.75">
    <path
       style="stroke:none"
       inkscape:connector-curvature="0"
       id="path17"
       d="m -0.3437,-0.2122 q -0.0542,0 -0.0857,0.0423 -0.0315,0.0423 -0.0315,0.1159 0,0.0736 0.0313,0.1159 0.0313,0.0423 0.0859,0.0423 0.0538,0 0.0853,-0.0425 0.0315,-0.0424 0.0315,-0.1157 0,-0.0729 -0.0315,-0.1155 -0.0315,-0.0427 -0.0853,-0.0427 z m 0,-0.0571 q 0.0879,0 0.1381,0.0571 0.0501,0.0572 0.0501,0.1582 0,0.1007 -0.0501,0.158 -0.0502,0.0574 -0.1381,0.0574 -0.0882,0 -0.1382,-0.0574 -0.05,-0.0573 -0.05,-0.158 0,-0.101 0.05,-0.1582 0.05,-0.0571 0.1382,-0.0571 z m 0.5951,0.0256 0,0.063 Q 0.2228,-0.1964 0.1941,-0.2043 0.1653,-0.2122 0.136,-0.2122 q -0.0655,0 -0.1018,0.0416 -0.0362,0.0416 -0.0362,0.1166 0,0.0751 0.0362,0.1167 0.0363,0.0415 0.1018,0.0415 0.0293,0 0.0581,-0.0078 0.0287,-0.0079 0.0573,-0.0237 l 0,0.0623 Q 0.2232,0.1482 0.193,0.1548 0.1628,0.1614 0.1287,0.1614 q -0.0926,0 -0.1472,-0.0583 -0.0546,-0.0582 -0.0546,-0.1571 0,-0.1003 0.0552,-0.1578 0.0551,-0.0575 0.151,-0.0575 0.0311,0 0.0608,0.0064 0.0297,0.0064 0.0575,0.0192 z m 0.0831,0.159 0.1974,0 0,0.06 -0.1974,0 0,-0.06 z" />
  </g>
  <g
     style="font-size:0.75px;fill:#0000b2;stroke:#0000b2"
     id="g19"
     transform="matrix(50,0,0,50,295.1106,34.2679)"
     font-size="0.75">
    <path
       style="stroke:none"
       inkscape:connector-curvature="0"
       id="path21"
       d="m -0.2728,-0.0082 q 0,-0.0733 -0.0302,-0.1135 -0.0302,-0.0403 -0.0848,-0.0403 -0.0542,0 -0.0844,0.0403 -0.0302,0.0402 -0.0302,0.1135 0,0.0728 0.0302,0.1131 0.0302,0.0403 0.0844,0.0403 0.0546,0 0.0848,-0.0403 0.0302,-0.0403 0.0302,-0.1131 z m 0.0673,0.1589 q 0,0.1047 -0.0465,0.1558 -0.0465,0.0511 -0.1424,0.0511 -0.0355,0 -0.067,-0.0053 Q -0.4929,0.347 -0.5226,0.336 l 0,-0.0655 q 0.0297,0.0161 0.0586,0.0238 0.0289,0.0077 0.059,0.0077 0.0663,0 0.0992,-0.0346 0.033,-0.0347 0.033,-0.1046 l 0,-0.0333 q -0.0209,0.0362 -0.0535,0.0542 -0.0326,0.0179 -0.078,0.0179 -0.0754,0 -0.1216,-0.0575 -0.0461,-0.0575 -0.0461,-0.1523 0,-0.0952 0.0461,-0.1527 0.0462,-0.0575 0.1216,-0.0575 0.0454,0 0.078,0.0179 0.0326,0.018 0.0535,0.0542 l 0,-0.0622 0.0673,0 0,0.3592 z m 0.4798,-0.1966 0,0.2475 -0.0674,0 0,-0.2453 q 0,-0.0583 -0.0227,-0.0872 -0.0227,-0.0289 -0.0681,-0.0289 -0.0546,0 -0.0861,0.0348 -0.0315,0.0347 -0.0315,0.0948 l 0,0.2318 -0.0677,0 0,-0.4101 0.0677,0 0,0.0637 q 0.0242,-0.037 0.057,-0.0553 0.0328,-0.0183 0.0756,-0.0183 0.0707,0 0.1069,0.0437 0.0363,0.0438 0.0363,0.1288 z m 0.1003,0.012 0.1974,0 0,0.0601 -0.1974,0 0,-0.0601 z" />
  </g>
  <g
     style="font-size:0.75px;fill:#b20000;stroke:#b20000"
     id="g23"
     transform="matrix(50,0,0,50,545.1106,34.2679)"
     font-size="0.75">
    <path
       style="stroke:none"
       inkscape:connector-curvature="0"
       id="path25"
       d="m -1.1135,0.0515 q 0,-0.0732 -0.0302,-0.1135 -0.0302,-0.0403 -0.0847,-0.0403 -0.0542,0 -0.0845,0.0403 -0.0302,0.0403 -0.0302,0.1135 0,0.0729 0.0302,0.1132 0.0303,0.0403 0.0845,0.0403 0.0545,0 0.0847,-0.0403 0.0302,-0.0403 0.0302,-0.1132 z m 0.0674,0.1589 q 0,0.1048 -0.0465,0.1559 -0.0465,0.051 -0.1424,0.051 -0.0356,0 -0.0671,-0.0053 -0.0315,-0.0053 -0.0611,-0.0162 l 0,-0.0656 q 0.0296,0.0161 0.0586,0.0238 0.0289,0.0077 0.0589,0.0077 0.0663,0 0.0993,-0.0346 0.0329,-0.0346 0.0329,-0.1046 l 0,-0.0333 q -0.0208,0.0363 -0.0534,0.0542 -0.0326,0.0179 -0.078,0.0179 -0.0755,0 -0.1216,-0.0574 -0.0462,-0.0575 -0.0462,-0.1524 0,-0.0952 0.0462,-0.1527 0.0461,-0.0575 0.1216,-0.0575 0.0454,0 0.078,0.0179 0.0326,0.018 0.0534,0.0542 l 0,-0.0622 0.0674,0 0,0.3592 z m 0.4798,-0.1966 0,0.2475 -0.0674,0 0,-0.2453 q 0,-0.0582 -0.0227,-0.0872 -0.0227,-0.0289 -0.0681,-0.0289 -0.0546,0 -0.0861,0.0348 -0.0315,0.0348 -0.0315,0.0948 l 0,0.2318 -0.0678,0 0,-0.4101 0.0678,0 0,0.0637 q 0.0242,-0.037 0.0569,-0.0553 0.0328,-0.0183 0.0757,-0.0183 0.0706,0 0.1069,0.0438 0.0363,0.0437 0.0363,0.1287 z m 0.446,0.3721 0,0.0523 -0.3897,0 0,-0.0523 0.3897,0 z M 0.1295,0.0552 q -0.0817,0 -0.1132,0.0186 -0.0315,0.0187 -0.0315,0.0638 0,0.0359 0.0236,0.0569 0.0236,0.0211 0.0643,0.0211 0.056,0 0.0899,-0.0398 0.0339,-0.0397 0.0339,-0.1056 l 0,-0.015 -0.067,0 z m 0.1344,-0.0279 0,0.234 -0.0674,0 0,-0.0622 Q 0.1734,0.2364 0.139,0.2542 0.1045,0.272 0.0548,0.272 q -0.063,0 -0.1002,-0.0354 -0.0372,-0.0353 -0.0372,-0.0946 0,-0.0692 0.0464,-0.1044 Q 0.0101,0.0024 0.102,0.0024 l 0.0945,0 0,-0.0066 q 0,-0.0465 -0.0306,-0.0719 -0.0306,-0.0255 -0.0859,-0.0255 -0.0351,0 -0.0685,0.0085 -0.0333,0.0084 -0.064,0.0252 l 0,-0.0622 q 0.0369,-0.0143 0.0717,-0.0215 0.0348,-0.0071 0.0678,-0.0071 0.089,0 0.1329,0.0461 0.044,0.0462 0.044,0.1399 z m 0.4339,-0.1604 0,0.063 Q 0.6693,-0.0858 0.6405,-0.0937 0.6118,-0.1016 0.5825,-0.1016 q -0.0656,0 -0.1019,0.0416 -0.0362,0.0416 -0.0362,0.1166 0,0.0751 0.0362,0.1167 0.0363,0.0415 0.1019,0.0415 0.0293,0 0.058,-0.0078 0.0288,-0.0079 0.0573,-0.0237 l 0,0.0623 Q 0.6696,0.2588 0.6394,0.2654 0.6092,0.272 0.5751,0.272 0.4825,0.272 0.4279,0.2137 0.3733,0.1555 0.3733,0.0566 q 0,-0.1003 0.0552,-0.1578 0.0551,-0.0575 0.151,-0.0575 0.0312,0 0.0608,0.0064 0.0297,0.0064 0.0575,0.0192 z m 0.1146,-0.1754 0.0678,0 0,0.3366 0.201,-0.1769 0.0861,0 -0.2175,0.1919 0.2266,0.2182 -0.0878,0 -0.2084,-0.2003 0,0.2003 -0.0678,0 0,-0.5698 z m 0.4029,0.3344 0.1974,0 0,0.06 -0.1974,0 0,-0.06 z" />
  </g>
  <g
     style="font-size:0.75px;fill:#0000b2;stroke:#0000b2"
     id="g27"
     transform="matrix(50,0,0,50,795.1106,34.2679)"
     font-size="0.75">
    <path
       style="stroke:none"
       inkscape:connector-curvature="0"
       id="path29"
       d="m -0.4307,0.0093 q 0,-0.0732 -0.0302,-0.1135 -0.0302,-0.0403 -0.0847,-0.0403 -0.0542,0 -0.0845,0.0403 -0.0302,0.0403 -0.0302,0.1135 0,0.0729 0.0302,0.1132 0.0303,0.0403 0.0845,0.0403 0.0545,0 0.0847,-0.0403 0.0302,-0.0403 0.0302,-0.1132 z m 0.0674,0.159 q 0,0.1047 -0.0465,0.1558 -0.0465,0.0511 -0.1424,0.0511 -0.0356,0 -0.0671,-0.0053 -0.0315,-0.0053 -0.0611,-0.0163 l 0,-0.0656 q 0.0296,0.0161 0.0586,0.0238 0.0289,0.0077 0.0589,0.0077 0.0663,0 0.0993,-0.0346 0.0329,-0.0346 0.0329,-0.1045 l 0,-0.0334 q -0.0208,0.0363 -0.0534,0.0542 -0.0326,0.018 -0.078,0.018 -0.0755,0 -0.1216,-0.0575 -0.0462,-0.0575 -0.0462,-0.1524 0,-0.0952 0.0462,-0.1527 0.0461,-0.0575 0.1216,-0.0575 0.0454,0 0.078,0.018 0.0326,0.0179 0.0534,0.0542 l 0,-0.0623 0.0674,0 0,0.3593 z m 0.204,-0.0107 0,0.2176 -0.0678,0 0,-0.5662 0.0678,0 0,0.0623 q 0.0212,-0.0366 0.0537,-0.0544 0.0324,-0.0178 0.0774,-0.0178 0.0747,0 0.1214,0.0594 0.0467,0.0593 0.0467,0.156 0,0.0966 -0.0467,0.156 -0.0467,0.0593 -0.1214,0.0593 -0.045,0 -0.0774,-0.0178 Q -0.1381,0.1943 -0.1593,0.1576 Z M 0.0699,0.0145 q 0,-0.0744 -0.0305,-0.1167 -0.0306,-0.0423 -0.0841,-0.0423 -0.0534,0 -0.084,0.0423 -0.0306,0.0423 -0.0306,0.1167 0,0.0743 0.0306,0.1166 0.0306,0.0423 0.084,0.0423 0.0535,0 0.0841,-0.0423 0.0305,-0.0423 0.0305,-0.1166 z m 0.456,-0.2655 0,0.2039 0.204,0 0,0.0623 -0.204,0 0,0.204 -0.0615,0 0,-0.204 -0.204,0 0,-0.0623 0.204,0 0,-0.2039 0.0615,0 z" />
  </g>
  <g
     style="font-size:0.75px;fill:#b20000;stroke:#b20000"
     id="g31"
     transform="matrix(50,0,0,50,45.1106,34.2679)"
     font-size="0.75">
    <path
       style="stroke:none"
       inkscape:connector-curvature="0"
       id="path33"
       d="m -0.7022,0.0064 0,-0.2483 0.0674,0 0,0.2458 q 0,0.0582 0.0227,0.0873 0.0227,0.0291 0.0681,0.0291 0.0546,0 0.0862,-0.0348 0.0317,-0.0348 0.0317,-0.0948 l 0,-0.2326 0.0674,0 0,0.4102 -0.0674,0 0,-0.063 Q -0.4506,0.1427 -0.483,0.1608 -0.5154,0.1789 -0.5583,0.1789 -0.629,0.1789 -0.6656,0.135 -0.7022,0.091 -0.7022,0.0064 Z m 0.1696,-0.2582 0,0 z m 0.2644,0.0099 0.0714,0 0.1281,0.3443 0.1282,-0.3443 0.0714,0 -0.1538,0.4102 -0.0915,0 -0.1538,-0.4102 z m 0.7664,-0.06 0,0.204 0.204,0 0,0.0622 -0.204,0 0,0.204 -0.0615,0 0,-0.204 -0.204,0 0,-0.0622 0.204,0 0,-0.204 0.0615,0 z" />
  </g>
  <g
     style="font-size:0.75px;fill:#b20000;stroke:#b20000"
     id="g35"
     transform="matrix(50,0,0,50,1045.1106,34.2679)"
     font-size="0.75">
    <path
       style="stroke:none"
       inkscape:connector-curvature="0"
       id="path37"
       d="m -1.2713,0.0515 q 0,-0.0732 -0.0302,-0.1135 -0.0302,-0.0403 -0.0848,-0.0403 -0.0542,0 -0.0844,0.0403 -0.0302,0.0403 -0.0302,0.1135 0,0.0729 0.0302,0.1132 0.0302,0.0403 0.0844,0.0403 0.0546,0 0.0848,-0.0403 0.0302,-0.0403 0.0302,-0.1132 z m 0.0674,0.1589 q 0,0.1048 -0.0465,0.1559 -0.0465,0.051 -0.1425,0.051 -0.0355,0 -0.067,-0.0053 Q -1.4914,0.4067 -1.521,0.3958 l 0,-0.0656 q 0.0296,0.0161 0.0585,0.0238 0.029,0.0077 0.059,0.0077 0.0663,0 0.0992,-0.0346 0.033,-0.0346 0.033,-0.1046 l 0,-0.0333 q -0.0209,0.0363 -0.0535,0.0542 -0.0326,0.0179 -0.078,0.0179 -0.0754,0 -0.1216,-0.0574 -0.0461,-0.0575 -0.0461,-0.1524 0,-0.0952 0.0461,-0.1527 0.0462,-0.0575 0.1216,-0.0575 0.0454,0 0.078,0.0179 0.0326,0.018 0.0535,0.0542 l 0,-0.0622 0.0674,0 0,0.3592 z m 0.204,-0.0106 0,0.2175 -0.0678,0 0,-0.5661 0.0678,0 0,0.0622 q 0.0212,-0.0366 0.0536,-0.0543 0.0324,-0.0178 0.0775,-0.0178 0.0747,0 0.1214,0.0593 0.0467,0.0594 0.0467,0.156 0,0.0967 -0.0467,0.156 -0.0467,0.0594 -0.1214,0.0594 -0.0451,0 -0.0775,-0.0178 -0.0324,-0.0178 -0.0536,-0.0544 z m 0.2292,-0.1432 q 0,-0.0743 -0.0306,-0.1166 -0.0305,-0.0423 -0.084,-0.0423 -0.0535,0 -0.0841,0.0423 -0.0305,0.0423 -0.0305,0.1166 0,0.0744 0.0305,0.1167 0.0306,0.0423 0.0841,0.0423 0.0535,0 0.084,-0.0423 0.0306,-0.0423 0.0306,-0.1167 z m 0.4933,0.3293 0,0.0523 -0.3897,0 0,-0.0523 0.3897,0 z m 0.2498,-0.3307 q -0.0817,0 -0.1132,0.0186 -0.0315,0.0187 -0.0315,0.0638 0,0.0359 0.0236,0.0569 0.0236,0.0211 0.0643,0.0211 0.056,0 0.0899,-0.0398 0.0339,-0.0397 0.0339,-0.1056 l 0,-0.015 -0.067,0 z m 0.1344,-0.0279 0,0.234 -0.0674,0 0,-0.0622 Q 0.0163,0.2364 -0.0181,0.2542 -0.0526,0.272 -0.1024,0.272 q -0.0629,0 -0.1001,-0.0354 -0.0372,-0.0353 -0.0372,-0.0946 0,-0.0692 0.0463,-0.1044 0.0464,-0.0352 0.1383,-0.0352 l 0.0945,0 0,-0.0066 q 0,-0.0465 -0.0306,-0.0719 -0.0306,-0.0255 -0.0859,-0.0255 -0.0351,0 -0.0685,0.0085 -0.0333,0.0084 -0.064,0.0252 l 0,-0.0622 q 0.0369,-0.0143 0.0717,-0.0215 0.0348,-0.0071 0.0678,-0.0071 0.089,0 0.1329,0.0461 0.044,0.0462 0.044,0.1399 z m 0.4339,-0.1604 0,0.063 Q 0.5121,-0.0858 0.4834,-0.0937 0.4546,-0.1016 0.4254,-0.1016 q -0.0656,0 -0.1019,0.0416 -0.0362,0.0416 -0.0362,0.1166 0,0.0751 0.0362,0.1167 0.0363,0.0415 0.1019,0.0415 0.0292,0 0.058,-0.0078 0.0287,-0.0079 0.0573,-0.0237 l 0,0.0623 Q 0.5125,0.2588 0.4823,0.2654 0.4521,0.272 0.418,0.272 0.3254,0.272 0.2708,0.2137 0.2162,0.1555 0.2162,0.0566 q 0,-0.1003 0.0552,-0.1578 0.0551,-0.0575 0.151,-0.0575 0.0312,0 0.0608,0.0064 0.0297,0.0064 0.0575,0.0192 z m 0.1146,-0.1754 0.0678,0 0,0.3366 0.201,-0.1769 0.0861,0 -0.2175,0.1919 0.2266,0.2182 -0.0878,0 -0.2084,-0.2003 0,0.2003 -0.0678,0 0,-0.5698 z m 0.7112,0.0996 0,0.204 0.204,0 0,0.0623 -0.204,0 0,0.2039 -0.0615,0 0,-0.2039 -0.204,0 0,-0.0623 0.204,0 0,-0.204 0.0615,0 z" />
  </g>
  <g
     style="font-size:0.75px;fill:#b20000;stroke:#b20000"
     id="g39"
     transform="matrix(50,0,0,50,1295.1106,34.2679)"
     font-size="0.75">
    <path
       style="stroke:none"
       inkscape:connector-curvature="0"
       id="path41"
       d="m -0.5447,-0.0111 0,-0.2483 0.0673,0 0,0.2457 q 0,0.0582 0.0228,0.0873 0.0227,0.0292 0.0681,0.0292 0.0545,0 0.0862,-0.0348 0.0317,-0.0348 0.0317,-0.0949 l 0,-0.2325 0.0674,0 0,0.4101 -0.0674,0 0,-0.0629 q -0.0245,0.0373 -0.057,0.0554 -0.0324,0.0182 -0.0752,0.0182 -0.0707,0 -0.1073,-0.044 -0.0366,-0.0439 -0.0366,-0.1285 z m 0.1695,-0.2582 0,0 z m 0.2644,0.0099 0.0714,0 0.1282,0.3442 0.1282,-0.3442 0.0714,0 -0.1538,0.4101 -0.0916,0 -0.1538,-0.4101 z m 0.4582,0.1747 0.1973,0 0,0.06 -0.1973,0 0,-0.06 z" />
  </g>
  <g
     style="font-size:0.75px;fill:#0000b2;stroke:#0000b2"
     id="g43"
     transform="matrix(50,0,0,50,1045.1106,234.2679)"
     font-size="0.75">
    <path
       style="stroke:none"
       inkscape:connector-curvature="0"
       id="path45"
       d="m -0.2732,-0.0082 q 0,-0.0733 -0.0302,-0.1135 -0.0302,-0.0403 -0.0848,-0.0403 -0.0542,0 -0.0844,0.0403 -0.0302,0.0402 -0.0302,0.1135 0,0.0728 0.0302,0.1131 0.0302,0.0403 0.0844,0.0403 0.0546,0 0.0848,-0.0403 0.0302,-0.0403 0.0302,-0.1131 z m 0.0674,0.1589 q 0,0.1047 -0.0465,0.1558 -0.0465,0.0511 -0.1425,0.0511 -0.0355,0 -0.067,-0.0053 Q -0.4933,0.347 -0.5229,0.336 l 0,-0.0655 q 0.0296,0.0161 0.0585,0.0238 0.029,0.0077 0.059,0.0077 0.0663,0 0.0992,-0.0346 0.033,-0.0347 0.033,-0.1046 l 0,-0.0333 q -0.0209,0.0362 -0.0535,0.0542 -0.0326,0.0179 -0.078,0.0179 -0.0754,0 -0.1215,-0.0575 -0.0462,-0.0575 -0.0462,-0.1523 0,-0.0952 0.0462,-0.1527 0.0461,-0.0575 0.1215,-0.0575 0.0454,0 0.078,0.0179 0.0326,0.018 0.0535,0.0542 l 0,-0.0622 0.0674,0 0,0.3592 z m 0.204,-0.0106 0,0.2175 -0.0678,0 0,-0.5661 0.0678,0 0,0.0622 q 0.0212,-0.0366 0.0536,-0.0544 0.0324,-0.0177 0.0775,-0.0177 0.0747,0 0.1214,0.0593 0.0467,0.0593 0.0467,0.156 0,0.0967 -0.0467,0.156 Q 0.204,0.2122 0.1293,0.2122 0.0842,0.2122 0.0518,0.1945 0.0194,0.1767 -0.0018,0.1401 Z m 0.2292,-0.1432 q 0,-0.0743 -0.0306,-0.1166 -0.0305,-0.0423 -0.084,-0.0423 -0.0535,0 -0.0841,0.0423 -0.0305,0.0423 -0.0305,0.1166 0,0.0743 0.0305,0.1166 0.0306,0.0423 0.0841,0.0423 0.0535,0 0.084,-0.0423 0.0306,-0.0423 0.0306,-0.1166 z m 0.1476,-0.0308 0.1974,0 0,0.0601 -0.1974,0 0,-0.0601 z" />
  </g>
  <g
     style="font-size:0.75px;fill:#b20000;stroke:#b20000"
     id="g47"
     transform="matrix(50,0,0,50,795.1106,234.2679)"
     font-size="0.75">
    <path
       style="stroke:none"
       inkscape:connector-curvature="0"
       id="path49"
       d="m -1.1138,0.0515 q 0,-0.0732 -0.0302,-0.1135 -0.0303,-0.0403 -0.0848,-0.0403 -0.0542,0 -0.0844,0.0403 -0.0302,0.0403 -0.0302,0.1135 0,0.0729 0.0302,0.1132 0.0302,0.0403 0.0844,0.0403 0.0545,0 0.0848,-0.0403 0.0302,-0.0403 0.0302,-0.1132 z m 0.0673,0.1589 q 0,0.1048 -0.0465,0.1559 -0.0465,0.051 -0.1424,0.051 -0.0355,0 -0.067,-0.0053 -0.0315,-0.0053 -0.0612,-0.0162 l 0,-0.0656 q 0.0297,0.0161 0.0586,0.0238 0.0289,0.0077 0.059,0.0077 0.0662,0 0.0992,-0.0346 0.033,-0.0346 0.033,-0.1046 l 0,-0.0333 q -0.0209,0.0363 -0.0535,0.0542 -0.0326,0.0179 -0.078,0.0179 -0.0754,0 -0.1216,-0.0574 -0.0461,-0.0575 -0.0461,-0.1524 0,-0.0952 0.0461,-0.1527 0.0462,-0.0575 0.1216,-0.0575 0.0454,0 0.078,0.0179 0.0326,0.018 0.0535,0.0542 l 0,-0.0622 0.0673,0 0,0.3592 z m 0.204,-0.0106 0,0.2175 -0.0677,0 0,-0.5661 0.0677,0 0,0.0622 q 0.0213,-0.0366 0.0537,-0.0543 0.0324,-0.0178 0.0774,-0.0178 0.0747,0 0.1214,0.0593 0.0467,0.0594 0.0467,0.156 0,0.0967 -0.0467,0.156 -0.0467,0.0594 -0.1214,0.0594 -0.045,0 -0.0774,-0.0178 -0.0324,-0.0178 -0.0537,-0.0544 z m 0.2293,-0.1432 q 0,-0.0743 -0.0306,-0.1166 -0.0306,-0.0423 -0.084,-0.0423 -0.0535,0 -0.0841,0.0423 -0.0306,0.0423 -0.0306,0.1166 0,0.0744 0.0306,0.1167 0.0306,0.0423 0.0841,0.0423 0.0534,0 0.084,-0.0423 0.0306,-0.0423 0.0306,-0.1167 z m 0.4933,0.3293 0,0.0523 -0.3897,0 0,-0.0523 0.3897,0 z M 0.1298,0.0552 q -0.0816,0 -0.1131,0.0186 -0.0315,0.0187 -0.0315,0.0638 0,0.0359 0.0236,0.0569 0.0236,0.0211 0.0643,0.0211 0.056,0 0.0899,-0.0398 0.0338,-0.0397 0.0338,-0.1056 l 0,-0.015 -0.067,0 z m 0.1344,-0.0279 0,0.234 -0.0674,0 0,-0.0622 Q 0.1738,0.2364 0.1393,0.2542 0.1049,0.272 0.0551,0.272 q -0.063,0 -0.1001,-0.0354 -0.0372,-0.0353 -0.0372,-0.0946 0,-0.0692 0.0463,-0.1044 0.0463,-0.0352 0.1383,-0.0352 l 0.0944,0 0,-0.0066 q 0,-0.0465 -0.0305,-0.0719 -0.0306,-0.0255 -0.0859,-0.0255 -0.0352,0 -0.0685,0.0085 -0.0333,0.0084 -0.0641,0.0252 l 0,-0.0622 q 0.037,-0.0143 0.0718,-0.0215 0.0348,-0.0071 0.0677,-0.0071 0.089,0 0.133,0.0461 0.0439,0.0462 0.0439,0.1399 z m 0.434,-0.1604 0,0.063 Q 0.6696,-0.0858 0.6409,-0.0937 0.6121,-0.1016 0.5828,-0.1016 q -0.0655,0 -0.1018,0.0416 -0.0362,0.0416 -0.0362,0.1166 0,0.0751 0.0362,0.1167 0.0363,0.0415 0.1018,0.0415 0.0293,0 0.0581,-0.0078 0.0287,-0.0079 0.0573,-0.0237 l 0,0.0623 Q 0.67,0.2588 0.6398,0.2654 0.6096,0.272 0.5755,0.272 0.4829,0.272 0.4283,0.2137 0.3737,0.1555 0.3737,0.0566 q 0,-0.1003 0.0551,-0.1578 0.0551,-0.0575 0.1511,-0.0575 0.0311,0 0.0608,0.0064 0.0297,0.0064 0.0575,0.0192 z m 0.1146,-0.1754 0.0677,0 0,0.3366 0.2011,-0.1769 0.0861,0 -0.2176,0.1919 0.2267,0.2182 -0.0879,0 -0.2084,-0.2003 0,0.2003 -0.0677,0 0,-0.5698 z m 0.4028,0.3344 0.1974,0 0,0.06 -0.1974,0 0,-0.06 z" />
  </g>
  <g
     style="font-size:0.75px;fill:#b20000;stroke:#b20000"
     id="g51"
     transform="matrix(50,0,0,50,1295.1106,234.2679)"
     font-size="0.75">
    <path
       style="stroke:none"
       inkscape:connector-curvature="0"
       id="path53"
       d="m -0.5012,-0.1946 q -0.0542,0 -0.0857,0.0423 -0.0315,0.0423 -0.0315,0.1159 0,0.0736 0.0314,0.1159 0.0313,0.0423 0.0858,0.0423 0.0539,0 0.0854,-0.0425 0.0315,-0.0425 0.0315,-0.1157 0,-0.0729 -0.0315,-0.1156 -0.0315,-0.0426 -0.0854,-0.0426 z m 0,-0.0572 q 0.0879,0 0.1381,0.0572 0.0502,0.0571 0.0502,0.1582 0,0.1007 -0.0502,0.158 -0.0502,0.0573 -0.1381,0.0573 -0.0882,0 -0.1382,-0.0573 -0.05,-0.0573 -0.05,-0.158 0,-0.1011 0.05,-0.1582 0.05,-0.0572 0.1382,-0.0572 z m 0.5951,0.0257 0,0.063 q -0.0285,-0.0158 -0.0573,-0.0237 -0.0287,-0.0078 -0.058,-0.0078 -0.0656,0 -0.1018,0.0415 -0.0363,0.0416 -0.0363,0.1167 0,0.0751 0.0363,0.1166 0.0362,0.0416 0.1018,0.0416 0.0293,0 0.058,-0.0079 Q 0.0654,0.106 0.0939,0.0903 l 0,0.0622 Q 0.0657,0.1657 0.0355,0.1723 0.0053,0.1789 -0.0287,0.1789 q -0.0927,0 -0.1473,-0.0582 -0.0545,-0.0582 -0.0545,-0.1571 0,-0.1004 0.0551,-0.1579 0.0551,-0.0575 0.1511,-0.0575 0.0311,0 0.0607,0.0065 0.0297,0.0064 0.0575,0.0192 z m 0.3915,-0.0758 0,0.204 0.204,0 0,0.0622 -0.204,0 0,0.204 -0.0615,0 0,-0.204 -0.204,0 0,-0.0622 0.204,0 0,-0.204 0.0615,0 z" />
  </g>
  <g
     style="font-size:0.75px;fill:#b20000;stroke:#b20000"
     id="g55"
     transform="matrix(50,0,0,50,295.1106,134.2679)"
     font-size="0.75">
    <path
       style="stroke:none"
       inkscape:connector-curvature="0"
       id="path57"
       d="m -0.6522,-0.2419 0.32,0 0,0.0616 -0.2534,0.2948 0.2534,0 0,0.0538 -0.3292,0 0,-0.0615 0.2534,-0.2948 -0.2442,0 0,-0.0539 z m 0.7181,0.0158 0,0.063 q -0.0286,-0.0158 -0.0573,-0.0237 -0.0288,-0.0078 -0.058,-0.0078 -0.0656,0 -0.1019,0.0415 -0.0362,0.0416 -0.0362,0.1167 0,0.0751 0.0362,0.1166 0.0363,0.0416 0.1019,0.0416 0.0292,0 0.058,-0.0079 Q 0.0373,0.106 0.0659,0.0903 l 0,0.0622 q -0.0282,0.0132 -0.0584,0.0198 -0.0302,0.0066 -0.0643,0.0066 -0.0926,0 -0.1472,-0.0582 -0.0546,-0.0582 -0.0546,-0.1571 0,-0.1004 0.0552,-0.1579 0.0551,-0.0575 0.151,-0.0575 0.0312,0 0.0608,0.0065 0.0297,0.0064 0.0575,0.0192 z m 0.3915,-0.0758 0,0.204 0.204,0 0,0.0622 -0.204,0 0,0.204 -0.0615,0 0,-0.204 -0.204,0 0,-0.0622 0.204,0 0,-0.204 0.0615,0 z" />
  </g>
  <g
     style="font-size:0.75px;fill:#b20000;stroke:#b20000"
     id="g59"
     transform="matrix(50,0,0,50,1045.1106,134.2679)"
     font-size="0.75">
    <path
       style="stroke:none"
       inkscape:connector-curvature="0"
       id="path61"
       d="m -0.4948,-0.2594 0.3201,0 0,0.0615 -0.2534,0.2948 0.2534,0 0,0.0538 -0.3292,0 0,-0.0615 0.2534,-0.2948 -0.2443,0 0,-0.0538 z m 0.7182,0.0157 0,0.063 Q 0.1948,-0.1964 0.1661,-0.2043 0.1373,-0.2122 0.108,-0.2122 q -0.0655,0 -0.1018,0.0416 -0.0362,0.0416 -0.0362,0.1166 0,0.0751 0.0362,0.1167 0.0363,0.0415 0.1018,0.0415 0.0293,0 0.0581,-0.0078 0.0287,-0.0079 0.0573,-0.0237 l 0,0.0623 Q 0.1952,0.1482 0.165,0.1548 0.1348,0.1614 0.1007,0.1614 q -0.0926,0 -0.1472,-0.0583 -0.0546,-0.0582 -0.0546,-0.1571 0,-0.1003 0.0551,-0.1578 0.0551,-0.0575 0.1511,-0.0575 0.0311,0 0.0608,0.0064 0.0297,0.0064 0.0575,0.0192 z m 0.0831,0.159 0.1974,0 0,0.06 -0.1974,0 0,-0.06 z" />
  </g>
  <g
     style="font-size:0.75px;stroke-width:0.02"
     id="g63"
     transform="matrix(50,0,0,50,795.1106,534.2679)"
     font-size="0.75">
    <path
       style="fill:none"
       inkscape:connector-curvature="0"
       id="path65"
       d="m -5.8295,-6 -2.1004,0" />
    <path
       style="stroke:none"
       inkscape:connector-curvature="0"
       id="path67"
       d="m -7.9299,-5.925 0,-0.15 -0.4,0.075 z" />
  </g>
  <g
     style="font-size:0.75px;stroke-width:0.02"
     id="g69"
     transform="matrix(50,0,0,50,795.1106,534.2679)"
     font-size="0.75">
    <path
       style="fill:none"
       inkscape:connector-curvature="0"
       id="path71"
       d="m -11.6701,-6 -2.298,0" />
    <path
       style="stroke:none"
       inkscape:connector-curvature="0"
       id="path73"
       d="m -13.9681,-5.925 0,-0.15 -0.4,0.075 z" />
  </g>
  <g
     style="font-size:0.75px;stroke-width:0.02"
     id="g75"
     transform="matrix(50,0,0,50,795.1106,534.2679)"
     font-size="0.75">
    <path
       style="fill:none"
       inkscape:connector-curvature="0"
       id="path77"
       d="m -9.328,-10 2.4153,0" />
    <path
       style="stroke:none"
       inkscape:connector-curvature="0"
       id="path79"
       d="m -6.9127,-10.075 0,0.15 0.4,-0.075 z" />
  </g>
  <g
     style="font-size:0.75px;stroke-width:0.02"
     id="g81"
     transform="matrix(50,0,0,50,795.1106,534.2679)"
     font-size="0.75">
    <path
       style="fill:none"
       inkscape:connector-curvature="0"
       id="path83"
       d="m -3.4873,-10 2.2574,0" />
    <path
       style="stroke:none"
       inkscape:connector-curvature="0"
       id="path85"
       d="m -1.2299,-10.075 0,0.15 0.4,-0.075 z" />
  </g>
  <g
     style="font-size:0.75px;stroke-width:0.02"
     id="g87"
     transform="matrix(50,0,0,50,45.1106,134.2679)"
     font-size="0.75">
    <circle
       style="stroke:none"
       id="circle89"
       r="0.2105"
       cy="0"
       cx="0" />
  </g>
  <g
     style="font-size:0.75px;stroke-width:0.02"
     id="g91"
     transform="matrix(50,0,0,50,795.1106,534.2679)"
     font-size="0.75">
    <path
       style="fill:none"
       inkscape:connector-curvature="0"
       id="path93"
       d="m -15,-6.3799 0,-2.8076" />
    <path
       style="stroke:none"
       inkscape:connector-curvature="0"
       id="path95"
       d="m -15.075,-9.1875 0.15,0 -0.075,-0.4 z" />
  </g>
  <g
     style="font-size:0.75px;stroke-width:0.02"
     id="g97"
     transform="matrix(50,0,0,50,795.1106,534.2679)"
     font-size="0.75">
    <path
       style="fill:none"
       inkscape:connector-curvature="0"
       id="path99"
       d="m 0.8299,-10 2.0996,0" />
    <path
       style="stroke:none"
       inkscape:connector-curvature="0"
       id="path101"
       d="m 2.9295,-10.075 0,0.15 0.4,-0.075 z" />
  </g>
  <g
     style="font-size:0.75px;stroke-width:0.02"
     id="g103"
     transform="matrix(50,0,0,50,795.1106,534.2679)"
     font-size="0.75">
    <path
       style="fill:none"
       inkscape:connector-curvature="0"
       id="path105"
       d="m 6.6705,-10 2.2848,0" />
    <path
       style="stroke:none"
       inkscape:connector-curvature="0"
       id="path107"
       d="m 8.9553,-10.075 0,0.15 0.4,-0.075 z" />
  </g>
  <g
     style="font-size:0.75px;stroke-width:0.02"
     id="g109"
     transform="matrix(50,0,0,50,795.1106,534.2679)"
     font-size="0.75">
    <path
       style="fill:none"
       inkscape:connector-curvature="0"
       id="path111"
       d="M 4.3276,-6 1.913,-6" />
    <path
       style="stroke:none"
       inkscape:connector-curvature="0"
       id="path113"
       d="m 1.913,-5.925 0,-0.15 -0.4,0.075 z" />
  </g>
  <g
     style="font-size:0.75px;stroke-width:0.02"
     id="g115"
     transform="matrix(50,0,0,50,795.1106,534.2679)"
     font-size="0.75">
    <path
       style="fill:none"
       inkscape:connector-curvature="0"
       id="path117"
       d="m -1.513,-6 -2.2575,0" />
    <path
       style="stroke:none"
       inkscape:connector-curvature="0"
       id="path119"
       d="m -3.7705,-5.925 0,-0.15 -0.4,0.075 z" />
  </g>
  <g
     style="font-size:0.75px;stroke-width:0.02"
     id="g125"
     transform="matrix(50,0,0,50,795.1106,534.2679)"
     font-size="0.75">
    <path
       style="fill:none"
       inkscape:connector-curvature="0"
       id="path127"
       d="m 10,-9.6201 0,2.8076" />
    <path
       style="stroke:none"
       inkscape:connector-curvature="0"
       id="path129"
       d="m 10.075,-6.8125 -0.15,0 0.075,0.4 z" />
  </g>
  <g
     style="font-size:0.75px;stroke-width:0.02"
     id="g131"
     transform="matrix(50,0,0,50,795.1106,534.2679)"
     font-size="0.75">
    <path
       style="fill:none"
       inkscape:connector-curvature="0"
       id="path133"
       d="M 9.2106,-6 6.0724,-6" />
    <path
       style="stroke:none"
       inkscape:connector-curvature="0"
       id="path135"
       d="m 6.0724,-5.925 0,-0.15 -0.4,0.075 z" />
  </g>
  <g
     style="font-size:0.75px;stroke-width:0.02"
     id="g137"
     transform="matrix(50,0,0,50,795.1106,534.2679)"
     font-size="0.75">
    <path
       style="fill:none"
       inkscape:connector-curvature="0"
       id="path139"
       d="m -14.1978,-10 3.1258,0" />
    <path
       style="stroke:none"
       inkscape:connector-curvature="0"
       id="path141"
       d="m -11.072,-10.075 0,0.15 0.4,-0.075 z" />
  </g>
  <g
     style="font-size:0.75px;stroke-width:0.02"
     id="g143"
     transform="matrix(50,0,0,50,795.1106,534.2679)"
     font-size="0.75">
    <path
       style="fill:none"
       inkscape:connector-curvature="0"
       id="path145"
       d="m -14.1978,-9.6791 3.065,1.226" />
    <path
       style="stroke:none"
       inkscape:connector-curvature="0"
       id="path147"
       d="m -11.1049,-8.5227 -0.0557,0.1392 0.3992,0.079 z" />
  </g>
  <g
     style="font-size:0.75px;stroke-width:0.02"
     id="g149"
     transform="matrix(50,0,0,50,795.1106,534.2679)"
     font-size="0.75">
    <path
       style="fill:none"
       inkscape:connector-curvature="0"
       id="path151"
       d="M -9.2386,-8 3.9961,-8" />
    <path
       style="stroke:none"
       inkscape:connector-curvature="0"
       id="path153"
       d="m 3.9961,-8.075 0,0.15 0.4,-0.075 z" />
  </g>
  <g
     style="font-size:0.75px;stroke-width:0.02"
     id="g155"
     transform="matrix(50,0,0,50,795.1106,534.2679)"
     font-size="0.75">
    <path
       style="fill:none"
       inkscape:connector-curvature="0"
       id="path157"
       d="m 5.6039,-8.2416 3.38,-1.3519" />
    <path
       style="stroke:none"
       inkscape:connector-curvature="0"
       id="path159"
       d="m 8.956,-9.6632 0.0557,0.1393 0.3436,-0.2182 z" />
  </g>
</svg>
