<?xml version="1.0" encoding="UTF-8" standalone="no"?>
<svg
   xmlns:dc="http://purl.org/dc/elements/1.1/"
   xmlns:cc="http://creativecommons.org/ns#"
   xmlns:rdf="http://www.w3.org/1999/02/22-rdf-syntax-ns#"
   xmlns:svg="http://www.w3.org/2000/svg"
   xmlns="http://www.w3.org/2000/svg"
   xmlns:sodipodi="http://sodipodi.sourceforge.net/DTD/sodipodi-0.dtd"
   xmlns:inkscape="http://www.inkscape.org/namespaces/inkscape"
   color-interpolation="auto"
   color-rendering="auto"
   font-size="12"
   font-style="normal"
   font-weight="normal"
   height="653.15997"
   image-rendering="auto"
   shape-rendering="auto"
   stroke-miterlimit="10"
   text-rendering="auto"
   width="1350"
   id="svg2"
   version="1.1"
   inkscape:version="0.48.4 r9939"
   sodipodi:docname="stg-buck.svg"
   style="font-size:12px;font-style:normal;font-weight:normal;fill:#000000;fill-opacity:1;stroke:#000000;stroke-width:1;stroke-linecap:square;stroke-linejoin:miter;stroke-miterlimit:10;stroke-opacity:1;stroke-dasharray:none;stroke-dashoffset:0;font-family:Dialog">
  <metadata
     id="metadata393">
    <rdf:RDF>
      <cc:Work
         rdf:about="">
        <dc:format>image/svg+xml</dc:format>
        <dc:type
           rdf:resource="http://purl.org/dc/dcmitype/StillImage" />
      </cc:Work>
    </rdf:RDF>
  </metadata>
  <sodipodi:namedview
     pagecolor="#ffffff"
     bordercolor="#666666"
     borderopacity="1"
     objecttolerance="10"
     gridtolerance="10"
     guidetolerance="10"
     inkscape:pageopacity="0"
     inkscape:pageshadow="2"
     inkscape:window-width="640"
     inkscape:window-height="480"
     id="namedview391"
     showgrid="false"
     fit-margin-top="0"
     fit-margin-left="0"
     fit-margin-right="0"
     fit-margin-bottom="0"
     inkscape:zoom="0.23235294"
     inkscape:cx="675"
     inkscape:cy="322.41"
     inkscape:window-x="0"
     inkscape:window-y="24"
     inkscape:window-maximized="0"
     inkscape:current-layer="svg2" />
  <!--Generated by the Batik Graphics2D SVG Generator-->
  <defs
     id="genericDefs" />
  <g
     id="g5"
     transform="translate(-5.0000006,-3.7500047)">
    <g
       font-size="0.75"
       transform="matrix(50,0,0,50,1180,635)"
       id="g7"
       style="font-size:0.75px;fill:#b20000;stroke:#b20000">
      <path
         d="m -0.5012,-0.1946 q -0.0542,0 -0.0857,0.0423 -0.0315,0.0423 -0.0315,0.1159 0,0.0736 0.0314,0.1159 0.0313,0.0423 0.0858,0.0423 0.0539,0 0.0854,-0.0425 0.0315,-0.0425 0.0315,-0.1157 0,-0.0729 -0.0315,-0.1156 -0.0315,-0.0426 -0.0854,-0.0426 z m 0,-0.0572 q 0.0879,0 0.1381,0.0572 0.0502,0.0571 0.0502,0.1582 0,0.1007 -0.0502,0.158 -0.0502,0.0573 -0.1381,0.0573 -0.0882,0 -0.1382,-0.0573 -0.05,-0.0573 -0.05,-0.158 0,-0.1011 0.05,-0.1582 0.05,-0.0572 0.1382,-0.0572 z m 0.5951,0.0257 0,0.063 q -0.0285,-0.0158 -0.0573,-0.0237 -0.0287,-0.0078 -0.058,-0.0078 -0.0656,0 -0.1018,0.0415 -0.0363,0.0416 -0.0363,0.1167 0,0.0751 0.0363,0.1166 0.0362,0.0416 0.1018,0.0416 0.0293,0 0.058,-0.0079 Q 0.0654,0.106 0.0939,0.0903 l 0,0.0622 Q 0.0657,0.1657 0.0355,0.1723 0.0053,0.1789 -0.0287,0.1789 q -0.0927,0 -0.1473,-0.0582 -0.0545,-0.0582 -0.0545,-0.1571 0,-0.1004 0.0551,-0.1579 0.0551,-0.0575 0.1511,-0.0575 0.0311,0 0.0607,0.0065 0.0297,0.0064 0.0575,0.0192 z m 0.3915,-0.0758 0,0.204 0.204,0 0,0.0622 -0.204,0 0,0.204 -0.0615,0 0,-0.204 -0.204,0 0,-0.0622 0.204,0 0,-0.204 0.0615,0 z"
         id="path9"
         inkscape:connector-curvature="0"
         style="stroke:none" />
    </g>
    <g
       font-size="0.75"
       transform="matrix(50,0,0,50,980,635)"
       id="g11"
       style="font-size:0.75px;fill:#0000b2;stroke:#0000b2">
      <path
         d="m -0.2732,-0.0082 q 0,-0.0733 -0.0302,-0.1135 -0.0302,-0.0403 -0.0848,-0.0403 -0.0542,0 -0.0844,0.0403 -0.0302,0.0402 -0.0302,0.1135 0,0.0728 0.0302,0.1131 0.0302,0.0403 0.0844,0.0403 0.0546,0 0.0848,-0.0403 0.0302,-0.0403 0.0302,-0.1131 z m 0.0674,0.1589 q 0,0.1047 -0.0465,0.1558 -0.0465,0.0511 -0.1425,0.0511 -0.0355,0 -0.067,-0.0053 Q -0.4933,0.347 -0.5229,0.336 l 0,-0.0655 q 0.0296,0.0161 0.0585,0.0238 0.029,0.0077 0.059,0.0077 0.0663,0 0.0992,-0.0346 0.033,-0.0347 0.033,-0.1046 l 0,-0.0333 q -0.0209,0.0362 -0.0535,0.0542 -0.0326,0.0179 -0.078,0.0179 -0.0754,0 -0.1215,-0.0575 -0.0462,-0.0575 -0.0462,-0.1523 0,-0.0952 0.0462,-0.1527 0.0461,-0.0575 0.1215,-0.0575 0.0454,0 0.078,0.0179 0.0326,0.018 0.0535,0.0542 l 0,-0.0622 0.0674,0 0,0.3592 z m 0.204,-0.0106 0,0.2175 -0.0678,0 0,-0.5661 0.0678,0 0,0.0622 q 0.0212,-0.0366 0.0536,-0.0544 0.0324,-0.0177 0.0775,-0.0177 0.0747,0 0.1214,0.0593 0.0467,0.0593 0.0467,0.156 0,0.0967 -0.0467,0.156 Q 0.204,0.2122 0.1293,0.2122 0.0842,0.2122 0.0518,0.1945 0.0194,0.1767 -0.0018,0.1401 z m 0.2292,-0.1432 q 0,-0.0743 -0.0306,-0.1166 -0.0305,-0.0423 -0.084,-0.0423 -0.0535,0 -0.0841,0.0423 -0.0305,0.0423 -0.0305,0.1166 0,0.0743 0.0305,0.1166 0.0306,0.0423 0.0841,0.0423 0.0535,0 0.084,-0.0423 0.0306,-0.0423 0.0306,-0.1166 z m 0.1476,-0.0308 0.1974,0 0,0.0601 -0.1974,0 0,-0.0601 z"
         id="path13"
         inkscape:connector-curvature="0"
         style="stroke:none" />
    </g>
    <g
       font-size="0.75"
       transform="matrix(50,0,0,50,180,635)"
       id="g15"
       style="font-size:0.75px;fill:#b20000;stroke:#b20000">
      <path
         d="m -0.3437,-0.2122 q -0.0542,0 -0.0857,0.0423 -0.0315,0.0423 -0.0315,0.1159 0,0.0736 0.0313,0.1159 0.0313,0.0423 0.0859,0.0423 0.0538,0 0.0853,-0.0425 0.0315,-0.0424 0.0315,-0.1157 0,-0.0729 -0.0315,-0.1155 -0.0315,-0.0427 -0.0853,-0.0427 z m 0,-0.0571 q 0.0879,0 0.1381,0.0571 0.0501,0.0572 0.0501,0.1582 0,0.1007 -0.0501,0.158 -0.0502,0.0574 -0.1381,0.0574 -0.0882,0 -0.1382,-0.0574 -0.05,-0.0573 -0.05,-0.158 0,-0.101 0.05,-0.1582 0.05,-0.0571 0.1382,-0.0571 z m 0.5951,0.0256 0,0.063 Q 0.2228,-0.1964 0.1941,-0.2043 0.1653,-0.2122 0.136,-0.2122 q -0.0655,0 -0.1018,0.0416 -0.0362,0.0416 -0.0362,0.1166 0,0.0751 0.0362,0.1167 0.0363,0.0415 0.1018,0.0415 0.0293,0 0.0581,-0.0078 0.0287,-0.0079 0.0573,-0.0237 l 0,0.0623 Q 0.2232,0.1482 0.193,0.1548 0.1628,0.1614 0.1287,0.1614 q -0.0926,0 -0.1472,-0.0583 -0.0546,-0.0582 -0.0546,-0.1571 0,-0.1003 0.0552,-0.1578 0.0551,-0.0575 0.151,-0.0575 0.0311,0 0.0608,0.0064 0.0297,0.0064 0.0575,0.0192 z m 0.0831,0.159 0.1974,0 0,0.06 -0.1974,0 0,-0.06 z"
         id="path17"
         inkscape:connector-curvature="0"
         style="stroke:none" />
    </g>
    <g
       font-size="0.75"
       transform="matrix(50,0,0,50,580,635)"
       id="g19"
       style="font-size:0.75px;fill:#0000b2;stroke:#0000b2">
      <path
         d="m -0.4303,0.0093 q 0,-0.0732 -0.0302,-0.1135 -0.0302,-0.0403 -0.0848,-0.0403 -0.0542,0 -0.0844,0.0403 -0.0302,0.0403 -0.0302,0.1135 0,0.0729 0.0302,0.1132 0.0302,0.0403 0.0844,0.0403 0.0546,0 0.0848,-0.0403 0.0302,-0.0403 0.0302,-0.1132 z m 0.0674,0.159 q 0,0.1047 -0.0465,0.1558 -0.0465,0.0511 -0.1425,0.0511 -0.0355,0 -0.067,-0.0053 Q -0.6504,0.3646 -0.68,0.3536 l 0,-0.0656 q 0.0296,0.0161 0.0585,0.0238 0.029,0.0077 0.059,0.0077 0.0663,0 0.0992,-0.0346 0.033,-0.0346 0.033,-0.1045 l 0,-0.0334 q -0.0209,0.0363 -0.0535,0.0542 -0.0326,0.018 -0.078,0.018 -0.0754,0 -0.1215,-0.0575 -0.0462,-0.0575 -0.0462,-0.1524 0,-0.0952 0.0462,-0.1527 0.0461,-0.0575 0.1215,-0.0575 0.0454,0 0.078,0.018 0.0326,0.0179 0.0535,0.0542 l 0,-0.0623 0.0674,0 0,0.3593 z m 0.4797,-0.1967 0,0.2476 -0.0674,0 0,-0.2454 q 0,-0.0582 -0.0227,-0.0871 -0.0227,-0.029 -0.0681,-0.029 -0.0545,0 -0.086,0.0348 -0.0315,0.0348 -0.0315,0.0949 l 0,0.2318 -0.0678,0 0,-0.4102 0.0678,0 0,0.0637 q 0.0241,-0.0369 0.0569,-0.0553 0.0328,-0.0183 0.0756,-0.0183 0.0707,0 0.107,0.0438 0.0362,0.0438 0.0362,0.1287 z m 0.4087,-0.2226 0,0.2039 0.204,0 0,0.0623 -0.204,0 0,0.204 -0.0615,0 0,-0.204 -0.204,0 0,-0.0623 0.204,0 0,-0.2039 0.0615,0 z"
         id="path21"
         inkscape:connector-curvature="0"
         style="stroke:none" />
    </g>
    <g
       font-size="0.75"
       transform="matrix(50,0,0,50,780,635)"
       id="g23"
       style="font-size:0.75px;fill:#b20000;stroke:#b20000">
      <path
         d="m -1.1138,0.0515 q 0,-0.0732 -0.0302,-0.1135 -0.0303,-0.0403 -0.0848,-0.0403 -0.0542,0 -0.0844,0.0403 -0.0302,0.0403 -0.0302,0.1135 0,0.0729 0.0302,0.1132 0.0302,0.0403 0.0844,0.0403 0.0545,0 0.0848,-0.0403 0.0302,-0.0403 0.0302,-0.1132 z m 0.0673,0.1589 q 0,0.1048 -0.0465,0.1559 -0.0465,0.051 -0.1424,0.051 -0.0355,0 -0.067,-0.0053 -0.0315,-0.0053 -0.0612,-0.0162 l 0,-0.0656 q 0.0297,0.0161 0.0586,0.0238 0.0289,0.0077 0.059,0.0077 0.0662,0 0.0992,-0.0346 0.033,-0.0346 0.033,-0.1046 l 0,-0.0333 q -0.0209,0.0363 -0.0535,0.0542 -0.0326,0.0179 -0.078,0.0179 -0.0754,0 -0.1216,-0.0574 -0.0461,-0.0575 -0.0461,-0.1524 0,-0.0952 0.0461,-0.1527 0.0462,-0.0575 0.1216,-0.0575 0.0454,0 0.078,0.0179 0.0326,0.018 0.0535,0.0542 l 0,-0.0622 0.0673,0 0,0.3592 z m 0.204,-0.0106 0,0.2175 -0.0677,0 0,-0.5661 0.0677,0 0,0.0622 q 0.0213,-0.0366 0.0537,-0.0543 0.0324,-0.0178 0.0774,-0.0178 0.0747,0 0.1214,0.0593 0.0467,0.0594 0.0467,0.156 0,0.0967 -0.0467,0.156 -0.0467,0.0594 -0.1214,0.0594 -0.045,0 -0.0774,-0.0178 -0.0324,-0.0178 -0.0537,-0.0544 z m 0.2293,-0.1432 q 0,-0.0743 -0.0306,-0.1166 -0.0306,-0.0423 -0.084,-0.0423 -0.0535,0 -0.0841,0.0423 -0.0306,0.0423 -0.0306,0.1166 0,0.0744 0.0306,0.1167 0.0306,0.0423 0.0841,0.0423 0.0534,0 0.084,-0.0423 0.0306,-0.0423 0.0306,-0.1167 z m 0.4933,0.3293 0,0.0523 -0.3897,0 0,-0.0523 0.3897,0 z M 0.1298,0.0552 q -0.0816,0 -0.1131,0.0186 -0.0315,0.0187 -0.0315,0.0638 0,0.0359 0.0236,0.0569 0.0236,0.0211 0.0643,0.0211 0.056,0 0.0899,-0.0398 0.0338,-0.0397 0.0338,-0.1056 l 0,-0.015 -0.067,0 z m 0.1344,-0.0279 0,0.234 -0.0674,0 0,-0.0622 Q 0.1738,0.2364 0.1393,0.2542 0.1049,0.272 0.0551,0.272 q -0.063,0 -0.1001,-0.0354 -0.0372,-0.0353 -0.0372,-0.0946 0,-0.0692 0.0463,-0.1044 0.0463,-0.0352 0.1383,-0.0352 l 0.0944,0 0,-0.0066 q 0,-0.0465 -0.0305,-0.0719 -0.0306,-0.0255 -0.0859,-0.0255 -0.0352,0 -0.0685,0.0085 -0.0333,0.0084 -0.0641,0.0252 l 0,-0.0622 q 0.037,-0.0143 0.0718,-0.0215 0.0348,-0.0071 0.0677,-0.0071 0.089,0 0.133,0.0461 0.0439,0.0462 0.0439,0.1399 z m 0.434,-0.1604 0,0.063 Q 0.6696,-0.0858 0.6409,-0.0937 0.6121,-0.1016 0.5828,-0.1016 q -0.0655,0 -0.1018,0.0416 -0.0362,0.0416 -0.0362,0.1166 0,0.0751 0.0362,0.1167 0.0363,0.0415 0.1018,0.0415 0.0293,0 0.0581,-0.0078 0.0287,-0.0079 0.0573,-0.0237 l 0,0.0623 Q 0.67,0.2588 0.6398,0.2654 0.6096,0.272 0.5755,0.272 0.4829,0.272 0.4283,0.2137 0.3737,0.1555 0.3737,0.0566 q 0,-0.1003 0.0551,-0.1578 0.0551,-0.0575 0.1511,-0.0575 0.0311,0 0.0608,0.0064 0.0297,0.0064 0.0575,0.0192 z m 0.1146,-0.1754 0.0677,0 0,0.3366 0.2011,-0.1769 0.0861,0 -0.2176,0.1919 0.2267,0.2182 -0.0879,0 -0.2084,-0.2003 0,0.2003 -0.0677,0 0,-0.5698 z m 0.4028,0.3344 0.1974,0 0,0.06 -0.1974,0 0,-0.06 z"
         id="path25"
         inkscape:connector-curvature="0"
         style="stroke:none" />
    </g>
    <g
       font-size="0.75"
       transform="matrix(50,0,0,50,380,635)"
       id="g27"
       style="font-size:0.75px;fill:#b20000;stroke:#b20000">
      <path
         d="m -1.2709,0.0515 q 0,-0.0732 -0.0302,-0.1135 -0.0303,-0.0403 -0.0848,-0.0403 -0.0542,0 -0.0844,0.0403 -0.0302,0.0403 -0.0302,0.1135 0,0.0729 0.0302,0.1132 0.0302,0.0403 0.0844,0.0403 0.0545,0 0.0848,-0.0403 0.0302,-0.0403 0.0302,-0.1132 z m 0.0673,0.1589 q 0,0.1048 -0.0465,0.1559 -0.0465,0.051 -0.1424,0.051 -0.0355,0 -0.067,-0.0053 Q -1.491,0.4067 -1.5207,0.3958 l 0,-0.0656 q 0.0297,0.0161 0.0586,0.0238 0.0289,0.0077 0.059,0.0077 0.0662,0 0.0992,-0.0346 0.033,-0.0346 0.033,-0.1046 l 0,-0.0333 q -0.0209,0.0363 -0.0535,0.0542 -0.0326,0.0179 -0.078,0.0179 -0.0754,0 -0.1216,-0.0574 -0.0461,-0.0575 -0.0461,-0.1524 0,-0.0952 0.0461,-0.1527 0.0462,-0.0575 0.1216,-0.0575 0.0454,0 0.078,0.0179 0.0326,0.018 0.0535,0.0542 l 0,-0.0622 0.0673,0 0,0.3592 z m 0.4798,-0.1966 0,0.2475 -0.0674,0 0,-0.2453 q 0,-0.0582 -0.0227,-0.0872 -0.0227,-0.0289 -0.0681,-0.0289 -0.0546,0 -0.0861,0.0348 -0.0315,0.0348 -0.0315,0.0948 l 0,0.2318 -0.0677,0 0,-0.4101 0.0677,0 0,0.0637 q 0.0242,-0.037 0.057,-0.0553 0.0328,-0.0183 0.0756,-0.0183 0.0707,0 0.1069,0.0438 0.0363,0.0437 0.0363,0.1287 z m 0.446,0.3721 0,0.0523 -0.3896,0 0,-0.0523 0.3896,0 z M -0.028,0.0552 q -0.0817,0 -0.1132,0.0186 -0.0315,0.0187 -0.0315,0.0638 0,0.0359 0.0237,0.0569 0.0236,0.0211 0.0642,0.0211 0.0561,0 0.0899,-0.0398 Q 0.039,0.1361 0.039,0.0702 l 0,-0.015 -0.067,0 z m 0.1344,-0.0279 0,0.234 -0.0674,0 0,-0.0622 Q 0.0159,0.2364 -0.0185,0.2542 -0.0529,0.272 -0.1027,0.272 -0.1657,0.272 -0.2029,0.2366 -0.24,0.2013 -0.24,0.142 q 0,-0.0692 0.0463,-0.1044 0.0463,-0.0352 0.1382,-0.0352 l 0.0945,0 0,-0.0066 q 0,-0.0465 -0.0306,-0.0719 -0.0306,-0.0255 -0.0859,-0.0255 -0.0351,0 -0.0684,0.0085 -0.0334,0.0084 -0.0641,0.0252 l 0,-0.0622 q 0.037,-0.0143 0.0718,-0.0215 0.0347,-0.0071 0.0677,-0.0071 0.089,0 0.1329,0.0461 0.044,0.0462 0.044,0.1399 z m 0.4339,-0.1604 0,0.063 Q 0.5118,-0.0858 0.483,-0.0937 0.4543,-0.1016 0.425,-0.1016 q -0.0656,0 -0.1018,0.0416 -0.0363,0.0416 -0.0363,0.1166 0,0.0751 0.0363,0.1167 0.0362,0.0415 0.1018,0.0415 0.0293,0 0.058,-0.0078 0.0288,-0.0079 0.0573,-0.0237 l 0,0.0623 Q 0.5121,0.2588 0.4819,0.2654 0.4517,0.272 0.4177,0.272 0.325,0.272 0.2704,0.2137 0.2159,0.1555 0.2159,0.0566 q 0,-0.1003 0.0551,-0.1578 0.0551,-0.0575 0.1511,-0.0575 0.0311,0 0.0608,0.0064 0.0296,0.0064 0.0574,0.0192 z m 0.1147,-0.1754 0.0677,0 0,0.3366 0.2011,-0.1769 0.086,0 -0.2175,0.1919 0.2267,0.2182 -0.0879,0 -0.2084,-0.2003 0,0.2003 -0.0677,0 0,-0.5698 z m 0.7111,0.0996 0,0.204 0.204,0 0,0.0623 -0.204,0 0,0.2039 -0.0615,0 0,-0.2039 -0.204,0 0,-0.0623 0.204,0 0,-0.204 0.0615,0 z"
         id="path29"
         inkscape:connector-curvature="0"
         style="stroke:none" />
    </g>
    <g
       font-size="0.75"
       transform="matrix(50,0,0,50,30,285)"
       id="g31"
       style="font-size:0.75px;fill:#ffffff;stroke:#ffffff">
      <circle
         cx="0"
         cy="0"
         r="0.44999999"
         id="circle33"
         d="M 0.44999999,0 C 0.44999999,0.24852813 0.24852813,0.44999999 0,0.44999999 -0.24852813,0.44999999 -0.44999999,0.24852813 -0.44999999,0 c 0,-0.24852813 0.20147186,-0.44999999 0.44999999,-0.44999999 0.24852813,0 0.44999999,0.20147186 0.44999999,0.44999999 z"
         sodipodi:cx="0"
         sodipodi:cy="0"
         sodipodi:rx="0.44999999"
         sodipodi:ry="0.44999999"
         style="stroke:none" />
      <circle
         cx="0"
         cy="0"
         r="0.44999999"
         id="circle35"
         d="M 0.44999999,0 C 0.44999999,0.24852813 0.24852813,0.44999999 0,0.44999999 -0.24852813,0.44999999 -0.44999999,0.24852813 -0.44999999,0 c 0,-0.24852813 0.20147186,-0.44999999 0.44999999,-0.44999999 0.24852813,0 0.44999999,0.20147186 0.44999999,0.44999999 z"
         sodipodi:cx="0"
         sodipodi:cy="0"
         sodipodi:rx="0.44999999"
         sodipodi:ry="0.44999999"
         style="fill:none;stroke:#000000;stroke-width:0.1" />
      <circle
         cx="0"
         cy="0"
         r="0.26320001"
         id="circle37"
         d="M 0.26320001,0 C 0.26320001,0.14536135 0.14536135,0.26320001 0,0.26320001 -0.14536135,0.26320001 -0.26320001,0.14536135 -0.26320001,0 c 0,-0.14536135 0.11783866,-0.26320001 0.26320001,-0.26320001 0.14536135,0 0.26320001,0.11783866 0.26320001,0.26320001 z"
         sodipodi:cx="0"
         sodipodi:cy="0"
         sodipodi:rx="0.26320001"
         sodipodi:ry="0.26320001"
         style="fill:#000000;stroke:none" />
    </g>
    <g
       font-size="0.5"
       font-style="italic"
       transform="matrix(50,0,0,50,30,285)"
       id="g39"
       style="font-size:0.5px;font-style:italic;fill:#0000b2;stroke:#0000b2;stroke-width:0.1">
      <path
         d="m -0.2142,-0.8816 -0.0253,0.1451 -0.0452,0 0.0661,-0.3775 0.0451,0 -0.0072,0.0415 q 0.0184,-0.0244 0.0421,-0.0362 0.0236,-0.0119 0.0537,-0.0119 0.0498,0 0.074,0.0396 0.0242,0.0395 0.0129,0.104 -0.0113,0.0644 -0.0493,0.104 -0.0381,0.0395 -0.0879,0.0395 -0.03,0 -0.0495,-0.0118 -0.0196,-0.0119 -0.0295,-0.0363 z m 0.1696,-0.0954 q 0.0087,-0.0496 -0.0068,-0.0778 -0.0154,-0.0282 -0.0511,-0.0282 -0.0356,0 -0.061,0.0282 -0.0253,0.0282 -0.0339,0.0778 -0.0087,0.0495 0.0067,0.0777 0.0155,0.0282 0.0511,0.0282 0.0357,0 0.061,-0.0282 0.0253,-0.0282 0.034,-0.0777 z m 0.1194,0.095 0.0805,0 0.0487,-0.2781 -0.0907,0.0176 0.0078,-0.045 0.0903,-0.0175 0.0493,0 -0.0566,0.323 0.0806,0 -0.0073,0.0415 -0.2099,0 0.0073,-0.0415 z"
         id="path41"
         inkscape:connector-curvature="0"
         style="stroke:none" />
    </g>
    <g
       font-size="0.5"
       font-style="italic"
       transform="matrix(50,0,0,50,1330,285)"
       id="g43"
       style="font-size:0.5px;font-style:italic;fill:#ffffff;stroke:#ffffff;stroke-width:0.1">
      <circle
         cx="0"
         cy="0"
         r="0.44999999"
         id="circle45"
         d="M 0.44999999,0 C 0.44999999,0.24852813 0.24852813,0.44999999 0,0.44999999 -0.24852813,0.44999999 -0.44999999,0.24852813 -0.44999999,0 c 0,-0.24852813 0.20147186,-0.44999999 0.44999999,-0.44999999 0.24852813,0 0.44999999,0.20147186 0.44999999,0.44999999 z"
         sodipodi:cx="0"
         sodipodi:cy="0"
         sodipodi:rx="0.44999999"
         sodipodi:ry="0.44999999"
         style="stroke:none" />
      <circle
         cx="0"
         cy="0"
         r="0.44999999"
         id="circle47"
         d="M 0.44999999,0 C 0.44999999,0.24852813 0.24852813,0.44999999 0,0.44999999 -0.24852813,0.44999999 -0.44999999,0.24852813 -0.44999999,0 c 0,-0.24852813 0.20147186,-0.44999999 0.44999999,-0.44999999 0.24852813,0 0.44999999,0.20147186 0.44999999,0.44999999 z"
         sodipodi:cx="0"
         sodipodi:cy="0"
         sodipodi:rx="0.44999999"
         sodipodi:ry="0.44999999"
         style="fill:none;stroke:#000000" />
      <path
         d="m -0.2351,-0.8835 -0.0254,0.145 -0.0452,0 0.0661,-0.3775 0.0452,0 -0.0073,0.0415 q 0.0184,-0.0244 0.0421,-0.0362 0.0237,-0.0119 0.0537,-0.0119 0.0498,0 0.074,0.0396 0.0242,0.0396 0.013,0.104 -0.0113,0.0645 -0.0494,0.104 -0.038,0.0396 -0.0878,0.0396 -0.03,0 -0.0496,-0.0119 -0.0195,-0.0118 -0.0294,-0.0362 z m 0.1695,-0.0955 q 0.0087,-0.0496 -0.0067,-0.0778 -0.0155,-0.0282 -0.0511,-0.0282 -0.0357,0 -0.061,0.0282 -0.0253,0.0282 -0.034,0.0778 -0.0087,0.0496 0.0068,0.0778 0.0154,0.0282 0.0511,0.0282 0.0356,0 0.0609,-0.0282 0.0254,-0.0282 0.034,-0.0778 z m 0.1533,0.095 0.1721,0 -0.0072,0.0415 -0.2315,0 0.0073,-0.0415 q 0.0332,-0.0291 0.0902,-0.078 0.057,-0.049 0.072,-0.0632 0.0283,-0.0266 0.0409,-0.045 0.0126,-0.0184 0.0158,-0.0362 0.005,-0.0291 -0.0121,-0.0474 -0.0172,-0.0183 -0.0499,-0.0183 -0.0232,0 -0.0504,0.008 -0.0272,0.0081 -0.0593,0.0244 l 0.0087,-0.0498 q 0.0319,-0.0119 0.0588,-0.018 0.027,-0.0061 0.0485,-0.0061 0.0566,0 0.0853,0.0283 0.0288,0.0283 0.0205,0.0757 -0.004,0.0224 -0.0159,0.0426 -0.0119,0.0201 -0.0389,0.0475 -0.0074,0.0071 -0.046,0.0409 -0.0387,0.0338 -0.1089,0.0946 z"
         id="path49"
         inkscape:connector-curvature="0"
         style="fill:#0000b2;stroke:none" />
    </g>
    <g
       font-size="0.5"
       font-style="italic"
       stroke-miterlimit="1"
       transform="matrix(50,0,0,50,1480,285)"
       id="g51"
       style="font-size:0.5px;font-style:italic;fill:#808080;stroke:#808080;stroke-width:0.05;stroke-miterlimit:1;stroke-dasharray:0.2, 0.2">
      <rect
         height="3.2853999"
         width="21.7449"
         x="-27.0002"
         y="-5.5999999"
         id="rect53"
         style="fill:none" />
    </g>
    <g
       font-size="0.75"
       stroke-miterlimit="1"
       transform="matrix(50,0,0,50,180,135)"
       id="g55"
       style="font-size:0.75px;fill:#b20000;stroke:#b20000;stroke-width:0.05;stroke-miterlimit:1;stroke-dasharray:0.2, 0.2">
      <path
         d="m -0.7022,0.0064 0,-0.2483 0.0674,0 0,0.2458 q 0,0.0582 0.0227,0.0873 0.0227,0.0291 0.0681,0.0291 0.0546,0 0.0862,-0.0348 0.0317,-0.0348 0.0317,-0.0948 l 0,-0.2326 0.0674,0 0,0.4102 -0.0674,0 0,-0.063 Q -0.4506,0.1427 -0.483,0.1608 -0.5154,0.1789 -0.5583,0.1789 -0.629,0.1789 -0.6656,0.135 -0.7022,0.091 -0.7022,0.0064 z m 0.434,-0.2483 0.0714,0 0.1281,0.3443 0.1282,-0.3443 0.0714,0 -0.1538,0.4102 -0.0915,0 -0.1538,-0.4102 z m 0.7664,-0.06 0,0.204 0.204,0 0,0.0622 -0.204,0 0,0.204 -0.0615,0 0,-0.204 -0.204,0 0,-0.0622 0.204,0 0,-0.204 0.0615,0 z"
         id="path57"
         inkscape:connector-curvature="0"
         style="stroke:none" />
    </g>
    <g
       font-size="0.75"
       stroke-miterlimit="1"
       transform="matrix(50,0,0,50,380,135)"
       id="g59"
       style="font-size:0.75px;fill:#0000b2;stroke:#0000b2;stroke-width:0.05;stroke-miterlimit:1;stroke-dasharray:0.2, 0.2">
      <path
         d="m -0.2728,-0.0082 q 0,-0.0733 -0.0302,-0.1135 -0.0302,-0.0403 -0.0848,-0.0403 -0.0542,0 -0.0844,0.0403 -0.0302,0.0402 -0.0302,0.1135 0,0.0728 0.0302,0.1131 0.0302,0.0403 0.0844,0.0403 0.0546,0 0.0848,-0.0403 0.0302,-0.0403 0.0302,-0.1131 z m 0.0673,0.1589 q 0,0.1047 -0.0465,0.1558 -0.0465,0.0511 -0.1424,0.0511 -0.0355,0 -0.067,-0.0053 Q -0.4929,0.347 -0.5226,0.336 l 0,-0.0655 q 0.0297,0.0161 0.0586,0.0238 0.0289,0.0077 0.059,0.0077 0.0663,0 0.0992,-0.0346 0.033,-0.0347 0.033,-0.1046 l 0,-0.0333 q -0.0209,0.0362 -0.0535,0.0542 -0.0326,0.0179 -0.078,0.0179 -0.0754,0 -0.1216,-0.0575 -0.0461,-0.0575 -0.0461,-0.1523 0,-0.0952 0.0461,-0.1527 0.0462,-0.0575 0.1216,-0.0575 0.0454,0 0.078,0.0179 0.0326,0.018 0.0535,0.0542 l 0,-0.0622 0.0673,0 0,0.3592 z m 0.4798,-0.1966 0,0.2475 -0.0674,0 0,-0.2453 q 0,-0.0583 -0.0227,-0.0872 -0.0227,-0.0289 -0.0681,-0.0289 -0.0546,0 -0.0861,0.0348 -0.0315,0.0347 -0.0315,0.0948 l 0,0.2318 -0.0677,0 0,-0.4101 0.0677,0 0,0.0637 q 0.0242,-0.037 0.057,-0.0553 0.0328,-0.0183 0.0756,-0.0183 0.0707,0 0.1069,0.0437 0.0363,0.0438 0.0363,0.1288 z m 0.1003,0.012 0.1974,0 0,0.0601 -0.1974,0 0,-0.0601 z"
         id="path61"
         inkscape:connector-curvature="0"
         style="stroke:none" />
    </g>
    <g
       font-size="0.75"
       stroke-miterlimit="1"
       transform="matrix(50,0,0,50,580,135)"
       id="g63"
       style="font-size:0.75px;fill:#b20000;stroke:#b20000;stroke-width:0.05;stroke-miterlimit:1;stroke-dasharray:0.2, 0.2">
      <path
         d="m -1.1135,0.0515 q 0,-0.0732 -0.0302,-0.1135 -0.0302,-0.0403 -0.0847,-0.0403 -0.0542,0 -0.0845,0.0403 -0.0302,0.0403 -0.0302,0.1135 0,0.0729 0.0302,0.1132 0.0303,0.0403 0.0845,0.0403 0.0545,0 0.0847,-0.0403 0.0302,-0.0403 0.0302,-0.1132 z m 0.0674,0.1589 q 0,0.1048 -0.0465,0.1559 -0.0465,0.051 -0.1424,0.051 -0.0356,0 -0.0671,-0.0053 -0.0315,-0.0053 -0.0611,-0.0162 l 0,-0.0656 q 0.0296,0.0161 0.0586,0.0238 0.0289,0.0077 0.0589,0.0077 0.0663,0 0.0993,-0.0346 0.0329,-0.0346 0.0329,-0.1046 l 0,-0.0333 q -0.0208,0.0363 -0.0534,0.0542 -0.0326,0.0179 -0.078,0.0179 -0.0755,0 -0.1216,-0.0574 -0.0462,-0.0575 -0.0462,-0.1524 0,-0.0952 0.0462,-0.1527 0.0461,-0.0575 0.1216,-0.0575 0.0454,0 0.078,0.0179 0.0326,0.018 0.0534,0.0542 l 0,-0.0622 0.0674,0 0,0.3592 z m 0.4798,-0.1966 0,0.2475 -0.0674,0 0,-0.2453 q 0,-0.0582 -0.0227,-0.0872 -0.0227,-0.0289 -0.0681,-0.0289 -0.0546,0 -0.0861,0.0348 -0.0315,0.0348 -0.0315,0.0948 l 0,0.2318 -0.0678,0 0,-0.4101 0.0678,0 0,0.0637 q 0.0242,-0.037 0.0569,-0.0553 0.0328,-0.0183 0.0757,-0.0183 0.0706,0 0.1069,0.0438 0.0363,0.0437 0.0363,0.1287 z m 0.446,0.3721 0,0.0523 -0.3897,0 0,-0.0523 0.3897,0 z M 0.1295,0.0552 q -0.0817,0 -0.1132,0.0186 -0.0315,0.0187 -0.0315,0.0638 0,0.0359 0.0236,0.0569 0.0236,0.0211 0.0643,0.0211 0.056,0 0.0899,-0.0398 0.0339,-0.0397 0.0339,-0.1056 l 0,-0.015 -0.067,0 z m 0.1344,-0.0279 0,0.234 -0.0674,0 0,-0.0622 Q 0.1734,0.2364 0.139,0.2542 0.1045,0.272 0.0548,0.272 q -0.063,0 -0.1002,-0.0354 -0.0372,-0.0353 -0.0372,-0.0946 0,-0.0692 0.0464,-0.1044 Q 0.0101,0.0024 0.102,0.0024 l 0.0945,0 0,-0.0066 q 0,-0.0465 -0.0306,-0.0719 -0.0306,-0.0255 -0.0859,-0.0255 -0.0351,0 -0.0685,0.0085 -0.0333,0.0084 -0.064,0.0252 l 0,-0.0622 q 0.0369,-0.0143 0.0717,-0.0215 0.0348,-0.0071 0.0678,-0.0071 0.089,0 0.1329,0.0461 0.044,0.0462 0.044,0.1399 z m 0.4339,-0.1604 0,0.063 Q 0.6693,-0.0858 0.6405,-0.0937 0.6118,-0.1016 0.5825,-0.1016 q -0.0656,0 -0.1019,0.0416 -0.0362,0.0416 -0.0362,0.1166 0,0.0751 0.0362,0.1167 0.0363,0.0415 0.1019,0.0415 0.0293,0 0.058,-0.0078 0.0288,-0.0079 0.0573,-0.0237 l 0,0.0623 Q 0.6696,0.2588 0.6394,0.2654 0.6092,0.272 0.5751,0.272 0.4825,0.272 0.4279,0.2137 0.3733,0.1555 0.3733,0.0566 q 0,-0.1003 0.0552,-0.1578 0.0551,-0.0575 0.151,-0.0575 0.0312,0 0.0608,0.0064 0.0297,0.0064 0.0575,0.0192 z m 0.1146,-0.1754 0.0678,0 0,0.3366 0.201,-0.1769 0.0861,0 -0.2175,0.1919 0.2266,0.2182 -0.0878,0 -0.2084,-0.2003 0,0.2003 -0.0678,0 0,-0.5698 z m 0.4029,0.3344 0.1974,0 0,0.06 -0.1974,0 0,-0.06 z"
         id="path65"
         inkscape:connector-curvature="0"
         style="stroke:none" />
    </g>
    <g
       font-size="0.75"
       stroke-miterlimit="1"
       transform="matrix(50,0,0,50,380,35)"
       id="g67"
       style="font-size:0.75px;fill:#b20000;stroke:#b20000;stroke-width:0.05;stroke-miterlimit:1;stroke-dasharray:0.2, 0.2">
      <path
         d="m -0.6522,-0.2419 0.32,0 0,0.0616 -0.2534,0.2948 0.2534,0 0,0.0538 -0.3292,0 0,-0.0615 0.2534,-0.2948 -0.2442,0 0,-0.0539 z m 0.7181,0.0158 0,0.063 q -0.0286,-0.0158 -0.0573,-0.0237 -0.0288,-0.0078 -0.058,-0.0078 -0.0656,0 -0.1019,0.0415 -0.0362,0.0416 -0.0362,0.1167 0,0.0751 0.0362,0.1166 0.0363,0.0416 0.1019,0.0416 0.0292,0 0.058,-0.0079 Q 0.0373,0.106 0.0659,0.0903 l 0,0.0622 q -0.0282,0.0132 -0.0584,0.0198 -0.0302,0.0066 -0.0643,0.0066 -0.0926,0 -0.1472,-0.0582 -0.0546,-0.0582 -0.0546,-0.1571 0,-0.1004 0.0552,-0.1579 0.0551,-0.0575 0.151,-0.0575 0.0312,0 0.0608,0.0065 0.0297,0.0064 0.0575,0.0192 z m 0.3915,-0.0758 0,0.204 0.204,0 0,0.0622 -0.204,0 0,0.204 -0.0615,0 0,-0.204 -0.204,0 0,-0.0622 0.204,0 0,-0.204 0.0615,0 z"
         id="path69"
         inkscape:connector-curvature="0"
         style="stroke:none" />
    </g>
    <g
       font-size="0.75"
       stroke-miterlimit="1"
       transform="matrix(50,0,0,50,780,135)"
       id="g71"
       style="font-size:0.75px;fill:#0000b2;stroke:#0000b2;stroke-width:0.05;stroke-miterlimit:1;stroke-dasharray:0.2, 0.2">
      <path
         d="m -0.4307,0.0093 q 0,-0.0732 -0.0302,-0.1135 -0.0302,-0.0403 -0.0847,-0.0403 -0.0542,0 -0.0845,0.0403 -0.0302,0.0403 -0.0302,0.1135 0,0.0729 0.0302,0.1132 0.0303,0.0403 0.0845,0.0403 0.0545,0 0.0847,-0.0403 0.0302,-0.0403 0.0302,-0.1132 z m 0.0674,0.159 q 0,0.1047 -0.0465,0.1558 -0.0465,0.0511 -0.1424,0.0511 -0.0356,0 -0.0671,-0.0053 -0.0315,-0.0053 -0.0611,-0.0163 l 0,-0.0656 q 0.0296,0.0161 0.0586,0.0238 0.0289,0.0077 0.0589,0.0077 0.0663,0 0.0993,-0.0346 0.0329,-0.0346 0.0329,-0.1045 l 0,-0.0334 q -0.0208,0.0363 -0.0534,0.0542 -0.0326,0.018 -0.078,0.018 -0.0755,0 -0.1216,-0.0575 -0.0462,-0.0575 -0.0462,-0.1524 0,-0.0952 0.0462,-0.1527 0.0461,-0.0575 0.1216,-0.0575 0.0454,0 0.078,0.018 0.0326,0.0179 0.0534,0.0542 l 0,-0.0623 0.0674,0 0,0.3593 z m 0.204,-0.0107 0,0.2176 -0.0678,0 0,-0.5662 0.0678,0 0,0.0623 q 0.0212,-0.0366 0.0537,-0.0544 0.0324,-0.0178 0.0774,-0.0178 0.0747,0 0.1214,0.0594 0.0467,0.0593 0.0467,0.156 0,0.0966 -0.0467,0.156 -0.0467,0.0593 -0.1214,0.0593 -0.045,0 -0.0774,-0.0178 Q -0.1381,0.1943 -0.1593,0.1576 z M 0.0699,0.0145 q 0,-0.0744 -0.0305,-0.1167 -0.0306,-0.0423 -0.0841,-0.0423 -0.0534,0 -0.084,0.0423 -0.0306,0.0423 -0.0306,0.1167 0,0.0743 0.0306,0.1166 0.0306,0.0423 0.084,0.0423 0.0535,0 0.0841,-0.0423 0.0305,-0.0423 0.0305,-0.1166 z m 0.456,-0.2655 0,0.2039 0.204,0 0,0.0623 -0.204,0 0,0.204 -0.0615,0 0,-0.204 -0.204,0 0,-0.0623 0.204,0 0,-0.2039 0.0615,0 z"
         id="path73"
         inkscape:connector-curvature="0"
         style="stroke:none" />
    </g>
    <g
       font-size="0.75"
       stroke-miterlimit="1"
       transform="matrix(50,0,0,50,980,35)"
       id="g75"
       style="font-size:0.75px;fill:#b20000;stroke:#b20000;stroke-width:0.05;stroke-miterlimit:1;stroke-dasharray:0.2, 0.2">
      <path
         d="m -0.4948,-0.2594 0.3201,0 0,0.0615 -0.2534,0.2948 0.2534,0 0,0.0538 -0.3292,0 0,-0.0615 0.2534,-0.2948 -0.2443,0 0,-0.0538 z m 0.7182,0.0157 0,0.063 Q 0.1948,-0.1964 0.1661,-0.2043 0.1373,-0.2122 0.108,-0.2122 q -0.0655,0 -0.1018,0.0416 -0.0362,0.0416 -0.0362,0.1166 0,0.0751 0.0362,0.1167 0.0363,0.0415 0.1018,0.0415 0.0293,0 0.0581,-0.0078 0.0287,-0.0079 0.0573,-0.0237 l 0,0.0623 Q 0.1952,0.1482 0.165,0.1548 0.1348,0.1614 0.1007,0.1614 q -0.0926,0 -0.1472,-0.0583 -0.0546,-0.0582 -0.0546,-0.1571 0,-0.1003 0.0551,-0.1578 0.0551,-0.0575 0.1511,-0.0575 0.0311,0 0.0608,0.0064 0.0297,0.0064 0.0575,0.0192 z m 0.0831,0.159 0.1974,0 0,0.06 -0.1974,0 0,-0.06 z"
         id="path77"
         inkscape:connector-curvature="0"
         style="stroke:none" />
    </g>
    <g
       font-size="0.75"
       stroke-miterlimit="1"
       transform="matrix(50,0,0,50,980,135)"
       id="g79"
       style="font-size:0.75px;fill:#b20000;stroke:#b20000;stroke-width:0.05;stroke-miterlimit:1;stroke-dasharray:0.2, 0.2">
      <path
         d="m -1.2713,0.0515 q 0,-0.0732 -0.0302,-0.1135 -0.0302,-0.0403 -0.0848,-0.0403 -0.0542,0 -0.0844,0.0403 -0.0302,0.0403 -0.0302,0.1135 0,0.0729 0.0302,0.1132 0.0302,0.0403 0.0844,0.0403 0.0546,0 0.0848,-0.0403 0.0302,-0.0403 0.0302,-0.1132 z m 0.0674,0.1589 q 0,0.1048 -0.0465,0.1559 -0.0465,0.051 -0.1425,0.051 -0.0355,0 -0.067,-0.0053 Q -1.4914,0.4067 -1.521,0.3958 l 0,-0.0656 q 0.0296,0.0161 0.0585,0.0238 0.029,0.0077 0.059,0.0077 0.0663,0 0.0992,-0.0346 0.033,-0.0346 0.033,-0.1046 l 0,-0.0333 q -0.0209,0.0363 -0.0535,0.0542 -0.0326,0.0179 -0.078,0.0179 -0.0754,0 -0.1216,-0.0574 -0.0461,-0.0575 -0.0461,-0.1524 0,-0.0952 0.0461,-0.1527 0.0462,-0.0575 0.1216,-0.0575 0.0454,0 0.078,0.0179 0.0326,0.018 0.0535,0.0542 l 0,-0.0622 0.0674,0 0,0.3592 z m 0.204,-0.0106 0,0.2175 -0.0678,0 0,-0.5661 0.0678,0 0,0.0622 q 0.0212,-0.0366 0.0536,-0.0543 0.0324,-0.0178 0.0775,-0.0178 0.0747,0 0.1214,0.0593 0.0467,0.0594 0.0467,0.156 0,0.0967 -0.0467,0.156 -0.0467,0.0594 -0.1214,0.0594 -0.0451,0 -0.0775,-0.0178 -0.0324,-0.0178 -0.0536,-0.0544 z m 0.2292,-0.1432 q 0,-0.0743 -0.0306,-0.1166 -0.0305,-0.0423 -0.084,-0.0423 -0.0535,0 -0.0841,0.0423 -0.0305,0.0423 -0.0305,0.1166 0,0.0744 0.0305,0.1167 0.0306,0.0423 0.0841,0.0423 0.0535,0 0.084,-0.0423 0.0306,-0.0423 0.0306,-0.1167 z m 0.4933,0.3293 0,0.0523 -0.3897,0 0,-0.0523 0.3897,0 z m 0.2498,-0.3307 q -0.0817,0 -0.1132,0.0186 -0.0315,0.0187 -0.0315,0.0638 0,0.0359 0.0236,0.0569 0.0236,0.0211 0.0643,0.0211 0.056,0 0.0899,-0.0398 0.0339,-0.0397 0.0339,-0.1056 l 0,-0.015 -0.067,0 z m 0.1344,-0.0279 0,0.234 -0.0674,0 0,-0.0622 Q 0.0163,0.2364 -0.0181,0.2542 -0.0526,0.272 -0.1024,0.272 q -0.0629,0 -0.1001,-0.0354 -0.0372,-0.0353 -0.0372,-0.0946 0,-0.0692 0.0463,-0.1044 0.0464,-0.0352 0.1383,-0.0352 l 0.0945,0 0,-0.0066 q 0,-0.0465 -0.0306,-0.0719 -0.0306,-0.0255 -0.0859,-0.0255 -0.0351,0 -0.0685,0.0085 -0.0333,0.0084 -0.064,0.0252 l 0,-0.0622 q 0.0369,-0.0143 0.0717,-0.0215 0.0348,-0.0071 0.0678,-0.0071 0.089,0 0.1329,0.0461 0.044,0.0462 0.044,0.1399 z m 0.4339,-0.1604 0,0.063 Q 0.5121,-0.0858 0.4834,-0.0937 0.4546,-0.1016 0.4254,-0.1016 q -0.0656,0 -0.1019,0.0416 -0.0362,0.0416 -0.0362,0.1166 0,0.0751 0.0362,0.1167 0.0363,0.0415 0.1019,0.0415 0.0292,0 0.058,-0.0078 0.0287,-0.0079 0.0573,-0.0237 l 0,0.0623 Q 0.5125,0.2588 0.4823,0.2654 0.4521,0.272 0.418,0.272 0.3254,0.272 0.2708,0.2137 0.2162,0.1555 0.2162,0.0566 q 0,-0.1003 0.0552,-0.1578 0.0551,-0.0575 0.151,-0.0575 0.0312,0 0.0608,0.0064 0.0297,0.0064 0.0575,0.0192 z m 0.1146,-0.1754 0.0678,0 0,0.3366 0.201,-0.1769 0.0861,0 -0.2175,0.1919 0.2266,0.2182 -0.0878,0 -0.2084,-0.2003 0,0.2003 -0.0678,0 0,-0.5698 z m 0.7112,0.0996 0,0.204 0.204,0 0,0.0623 -0.204,0 0,0.2039 -0.0615,0 0,-0.2039 -0.204,0 0,-0.0623 0.204,0 0,-0.204 0.0615,0 z"
         id="path81"
         inkscape:connector-curvature="0"
         style="stroke:none" />
    </g>
    <g
       font-size="0.75"
       stroke-miterlimit="1"
       transform="matrix(50,0,0,50,1180,135)"
       id="g83"
       style="font-size:0.75px;fill:#b20000;stroke:#b20000;stroke-width:0.05;stroke-miterlimit:1;stroke-dasharray:0.2, 0.2">
      <path
         d="m -0.5447,-0.0146 0,-0.2483 0.0673,0 0,0.2458 q 0,0.0582 0.0228,0.0873 0.0227,0.0291 0.0681,0.0291 0.0545,0 0.0862,-0.0348 0.0317,-0.0348 0.0317,-0.0948 l 0,-0.2326 0.0674,0 0,0.4102 -0.0674,0 0,-0.063 q -0.0245,0.0373 -0.057,0.0555 -0.0324,0.0181 -0.0752,0.0181 -0.0707,0 -0.1073,-0.0439 -0.0366,-0.044 -0.0366,-0.1286 z m 0.4339,-0.2483 0.0714,0 0.1282,0.3443 0.1282,-0.3443 0.0714,0 -0.1538,0.4102 -0.0916,0 -0.1538,-0.4102 z m 0.4582,0.1747 0.1973,0 0,0.0601 -0.1973,0 0,-0.0601 z"
         id="path85"
         inkscape:connector-curvature="0"
         style="stroke:none" />
    </g>
    <g
       font-size="0.75"
       stroke-miterlimit="1"
       transform="matrix(50,0,0,50,183.125,35)"
       id="g87"
       style="font-size:0.75px;fill:#ffffc8;stroke:#ffffc8;stroke-width:0.05;stroke-miterlimit:1;stroke-dasharray:0.2, 0.2">
      <rect
         height="1.2"
         width="2.1252999"
         x="-1.0627"
         y="-0.60000002"
         id="rect89"
         style="stroke:none" />
      <rect
         height="1.2"
         width="2.1252999"
         x="-1.0627"
         y="-0.60000002"
         id="rect91"
         style="fill:none;stroke:#808080;stroke-width:0.02" />
    </g>
    <g
       font-size="0.5"
       stroke-miterlimit="1"
       transform="matrix(50,0,0,50,183.125,35)"
       id="g93"
       style="font-size:0.5px;stroke-width:0.02;stroke-miterlimit:1;stroke-dasharray:0.2, 0.2">
      <path
         d="m -0.8627,-0.2445 0.045,0 0,0.3799 -0.045,0 0,-0.3799 z m 0.2632,0.2425 q -0.0544,0 -0.0754,0.0124 -0.021,0.0125 -0.021,0.0425 0,0.0239 0.0157,0.038 0.0158,0.014 0.0429,0.014 0.0373,0 0.0599,-0.0265 0.0226,-0.0265 0.0226,-0.0704 l 0,-0.01 -0.0447,0 z m 0.0896,-0.0186 0,0.156 -0.0449,0 0,-0.0415 q -0.0154,0.0249 -0.0383,0.0368 -0.023,0.0118 -0.0562,0.0118 -0.042,0 -0.0668,-0.0235 -0.0247,-0.0236 -0.0247,-0.0632 0,-0.0461 0.0308,-0.0695 0.0309,-0.0235 0.0922,-0.0235 l 0.063,0 0,-0.0044 q 0,-0.031 -0.0204,-0.0479 -0.0204,-0.017 -0.0573,-0.017 -0.0234,0 -0.0456,0.0056 -0.0222,0.0056 -0.0427,0.0169 l 0,-0.0415 q 0.0246,-0.0096 0.0478,-0.0143 0.0232,-0.0048 0.0452,-0.0048 0.0593,0 0.0886,0.0308 0.0293,0.0307 0.0293,0.0932 z m 0.137,-0.195 0,0.0776 0.0925,0 0,0.0349 -0.0925,0 0,0.1484 q 0,0.0335 0.0091,0.043 0.0092,0.0095 0.0373,0.0095 l 0.0461,0 0,0.0376 -0.0461,0 q -0.052,0 -0.0718,-0.0194 -0.0198,-0.0194 -0.0198,-0.0707 l 0,-0.1484 -0.033,0 0,-0.0349 0.033,0 0,-0.0776 0.0452,0 z m 0.3855,0.2031 0,0.022 -0.2066,0 q 0.003,0.0463 0.028,0.0706 0.025,0.0243 0.0697,0.0243 0.0259,0 0.0502,-0.0063 0.0242,-0.0064 0.0482,-0.0191 l 0,0.0425 q -0.0242,0.0103 -0.0496,0.0157 -0.0254,0.0053 -0.0515,0.0053 -0.0654,0 -0.1036,-0.0381 -0.0382,-0.0381 -0.0382,-0.103 0,-0.0671 0.0362,-0.1066 0.0363,-0.0394 0.0978,-0.0394 0.0552,0 0.0873,0.0355 0.0321,0.0356 0.0321,0.0966 z m -0.045,-0.0132 q -4e-4,-0.0369 -0.0206,-0.0588 -0.0201,-0.022 -0.0533,-0.022 -0.0376,0 -0.0602,0.0212 -0.0226,0.0213 -0.026,0.0598 l 0.1601,-2e-4 z m 0.2586,-0.2034 0.2864,0 0,0.0376 -0.2305,0.2854 0.2361,0 0,0.0415 -0.2976,0 0,-0.0376 0.2305,-0.2854 -0.2249,0 0,-0.0415 z m 0.6365,0.0281 0,0.052 q -0.0249,-0.0232 -0.0531,-0.0347 -0.0282,-0.0114 -0.06,-0.0114 -0.0625,0 -0.0957,0.0382 -0.0332,0.0382 -0.0332,0.1104 0,0.0721 0.0332,0.1103 0.0332,0.0382 0.0957,0.0382 0.0318,0 0.06,-0.0115 Q 0.8378,0.079 0.8627,0.0558 l 0,0.0516 Q 0.8368,0.1249 0.8079,0.1337 0.7789,0.1425 0.7467,0.1425 0.6639,0.1425 0.6163,0.0919 0.5687,0.0412 0.5687,-0.0465 q 0,-0.0878 0.0476,-0.1385 0.0476,-0.0507 0.1304,-0.0507 0.0327,0 0.0616,0.0087 0.029,0.0087 0.0544,0.026 z"
         id="path95"
         inkscape:connector-curvature="0"
         style="stroke:none" />
    </g>
    <g
       font-size="0.5"
       transform="matrix(50,0,0,50,1480,285)"
       id="g97"
       style="font-size:0.5px;stroke-width:0.02">
      <path
         d="m -21.328,-3 1.4153,0"
         id="path99"
         inkscape:connector-curvature="0"
         style="fill:none" />
      <path
         d="m -19.9127,-3.075 0,0.15 0.4,-0.075 z"
         id="path101"
         inkscape:connector-curvature="0"
         style="stroke:none" />
    </g>
    <g
       font-size="0.5"
       transform="matrix(50,0,0,50,1480,285)"
       id="g103"
       style="font-size:0.5px;stroke-width:0.02">
      <path
         d="m -25.1978,-3.4011 2.0787,-1.0393"
         id="path105"
         inkscape:connector-curvature="0"
         style="fill:none" />
      <path
         d="m -23.1527,-4.5075 0.0671,0.1342 0.3242,-0.246 z"
         id="path107"
         inkscape:connector-curvature="0"
         style="stroke:none" />
    </g>
    <g
       font-size="0.5"
       transform="matrix(50,0,0,50,1480,285)"
       id="g109"
       style="font-size:0.5px;stroke-width:0.02">
      <path
         d="m -25.1978,-3 2.1258,0"
         id="path111"
         inkscape:connector-curvature="0"
         style="fill:none" />
      <path
         d="m -23.072,-3.075 0,0.15 0.4,-0.075 z"
         id="path113"
         inkscape:connector-curvature="0"
         style="stroke:none" />
    </g>
    <g
       font-size="0.5"
       transform="matrix(50,0,0,50,1480,285)"
       id="g115"
       style="font-size:0.5px;stroke-width:0.02">
      <path
         d="m -13.1701,-3 1.0996,0"
         id="path117"
         inkscape:connector-curvature="0"
         style="fill:none" />
      <path
         d="m -12.0705,-3.075 0,0.15 0.4,-0.075 z"
         id="path119"
         inkscape:connector-curvature="0"
         style="stroke:none" />
    </g>
    <g
       font-size="0.5"
       transform="matrix(50,0,0,50,1480,285)"
       id="g121"
       style="font-size:0.5px;stroke-width:0.02">
      <path
         d="m -8.3295,-3 1.2848,0"
         id="path123"
         inkscape:connector-curvature="0"
         style="fill:none" />
      <path
         d="m -7.0447,-3.075 0,0.15 0.4,-0.075 z"
         id="path125"
         inkscape:connector-curvature="0"
         style="stroke:none" />
    </g>
    <g
       font-size="0.5"
       transform="matrix(50,0,0,50,1480,285)"
       id="g127"
       style="font-size:0.5px;stroke-width:0.02">
      <path
         d="m -16.4873,-3 1.2574,0"
         id="path129"
         inkscape:connector-curvature="0"
         style="fill:none" />
      <path
         d="m -15.2299,-3.075 0,0.15 0.4,-0.075 z"
         id="path131"
         inkscape:connector-curvature="0"
         style="stroke:none" />
    </g>
    <g
       font-size="0.5"
       transform="matrix(50,0,0,50,1480,285)"
       id="g133"
       style="font-size:0.5px;stroke-width:0.02">
      <path
         d="m -9.3961,-4.698 2.3936,1.1967"
         id="path135"
         inkscape:connector-curvature="0"
         style="fill:none" />
      <path
         d="m -6.969,-3.5683 -0.0671,0.1341 0.3914,0.1118 z"
         id="path137"
         inkscape:connector-curvature="0"
         style="stroke:none" />
    </g>
    <g
       font-size="0.5"
       transform="matrix(50,0,0,50,1480,285)"
       id="g139"
       style="font-size:0.5px;stroke-width:0.02">
      <path
         d="m -21.2386,-5 10.2347,0"
         id="path141"
         inkscape:connector-curvature="0"
         style="fill:none" />
      <path
         d="m -11.0039,-5.075 0,0.15 0.4,-0.075 z"
         id="path143"
         inkscape:connector-curvature="0"
         style="stroke:none" />
    </g>
    <g
       font-size="0.5"
       stroke-miterlimit="1"
       transform="matrix(50,0,0,50,1480,285)"
       id="g145"
       style="font-size:0.5px;fill:#808080;stroke:#808080;stroke-width:0.05;stroke-miterlimit:1;stroke-dasharray:0.2, 0.2">
      <rect
         height="2.5353999"
         width="21.707701"
         x="-26.9629"
         y="-1.85"
         id="rect147"
         style="fill:none" />
    </g>
    <g
       font-size="0.75"
       stroke-miterlimit="1"
       transform="matrix(50,0,0,50,180,285)"
       id="g149"
       style="font-size:0.75px;fill:#b20000;stroke:#b20000;stroke-width:0.05;stroke-miterlimit:1;stroke-dasharray:0.2, 0.2">
      <path
         d="m -0.7022,0.0064 0,-0.2483 0.0674,0 0,0.2458 q 0,0.0582 0.0227,0.0873 0.0227,0.0291 0.0681,0.0291 0.0546,0 0.0862,-0.0348 0.0317,-0.0348 0.0317,-0.0948 l 0,-0.2326 0.0674,0 0,0.4102 -0.0674,0 0,-0.063 Q -0.4506,0.1427 -0.483,0.1608 -0.5154,0.1789 -0.5583,0.1789 -0.629,0.1789 -0.6656,0.135 -0.7022,0.091 -0.7022,0.0064 z m 0.434,-0.2483 0.0714,0 0.1281,0.3443 0.1282,-0.3443 0.0714,0 -0.1538,0.4102 -0.0915,0 -0.1538,-0.4102 z m 0.7664,-0.06 0,0.204 0.204,0 0,0.0622 -0.204,0 0,0.204 -0.0615,0 0,-0.204 -0.204,0 0,-0.0622 0.204,0 0,-0.204 0.0615,0 z"
         id="path151"
         inkscape:connector-curvature="0"
         style="stroke:none" />
    </g>
    <g
       font-size="0.75"
       stroke-miterlimit="1"
       transform="matrix(50,0,0,50,780,285)"
       id="g153"
       style="font-size:0.75px;fill:#0000b2;stroke:#0000b2;stroke-width:0.05;stroke-miterlimit:1;stroke-dasharray:0.2, 0.2">
      <path
         d="m -0.4307,0.0093 q 0,-0.0732 -0.0302,-0.1135 -0.0302,-0.0403 -0.0847,-0.0403 -0.0542,0 -0.0845,0.0403 -0.0302,0.0403 -0.0302,0.1135 0,0.0729 0.0302,0.1132 0.0303,0.0403 0.0845,0.0403 0.0545,0 0.0847,-0.0403 0.0302,-0.0403 0.0302,-0.1132 z m 0.0674,0.159 q 0,0.1047 -0.0465,0.1558 -0.0465,0.0511 -0.1424,0.0511 -0.0356,0 -0.0671,-0.0053 -0.0315,-0.0053 -0.0611,-0.0163 l 0,-0.0656 q 0.0296,0.0161 0.0586,0.0238 0.0289,0.0077 0.0589,0.0077 0.0663,0 0.0993,-0.0346 0.0329,-0.0346 0.0329,-0.1045 l 0,-0.0334 q -0.0208,0.0363 -0.0534,0.0542 -0.0326,0.018 -0.078,0.018 -0.0755,0 -0.1216,-0.0575 -0.0462,-0.0575 -0.0462,-0.1524 0,-0.0952 0.0462,-0.1527 0.0461,-0.0575 0.1216,-0.0575 0.0454,0 0.078,0.018 0.0326,0.0179 0.0534,0.0542 l 0,-0.0623 0.0674,0 0,0.3593 z m 0.204,-0.0107 0,0.2176 -0.0678,0 0,-0.5662 0.0678,0 0,0.0623 q 0.0212,-0.0366 0.0537,-0.0544 0.0324,-0.0178 0.0774,-0.0178 0.0747,0 0.1214,0.0594 0.0467,0.0593 0.0467,0.156 0,0.0966 -0.0467,0.156 -0.0467,0.0593 -0.1214,0.0593 -0.045,0 -0.0774,-0.0178 Q -0.1381,0.1943 -0.1593,0.1576 z M 0.0699,0.0145 q 0,-0.0744 -0.0305,-0.1167 -0.0306,-0.0423 -0.0841,-0.0423 -0.0534,0 -0.084,0.0423 -0.0306,0.0423 -0.0306,0.1167 0,0.0743 0.0306,0.1166 0.0306,0.0423 0.084,0.0423 0.0535,0 0.0841,-0.0423 0.0305,-0.0423 0.0305,-0.1166 z m 0.456,-0.2655 0,0.2039 0.204,0 0,0.0623 -0.204,0 0,0.204 -0.0615,0 0,-0.204 -0.204,0 0,-0.0623 0.204,0 0,-0.2039 0.0615,0 z"
         id="path155"
         inkscape:connector-curvature="0"
         style="stroke:none" />
    </g>
    <g
       font-size="0.75"
       stroke-miterlimit="1"
       transform="matrix(50,0,0,50,1180,285)"
       id="g157"
       style="font-size:0.75px;fill:#b20000;stroke:#b20000;stroke-width:0.05;stroke-miterlimit:1;stroke-dasharray:0.2, 0.2">
      <path
         d="m -0.5447,-0.0146 0,-0.2483 0.0673,0 0,0.2458 q 0,0.0582 0.0228,0.0873 0.0227,0.0291 0.0681,0.0291 0.0545,0 0.0862,-0.0348 0.0317,-0.0348 0.0317,-0.0948 l 0,-0.2326 0.0674,0 0,0.4102 -0.0674,0 0,-0.063 q -0.0245,0.0373 -0.057,0.0555 -0.0324,0.0181 -0.0752,0.0181 -0.0707,0 -0.1073,-0.0439 -0.0366,-0.044 -0.0366,-0.1286 z m 0.4339,-0.2483 0.0714,0 0.1282,0.3443 0.1282,-0.3443 0.0714,0 -0.1538,0.4102 -0.0916,0 -0.1538,-0.4102 z m 0.4582,0.1747 0.1973,0 0,0.0601 -0.1973,0 0,-0.0601 z"
         id="path159"
         inkscape:connector-curvature="0"
         style="stroke:none" />
    </g>
    <g
       font-size="0.75"
       stroke-miterlimit="1"
       transform="matrix(50,0,0,50,380,285)"
       id="g161"
       style="font-size:0.75px;fill:#0000b2;stroke:#0000b2;stroke-width:0.05;stroke-miterlimit:1;stroke-dasharray:0.2, 0.2">
      <path
         d="m -0.2728,-0.0082 q 0,-0.0733 -0.0302,-0.1135 -0.0302,-0.0403 -0.0848,-0.0403 -0.0542,0 -0.0844,0.0403 -0.0302,0.0402 -0.0302,0.1135 0,0.0728 0.0302,0.1131 0.0302,0.0403 0.0844,0.0403 0.0546,0 0.0848,-0.0403 0.0302,-0.0403 0.0302,-0.1131 z m 0.0673,0.1589 q 0,0.1047 -0.0465,0.1558 -0.0465,0.0511 -0.1424,0.0511 -0.0355,0 -0.067,-0.0053 Q -0.4929,0.347 -0.5226,0.336 l 0,-0.0655 q 0.0297,0.0161 0.0586,0.0238 0.0289,0.0077 0.059,0.0077 0.0663,0 0.0992,-0.0346 0.033,-0.0347 0.033,-0.1046 l 0,-0.0333 q -0.0209,0.0362 -0.0535,0.0542 -0.0326,0.0179 -0.078,0.0179 -0.0754,0 -0.1216,-0.0575 -0.0461,-0.0575 -0.0461,-0.1523 0,-0.0952 0.0461,-0.1527 0.0462,-0.0575 0.1216,-0.0575 0.0454,0 0.078,0.0179 0.0326,0.018 0.0535,0.0542 l 0,-0.0622 0.0673,0 0,0.3592 z m 0.4798,-0.1966 0,0.2475 -0.0674,0 0,-0.2453 q 0,-0.0583 -0.0227,-0.0872 -0.0227,-0.0289 -0.0681,-0.0289 -0.0546,0 -0.0861,0.0348 -0.0315,0.0347 -0.0315,0.0948 l 0,0.2318 -0.0677,0 0,-0.4101 0.0677,0 0,0.0637 q 0.0242,-0.037 0.057,-0.0553 0.0328,-0.0183 0.0756,-0.0183 0.0707,0 0.1069,0.0437 0.0363,0.0438 0.0363,0.1288 z m 0.1003,0.012 0.1974,0 0,0.0601 -0.1974,0 0,-0.0601 z"
         id="path163"
         inkscape:connector-curvature="0"
         style="stroke:none" />
    </g>
    <g
       font-size="0.75"
       stroke-miterlimit="1"
       transform="matrix(50,0,0,50,980,285)"
       id="g165"
       style="font-size:0.75px;fill:#b20000;stroke:#b20000;stroke-width:0.05;stroke-miterlimit:1;stroke-dasharray:0.2, 0.2">
      <path
         d="m -1.2713,0.0515 q 0,-0.0732 -0.0302,-0.1135 -0.0302,-0.0403 -0.0848,-0.0403 -0.0542,0 -0.0844,0.0403 -0.0302,0.0403 -0.0302,0.1135 0,0.0729 0.0302,0.1132 0.0302,0.0403 0.0844,0.0403 0.0546,0 0.0848,-0.0403 0.0302,-0.0403 0.0302,-0.1132 z m 0.0674,0.1589 q 0,0.1048 -0.0465,0.1559 -0.0465,0.051 -0.1425,0.051 -0.0355,0 -0.067,-0.0053 Q -1.4914,0.4067 -1.521,0.3958 l 0,-0.0656 q 0.0296,0.0161 0.0585,0.0238 0.029,0.0077 0.059,0.0077 0.0663,0 0.0992,-0.0346 0.033,-0.0346 0.033,-0.1046 l 0,-0.0333 q -0.0209,0.0363 -0.0535,0.0542 -0.0326,0.0179 -0.078,0.0179 -0.0754,0 -0.1216,-0.0574 -0.0461,-0.0575 -0.0461,-0.1524 0,-0.0952 0.0461,-0.1527 0.0462,-0.0575 0.1216,-0.0575 0.0454,0 0.078,0.0179 0.0326,0.018 0.0535,0.0542 l 0,-0.0622 0.0674,0 0,0.3592 z m 0.204,-0.0106 0,0.2175 -0.0678,0 0,-0.5661 0.0678,0 0,0.0622 q 0.0212,-0.0366 0.0536,-0.0543 0.0324,-0.0178 0.0775,-0.0178 0.0747,0 0.1214,0.0593 0.0467,0.0594 0.0467,0.156 0,0.0967 -0.0467,0.156 -0.0467,0.0594 -0.1214,0.0594 -0.0451,0 -0.0775,-0.0178 -0.0324,-0.0178 -0.0536,-0.0544 z m 0.2292,-0.1432 q 0,-0.0743 -0.0306,-0.1166 -0.0305,-0.0423 -0.084,-0.0423 -0.0535,0 -0.0841,0.0423 -0.0305,0.0423 -0.0305,0.1166 0,0.0744 0.0305,0.1167 0.0306,0.0423 0.0841,0.0423 0.0535,0 0.084,-0.0423 0.0306,-0.0423 0.0306,-0.1167 z m 0.4933,0.3293 0,0.0523 -0.3897,0 0,-0.0523 0.3897,0 z m 0.2498,-0.3307 q -0.0817,0 -0.1132,0.0186 -0.0315,0.0187 -0.0315,0.0638 0,0.0359 0.0236,0.0569 0.0236,0.0211 0.0643,0.0211 0.056,0 0.0899,-0.0398 0.0339,-0.0397 0.0339,-0.1056 l 0,-0.015 -0.067,0 z m 0.1344,-0.0279 0,0.234 -0.0674,0 0,-0.0622 Q 0.0163,0.2364 -0.0181,0.2542 -0.0526,0.272 -0.1024,0.272 q -0.0629,0 -0.1001,-0.0354 -0.0372,-0.0353 -0.0372,-0.0946 0,-0.0692 0.0463,-0.1044 0.0464,-0.0352 0.1383,-0.0352 l 0.0945,0 0,-0.0066 q 0,-0.0465 -0.0306,-0.0719 -0.0306,-0.0255 -0.0859,-0.0255 -0.0351,0 -0.0685,0.0085 -0.0333,0.0084 -0.064,0.0252 l 0,-0.0622 q 0.0369,-0.0143 0.0717,-0.0215 0.0348,-0.0071 0.0678,-0.0071 0.089,0 0.1329,0.0461 0.044,0.0462 0.044,0.1399 z m 0.4339,-0.1604 0,0.063 Q 0.5121,-0.0858 0.4834,-0.0937 0.4546,-0.1016 0.4254,-0.1016 q -0.0656,0 -0.1019,0.0416 -0.0362,0.0416 -0.0362,0.1166 0,0.0751 0.0362,0.1167 0.0363,0.0415 0.1019,0.0415 0.0292,0 0.058,-0.0078 0.0287,-0.0079 0.0573,-0.0237 l 0,0.0623 Q 0.5125,0.2588 0.4823,0.2654 0.4521,0.272 0.418,0.272 0.3254,0.272 0.2708,0.2137 0.2162,0.1555 0.2162,0.0566 q 0,-0.1003 0.0552,-0.1578 0.0551,-0.0575 0.151,-0.0575 0.0312,0 0.0608,0.0064 0.0297,0.0064 0.0575,0.0192 z m 0.1146,-0.1754 0.0678,0 0,0.3366 0.201,-0.1769 0.0861,0 -0.2175,0.1919 0.2266,0.2182 -0.0878,0 -0.2084,-0.2003 0,0.2003 -0.0678,0 0,-0.5698 z m 0.7112,0.0996 0,0.204 0.204,0 0,0.0623 -0.204,0 0,0.2039 -0.0615,0 0,-0.2039 -0.204,0 0,-0.0623 0.204,0 0,-0.204 0.0615,0 z"
         id="path167"
         inkscape:connector-curvature="0"
         style="stroke:none" />
    </g>
    <g
       font-size="0.75"
       stroke-miterlimit="1"
       transform="matrix(50,0,0,50,580,285)"
       id="g169"
       style="font-size:0.75px;fill:#b20000;stroke:#b20000;stroke-width:0.05;stroke-miterlimit:1;stroke-dasharray:0.2, 0.2">
      <path
         d="m -1.1135,0.0515 q 0,-0.0732 -0.0302,-0.1135 -0.0302,-0.0403 -0.0847,-0.0403 -0.0542,0 -0.0845,0.0403 -0.0302,0.0403 -0.0302,0.1135 0,0.0729 0.0302,0.1132 0.0303,0.0403 0.0845,0.0403 0.0545,0 0.0847,-0.0403 0.0302,-0.0403 0.0302,-0.1132 z m 0.0674,0.1589 q 0,0.1048 -0.0465,0.1559 -0.0465,0.051 -0.1424,0.051 -0.0356,0 -0.0671,-0.0053 -0.0315,-0.0053 -0.0611,-0.0162 l 0,-0.0656 q 0.0296,0.0161 0.0586,0.0238 0.0289,0.0077 0.0589,0.0077 0.0663,0 0.0993,-0.0346 0.0329,-0.0346 0.0329,-0.1046 l 0,-0.0333 q -0.0208,0.0363 -0.0534,0.0542 -0.0326,0.0179 -0.078,0.0179 -0.0755,0 -0.1216,-0.0574 -0.0462,-0.0575 -0.0462,-0.1524 0,-0.0952 0.0462,-0.1527 0.0461,-0.0575 0.1216,-0.0575 0.0454,0 0.078,0.0179 0.0326,0.018 0.0534,0.0542 l 0,-0.0622 0.0674,0 0,0.3592 z m 0.4798,-0.1966 0,0.2475 -0.0674,0 0,-0.2453 q 0,-0.0582 -0.0227,-0.0872 -0.0227,-0.0289 -0.0681,-0.0289 -0.0546,0 -0.0861,0.0348 -0.0315,0.0348 -0.0315,0.0948 l 0,0.2318 -0.0678,0 0,-0.4101 0.0678,0 0,0.0637 q 0.0242,-0.037 0.0569,-0.0553 0.0328,-0.0183 0.0757,-0.0183 0.0706,0 0.1069,0.0438 0.0363,0.0437 0.0363,0.1287 z m 0.446,0.3721 0,0.0523 -0.3897,0 0,-0.0523 0.3897,0 z M 0.1295,0.0552 q -0.0817,0 -0.1132,0.0186 -0.0315,0.0187 -0.0315,0.0638 0,0.0359 0.0236,0.0569 0.0236,0.0211 0.0643,0.0211 0.056,0 0.0899,-0.0398 0.0339,-0.0397 0.0339,-0.1056 l 0,-0.015 -0.067,0 z m 0.1344,-0.0279 0,0.234 -0.0674,0 0,-0.0622 Q 0.1734,0.2364 0.139,0.2542 0.1045,0.272 0.0548,0.272 q -0.063,0 -0.1002,-0.0354 -0.0372,-0.0353 -0.0372,-0.0946 0,-0.0692 0.0464,-0.1044 Q 0.0101,0.0024 0.102,0.0024 l 0.0945,0 0,-0.0066 q 0,-0.0465 -0.0306,-0.0719 -0.0306,-0.0255 -0.0859,-0.0255 -0.0351,0 -0.0685,0.0085 -0.0333,0.0084 -0.064,0.0252 l 0,-0.0622 q 0.0369,-0.0143 0.0717,-0.0215 0.0348,-0.0071 0.0678,-0.0071 0.089,0 0.1329,0.0461 0.044,0.0462 0.044,0.1399 z m 0.4339,-0.1604 0,0.063 Q 0.6693,-0.0858 0.6405,-0.0937 0.6118,-0.1016 0.5825,-0.1016 q -0.0656,0 -0.1019,0.0416 -0.0362,0.0416 -0.0362,0.1166 0,0.0751 0.0362,0.1167 0.0363,0.0415 0.1019,0.0415 0.0293,0 0.058,-0.0078 0.0288,-0.0079 0.0573,-0.0237 l 0,0.0623 Q 0.6696,0.2588 0.6394,0.2654 0.6092,0.272 0.5751,0.272 0.4825,0.272 0.4279,0.2137 0.3733,0.1555 0.3733,0.0566 q 0,-0.1003 0.0552,-0.1578 0.0551,-0.0575 0.151,-0.0575 0.0312,0 0.0608,0.0064 0.0297,0.0064 0.0575,0.0192 z m 0.1146,-0.1754 0.0678,0 0,0.3366 0.201,-0.1769 0.0861,0 -0.2175,0.1919 0.2266,0.2182 -0.0878,0 -0.2084,-0.2003 0,0.2003 -0.0678,0 0,-0.5698 z m 0.4029,0.3344 0.1974,0 0,0.06 -0.1974,0 0,-0.06 z"
         id="path171"
         inkscape:connector-curvature="0"
         style="stroke:none" />
    </g>
    <g
       font-size="0.75"
       stroke-miterlimit="1"
       transform="matrix(50,0,0,50,176.875,222.5)"
       id="g173"
       style="font-size:0.75px;fill:#ffffc8;stroke:#ffffc8;stroke-width:0.05;stroke-miterlimit:1;stroke-dasharray:0.2, 0.2">
      <rect
         height="1.2"
         width="1.8009"
         x="-0.90039998"
         y="-0.60000002"
         id="rect175"
         style="stroke:none" />
      <rect
         height="1.2"
         width="1.8009"
         x="-0.90039998"
         y="-0.60000002"
         id="rect177"
         style="fill:none;stroke:#808080;stroke-width:0.02" />
    </g>
    <g
       font-size="0.5"
       stroke-miterlimit="1"
       transform="matrix(50,0,0,50,176.875,222.5)"
       id="g179"
       style="font-size:0.5px;stroke-width:0.02;stroke-miterlimit:1;stroke-dasharray:0.2, 0.2">
      <path
         d="m -0.4714,-0.0327 0,0.1651 -0.0449,0 0,-0.1636 q 0,-0.0388 -0.0152,-0.0581 -0.0151,-0.0193 -0.0454,-0.0193 -0.0364,0 -0.0574,0.0232 -0.021,0.0232 -0.021,0.0632 l 0,0.1546 -0.0451,0 0,-0.2735 0.0451,0 0,0.0425 q 0.0161,-0.0246 0.038,-0.0369 0.0218,-0.0122 0.0504,-0.0122 0.0471,0 0.0713,0.0292 0.0242,0.0292 0.0242,0.0858 z m 0.1955,-0.0769 q -0.0361,0 -0.0571,0.0282 -0.021,0.0282 -0.021,0.0773 0,0.0491 0.0209,0.0773 0.0209,0.0282 0.0572,0.0282 0.0359,0 0.0569,-0.0284 0.021,-0.0283 0.021,-0.0771 0,-0.0486 -0.021,-0.077 -0.021,-0.0285 -0.0569,-0.0285 z m 0,-0.0381 q 0.0586,0 0.0921,0.0381 0.0334,0.0381 0.0334,0.1055 0,0.0671 -0.0334,0.1053 -0.0335,0.0382 -0.0921,0.0382 -0.0588,0 -0.0921,-0.0382 -0.0334,-0.0382 -0.0334,-0.1053 0,-0.0674 0.0334,-0.1055 0.0333,-0.0381 0.0921,-0.0381 z m 0.3399,-0.0844 0.2863,0 0,0.0376 -0.2304,0.2854 0.2361,0 0,0.0415 -0.2976,0 0,-0.0376 0.2304,-0.2854 -0.2248,0 0,-0.0415 z m 0.6364,0.028 0,0.052 Q 0.6755,-0.1753 0.6473,-0.1867 0.6191,-0.1982 0.5874,-0.1982 q -0.0625,0 -0.0957,0.0382 -0.0332,0.0382 -0.0332,0.1105 0,0.072 0.0332,0.1102 0.0332,0.0382 0.0957,0.0382 0.0317,0 0.0599,-0.0115 Q 0.6755,0.076 0.7004,0.0528 l 0,0.0515 Q 0.6746,0.1219 0.6456,0.1306 0.6167,0.1394 0.5845,0.1394 0.5017,0.1394 0.4541,0.0888 0.4065,0.0381 0.4065,-0.0495 q 0,-0.0879 0.0476,-0.1386 0.0476,-0.0506 0.1304,-0.0506 0.0327,0 0.0616,0.0086 0.0289,0.0087 0.0543,0.026 z"
         id="path181"
         inkscape:connector-curvature="0"
         style="stroke:none" />
    </g>
    <g
       font-size="0.5"
       transform="matrix(50,0,0,50,1480,285)"
       id="g183"
       style="font-size:0.5px;stroke-width:0.02">
      <path
         d="m -25.1978,0 2.1258,0"
         id="path185"
         inkscape:connector-curvature="0"
         style="fill:none" />
      <path
         d="m -23.072,-0.075 0,0.15 0.4,-0.075 z"
         id="path187"
         inkscape:connector-curvature="0"
         style="stroke:none" />
    </g>
    <g
       font-size="0.5"
       transform="matrix(50,0,0,50,1480,285)"
       id="g189"
       style="font-size:0.5px;stroke-width:0.02">
      <path
         d="m -21.328,0 1.4153,0"
         id="path191"
         inkscape:connector-curvature="0"
         style="fill:none" />
      <path
         d="m -19.9127,-0.075 0,0.15 0.4,-0.075 z"
         id="path193"
         inkscape:connector-curvature="0"
         style="stroke:none" />
    </g>
    <g
       font-size="0.5"
       transform="matrix(50,0,0,50,1480,285)"
       id="g195"
       style="font-size:0.5px;stroke-width:0.02">
      <path
         d="m -13.1701,0 1.0996,0"
         id="path197"
         inkscape:connector-curvature="0"
         style="fill:none" />
      <path
         d="m -12.0705,-0.075 0,0.15 0.4,-0.075 z"
         id="path199"
         inkscape:connector-curvature="0"
         style="stroke:none" />
    </g>
    <g
       font-size="0.5"
       transform="matrix(50,0,0,50,1480,285)"
       id="g201"
       style="font-size:0.5px;stroke-width:0.02">
      <path
         d="m -16.4873,0 1.2574,0"
         id="path203"
         inkscape:connector-curvature="0"
         style="fill:none" />
      <path
         d="m -15.2299,-0.075 0,0.15 0.4,-0.075 z"
         id="path205"
         inkscape:connector-curvature="0"
         style="stroke:none" />
    </g>
    <g
       font-size="0.5"
       transform="matrix(50,0,0,50,1480,285)"
       id="g207"
       style="font-size:0.5px;stroke-width:0.02">
      <path
         d="m -8.3295,0 1.2848,0"
         id="path209"
         inkscape:connector-curvature="0"
         style="fill:none" />
      <path
         d="m -7.0447,-0.075 0,0.15 0.4,-0.075 z"
         id="path211"
         inkscape:connector-curvature="0"
         style="stroke:none" />
    </g>
    <g
       font-size="0.5"
       stroke-miterlimit="1"
       transform="matrix(50,0,0,50,1480,285)"
       id="g213"
       style="font-size:0.5px;fill:#808080;stroke:#808080;stroke-width:0.05;stroke-miterlimit:1;stroke-dasharray:0.2, 0.2">
      <rect
         height="3.1979001"
         width="21.7199"
         x="-26.9751"
         y="2.3146"
         id="rect215"
         style="fill:none" />
    </g>
    <g
       font-size="0.75"
       stroke-miterlimit="1"
       transform="matrix(50,0,0,50,180,435)"
       id="g217"
       style="font-size:0.75px;fill:#b20000;stroke:#b20000;stroke-width:0.05;stroke-miterlimit:1;stroke-dasharray:0.2, 0.2">
      <path
         d="m -0.6522,-0.2419 0.32,0 0,0.0616 -0.2534,0.2948 0.2534,0 0,0.0538 -0.3292,0 0,-0.0615 0.2534,-0.2948 -0.2442,0 0,-0.0539 z m 0.7181,0.0158 0,0.063 q -0.0286,-0.0158 -0.0573,-0.0237 -0.0288,-0.0078 -0.058,-0.0078 -0.0656,0 -0.1019,0.0415 -0.0362,0.0416 -0.0362,0.1167 0,0.0751 0.0362,0.1166 0.0363,0.0416 0.1019,0.0416 0.0292,0 0.058,-0.0079 Q 0.0373,0.106 0.0659,0.0903 l 0,0.0622 q -0.0282,0.0132 -0.0584,0.0198 -0.0302,0.0066 -0.0643,0.0066 -0.0926,0 -0.1472,-0.0582 -0.0546,-0.0582 -0.0546,-0.1571 0,-0.1004 0.0552,-0.1579 0.0551,-0.0575 0.151,-0.0575 0.0312,0 0.0608,0.0065 0.0297,0.0064 0.0575,0.0192 z m 0.3915,-0.0758 0,0.204 0.204,0 0,0.0622 -0.204,0 0,0.204 -0.0615,0 0,-0.204 -0.204,0 0,-0.0622 0.204,0 0,-0.204 0.0615,0 z"
         id="path219"
         inkscape:connector-curvature="0"
         style="stroke:none" />
    </g>
    <g
       font-size="0.75"
       stroke-miterlimit="1"
       transform="matrix(50,0,0,50,380,535)"
       id="g221"
       style="font-size:0.75px;fill:#b20000;stroke:#b20000;stroke-width:0.05;stroke-miterlimit:1;stroke-dasharray:0.2, 0.2">
      <path
         d="m -0.7022,0.0064 0,-0.2483 0.0674,0 0,0.2458 q 0,0.0582 0.0227,0.0873 0.0227,0.0291 0.0681,0.0291 0.0546,0 0.0862,-0.0348 0.0317,-0.0348 0.0317,-0.0948 l 0,-0.2326 0.0674,0 0,0.4102 -0.0674,0 0,-0.063 Q -0.4506,0.1427 -0.483,0.1608 -0.5154,0.1789 -0.5583,0.1789 -0.629,0.1789 -0.6656,0.135 -0.7022,0.091 -0.7022,0.0064 z m 0.434,-0.2483 0.0714,0 0.1281,0.3443 0.1282,-0.3443 0.0714,0 -0.1538,0.4102 -0.0915,0 -0.1538,-0.4102 z m 0.7664,-0.06 0,0.204 0.204,0 0,0.0622 -0.204,0 0,0.204 -0.0615,0 0,-0.204 -0.204,0 0,-0.0622 0.204,0 0,-0.204 0.0615,0 z"
         id="path223"
         inkscape:connector-curvature="0"
         style="stroke:none" />
    </g>
    <g
       font-size="0.75"
       stroke-miterlimit="1"
       transform="matrix(50,0,0,50,380,435)"
       id="g225"
       style="font-size:0.75px;fill:#0000b2;stroke:#0000b2;stroke-width:0.05;stroke-miterlimit:1;stroke-dasharray:0.2, 0.2">
      <path
         d="m -0.2728,-0.0082 q 0,-0.0733 -0.0302,-0.1135 -0.0302,-0.0403 -0.0848,-0.0403 -0.0542,0 -0.0844,0.0403 -0.0302,0.0402 -0.0302,0.1135 0,0.0728 0.0302,0.1131 0.0302,0.0403 0.0844,0.0403 0.0546,0 0.0848,-0.0403 0.0302,-0.0403 0.0302,-0.1131 z m 0.0673,0.1589 q 0,0.1047 -0.0465,0.1558 -0.0465,0.0511 -0.1424,0.0511 -0.0355,0 -0.067,-0.0053 Q -0.4929,0.347 -0.5226,0.336 l 0,-0.0655 q 0.0297,0.0161 0.0586,0.0238 0.0289,0.0077 0.059,0.0077 0.0663,0 0.0992,-0.0346 0.033,-0.0347 0.033,-0.1046 l 0,-0.0333 q -0.0209,0.0362 -0.0535,0.0542 -0.0326,0.0179 -0.078,0.0179 -0.0754,0 -0.1216,-0.0575 -0.0461,-0.0575 -0.0461,-0.1523 0,-0.0952 0.0461,-0.1527 0.0462,-0.0575 0.1216,-0.0575 0.0454,0 0.078,0.0179 0.0326,0.018 0.0535,0.0542 l 0,-0.0622 0.0673,0 0,0.3592 z m 0.4798,-0.1966 0,0.2475 -0.0674,0 0,-0.2453 q 0,-0.0583 -0.0227,-0.0872 -0.0227,-0.0289 -0.0681,-0.0289 -0.0546,0 -0.0861,0.0348 -0.0315,0.0347 -0.0315,0.0948 l 0,0.2318 -0.0677,0 0,-0.4101 0.0677,0 0,0.0637 q 0.0242,-0.037 0.057,-0.0553 0.0328,-0.0183 0.0756,-0.0183 0.0707,0 0.1069,0.0437 0.0363,0.0438 0.0363,0.1288 z m 0.1003,0.012 0.1974,0 0,0.0601 -0.1974,0 0,-0.0601 z"
         id="path227"
         inkscape:connector-curvature="0"
         style="stroke:none" />
    </g>
    <g
       font-size="0.75"
       stroke-miterlimit="1"
       transform="matrix(50,0,0,50,580,435)"
       id="g229"
       style="font-size:0.75px;fill:#b20000;stroke:#b20000;stroke-width:0.05;stroke-miterlimit:1;stroke-dasharray:0.2, 0.2">
      <path
         d="m -1.1135,0.0515 q 0,-0.0732 -0.0302,-0.1135 -0.0302,-0.0403 -0.0847,-0.0403 -0.0542,0 -0.0845,0.0403 -0.0302,0.0403 -0.0302,0.1135 0,0.0729 0.0302,0.1132 0.0303,0.0403 0.0845,0.0403 0.0545,0 0.0847,-0.0403 0.0302,-0.0403 0.0302,-0.1132 z m 0.0674,0.1589 q 0,0.1048 -0.0465,0.1559 -0.0465,0.051 -0.1424,0.051 -0.0356,0 -0.0671,-0.0053 -0.0315,-0.0053 -0.0611,-0.0162 l 0,-0.0656 q 0.0296,0.0161 0.0586,0.0238 0.0289,0.0077 0.0589,0.0077 0.0663,0 0.0993,-0.0346 0.0329,-0.0346 0.0329,-0.1046 l 0,-0.0333 q -0.0208,0.0363 -0.0534,0.0542 -0.0326,0.0179 -0.078,0.0179 -0.0755,0 -0.1216,-0.0574 -0.0462,-0.0575 -0.0462,-0.1524 0,-0.0952 0.0462,-0.1527 0.0461,-0.0575 0.1216,-0.0575 0.0454,0 0.078,0.0179 0.0326,0.018 0.0534,0.0542 l 0,-0.0622 0.0674,0 0,0.3592 z m 0.4798,-0.1966 0,0.2475 -0.0674,0 0,-0.2453 q 0,-0.0582 -0.0227,-0.0872 -0.0227,-0.0289 -0.0681,-0.0289 -0.0546,0 -0.0861,0.0348 -0.0315,0.0348 -0.0315,0.0948 l 0,0.2318 -0.0678,0 0,-0.4101 0.0678,0 0,0.0637 q 0.0242,-0.037 0.0569,-0.0553 0.0328,-0.0183 0.0757,-0.0183 0.0706,0 0.1069,0.0438 0.0363,0.0437 0.0363,0.1287 z m 0.446,0.3721 0,0.0523 -0.3897,0 0,-0.0523 0.3897,0 z M 0.1295,0.0552 q -0.0817,0 -0.1132,0.0186 -0.0315,0.0187 -0.0315,0.0638 0,0.0359 0.0236,0.0569 0.0236,0.0211 0.0643,0.0211 0.056,0 0.0899,-0.0398 0.0339,-0.0397 0.0339,-0.1056 l 0,-0.015 -0.067,0 z m 0.1344,-0.0279 0,0.234 -0.0674,0 0,-0.0622 Q 0.1734,0.2364 0.139,0.2542 0.1045,0.272 0.0548,0.272 q -0.063,0 -0.1002,-0.0354 -0.0372,-0.0353 -0.0372,-0.0946 0,-0.0692 0.0464,-0.1044 Q 0.0101,0.0024 0.102,0.0024 l 0.0945,0 0,-0.0066 q 0,-0.0465 -0.0306,-0.0719 -0.0306,-0.0255 -0.0859,-0.0255 -0.0351,0 -0.0685,0.0085 -0.0333,0.0084 -0.064,0.0252 l 0,-0.0622 q 0.0369,-0.0143 0.0717,-0.0215 0.0348,-0.0071 0.0678,-0.0071 0.089,0 0.1329,0.0461 0.044,0.0462 0.044,0.1399 z m 0.4339,-0.1604 0,0.063 Q 0.6693,-0.0858 0.6405,-0.0937 0.6118,-0.1016 0.5825,-0.1016 q -0.0656,0 -0.1019,0.0416 -0.0362,0.0416 -0.0362,0.1166 0,0.0751 0.0362,0.1167 0.0363,0.0415 0.1019,0.0415 0.0293,0 0.058,-0.0078 0.0288,-0.0079 0.0573,-0.0237 l 0,0.0623 Q 0.6696,0.2588 0.6394,0.2654 0.6092,0.272 0.5751,0.272 0.4825,0.272 0.4279,0.2137 0.3733,0.1555 0.3733,0.0566 q 0,-0.1003 0.0552,-0.1578 0.0551,-0.0575 0.151,-0.0575 0.0312,0 0.0608,0.0064 0.0297,0.0064 0.0575,0.0192 z m 0.1146,-0.1754 0.0678,0 0,0.3366 0.201,-0.1769 0.0861,0 -0.2175,0.1919 0.2266,0.2182 -0.0878,0 -0.2084,-0.2003 0,0.2003 -0.0678,0 0,-0.5698 z m 0.4029,0.3344 0.1974,0 0,0.06 -0.1974,0 0,-0.06 z"
         id="path231"
         inkscape:connector-curvature="0"
         style="stroke:none" />
    </g>
    <g
       font-size="0.75"
       stroke-miterlimit="1"
       transform="matrix(50,0,0,50,780,435)"
       id="g233"
       style="font-size:0.75px;fill:#0000b2;stroke:#0000b2;stroke-width:0.05;stroke-miterlimit:1;stroke-dasharray:0.2, 0.2">
      <path
         d="m -0.4307,0.0093 q 0,-0.0732 -0.0302,-0.1135 -0.0302,-0.0403 -0.0847,-0.0403 -0.0542,0 -0.0845,0.0403 -0.0302,0.0403 -0.0302,0.1135 0,0.0729 0.0302,0.1132 0.0303,0.0403 0.0845,0.0403 0.0545,0 0.0847,-0.0403 0.0302,-0.0403 0.0302,-0.1132 z m 0.0674,0.159 q 0,0.1047 -0.0465,0.1558 -0.0465,0.0511 -0.1424,0.0511 -0.0356,0 -0.0671,-0.0053 -0.0315,-0.0053 -0.0611,-0.0163 l 0,-0.0656 q 0.0296,0.0161 0.0586,0.0238 0.0289,0.0077 0.0589,0.0077 0.0663,0 0.0993,-0.0346 0.0329,-0.0346 0.0329,-0.1045 l 0,-0.0334 q -0.0208,0.0363 -0.0534,0.0542 -0.0326,0.018 -0.078,0.018 -0.0755,0 -0.1216,-0.0575 -0.0462,-0.0575 -0.0462,-0.1524 0,-0.0952 0.0462,-0.1527 0.0461,-0.0575 0.1216,-0.0575 0.0454,0 0.078,0.018 0.0326,0.0179 0.0534,0.0542 l 0,-0.0623 0.0674,0 0,0.3593 z m 0.204,-0.0107 0,0.2176 -0.0678,0 0,-0.5662 0.0678,0 0,0.0623 q 0.0212,-0.0366 0.0537,-0.0544 0.0324,-0.0178 0.0774,-0.0178 0.0747,0 0.1214,0.0594 0.0467,0.0593 0.0467,0.156 0,0.0966 -0.0467,0.156 -0.0467,0.0593 -0.1214,0.0593 -0.045,0 -0.0774,-0.0178 Q -0.1381,0.1943 -0.1593,0.1576 z M 0.0699,0.0145 q 0,-0.0744 -0.0305,-0.1167 -0.0306,-0.0423 -0.0841,-0.0423 -0.0534,0 -0.084,0.0423 -0.0306,0.0423 -0.0306,0.1167 0,0.0743 0.0306,0.1166 0.0306,0.0423 0.084,0.0423 0.0535,0 0.0841,-0.0423 0.0305,-0.0423 0.0305,-0.1166 z m 0.456,-0.2655 0,0.2039 0.204,0 0,0.0623 -0.204,0 0,0.204 -0.0615,0 0,-0.204 -0.204,0 0,-0.0623 0.204,0 0,-0.2039 0.0615,0 z"
         id="path235"
         inkscape:connector-curvature="0"
         style="stroke:none" />
    </g>
    <g
       font-size="0.75"
       stroke-miterlimit="1"
       transform="matrix(50,0,0,50,980,435)"
       id="g237"
       style="font-size:0.75px;fill:#b20000;stroke:#b20000;stroke-width:0.05;stroke-miterlimit:1;stroke-dasharray:0.2, 0.2">
      <path
         d="m -1.2713,0.0515 q 0,-0.0732 -0.0302,-0.1135 -0.0302,-0.0403 -0.0848,-0.0403 -0.0542,0 -0.0844,0.0403 -0.0302,0.0403 -0.0302,0.1135 0,0.0729 0.0302,0.1132 0.0302,0.0403 0.0844,0.0403 0.0546,0 0.0848,-0.0403 0.0302,-0.0403 0.0302,-0.1132 z m 0.0674,0.1589 q 0,0.1048 -0.0465,0.1559 -0.0465,0.051 -0.1425,0.051 -0.0355,0 -0.067,-0.0053 Q -1.4914,0.4067 -1.521,0.3958 l 0,-0.0656 q 0.0296,0.0161 0.0585,0.0238 0.029,0.0077 0.059,0.0077 0.0663,0 0.0992,-0.0346 0.033,-0.0346 0.033,-0.1046 l 0,-0.0333 q -0.0209,0.0363 -0.0535,0.0542 -0.0326,0.0179 -0.078,0.0179 -0.0754,0 -0.1216,-0.0574 -0.0461,-0.0575 -0.0461,-0.1524 0,-0.0952 0.0461,-0.1527 0.0462,-0.0575 0.1216,-0.0575 0.0454,0 0.078,0.0179 0.0326,0.018 0.0535,0.0542 l 0,-0.0622 0.0674,0 0,0.3592 z m 0.204,-0.0106 0,0.2175 -0.0678,0 0,-0.5661 0.0678,0 0,0.0622 q 0.0212,-0.0366 0.0536,-0.0543 0.0324,-0.0178 0.0775,-0.0178 0.0747,0 0.1214,0.0593 0.0467,0.0594 0.0467,0.156 0,0.0967 -0.0467,0.156 -0.0467,0.0594 -0.1214,0.0594 -0.0451,0 -0.0775,-0.0178 -0.0324,-0.0178 -0.0536,-0.0544 z m 0.2292,-0.1432 q 0,-0.0743 -0.0306,-0.1166 -0.0305,-0.0423 -0.084,-0.0423 -0.0535,0 -0.0841,0.0423 -0.0305,0.0423 -0.0305,0.1166 0,0.0744 0.0305,0.1167 0.0306,0.0423 0.0841,0.0423 0.0535,0 0.084,-0.0423 0.0306,-0.0423 0.0306,-0.1167 z m 0.4933,0.3293 0,0.0523 -0.3897,0 0,-0.0523 0.3897,0 z m 0.2498,-0.3307 q -0.0817,0 -0.1132,0.0186 -0.0315,0.0187 -0.0315,0.0638 0,0.0359 0.0236,0.0569 0.0236,0.0211 0.0643,0.0211 0.056,0 0.0899,-0.0398 0.0339,-0.0397 0.0339,-0.1056 l 0,-0.015 -0.067,0 z m 0.1344,-0.0279 0,0.234 -0.0674,0 0,-0.0622 Q 0.0163,0.2364 -0.0181,0.2542 -0.0526,0.272 -0.1024,0.272 q -0.0629,0 -0.1001,-0.0354 -0.0372,-0.0353 -0.0372,-0.0946 0,-0.0692 0.0463,-0.1044 0.0464,-0.0352 0.1383,-0.0352 l 0.0945,0 0,-0.0066 q 0,-0.0465 -0.0306,-0.0719 -0.0306,-0.0255 -0.0859,-0.0255 -0.0351,0 -0.0685,0.0085 -0.0333,0.0084 -0.064,0.0252 l 0,-0.0622 q 0.0369,-0.0143 0.0717,-0.0215 0.0348,-0.0071 0.0678,-0.0071 0.089,0 0.1329,0.0461 0.044,0.0462 0.044,0.1399 z m 0.4339,-0.1604 0,0.063 Q 0.5121,-0.0858 0.4834,-0.0937 0.4546,-0.1016 0.4254,-0.1016 q -0.0656,0 -0.1019,0.0416 -0.0362,0.0416 -0.0362,0.1166 0,0.0751 0.0362,0.1167 0.0363,0.0415 0.1019,0.0415 0.0292,0 0.058,-0.0078 0.0287,-0.0079 0.0573,-0.0237 l 0,0.0623 Q 0.5125,0.2588 0.4823,0.2654 0.4521,0.272 0.418,0.272 0.3254,0.272 0.2708,0.2137 0.2162,0.1555 0.2162,0.0566 q 0,-0.1003 0.0552,-0.1578 0.0551,-0.0575 0.151,-0.0575 0.0312,0 0.0608,0.0064 0.0297,0.0064 0.0575,0.0192 z m 0.1146,-0.1754 0.0678,0 0,0.3366 0.201,-0.1769 0.0861,0 -0.2175,0.1919 0.2266,0.2182 -0.0878,0 -0.2084,-0.2003 0,0.2003 -0.0678,0 0,-0.5698 z m 0.7112,0.0996 0,0.204 0.204,0 0,0.0623 -0.204,0 0,0.2039 -0.0615,0 0,-0.2039 -0.204,0 0,-0.0623 0.204,0 0,-0.204 0.0615,0 z"
         id="path239"
         inkscape:connector-curvature="0"
         style="stroke:none" />
    </g>
    <g
       font-size="0.75"
       stroke-miterlimit="1"
       transform="matrix(50,0,0,50,980,535)"
       id="g241"
       style="font-size:0.75px;fill:#b20000;stroke:#b20000;stroke-width:0.05;stroke-miterlimit:1;stroke-dasharray:0.2, 0.2">
      <path
         d="m -0.4948,-0.2594 0.3201,0 0,0.0615 -0.2534,0.2948 0.2534,0 0,0.0538 -0.3292,0 0,-0.0615 0.2534,-0.2948 -0.2443,0 0,-0.0538 z m 0.7182,0.0157 0,0.063 Q 0.1948,-0.1964 0.1661,-0.2043 0.1373,-0.2122 0.108,-0.2122 q -0.0655,0 -0.1018,0.0416 -0.0362,0.0416 -0.0362,0.1166 0,0.0751 0.0362,0.1167 0.0363,0.0415 0.1018,0.0415 0.0293,0 0.0581,-0.0078 0.0287,-0.0079 0.0573,-0.0237 l 0,0.0623 Q 0.1952,0.1482 0.165,0.1548 0.1348,0.1614 0.1007,0.1614 q -0.0926,0 -0.1472,-0.0583 -0.0546,-0.0582 -0.0546,-0.1571 0,-0.1003 0.0551,-0.1578 0.0551,-0.0575 0.1511,-0.0575 0.0311,0 0.0608,0.0064 0.0297,0.0064 0.0575,0.0192 z m 0.0831,0.159 0.1974,0 0,0.06 -0.1974,0 0,-0.06 z"
         id="path243"
         inkscape:connector-curvature="0"
         style="stroke:none" />
    </g>
    <g
       font-size="0.75"
       stroke-miterlimit="1"
       transform="matrix(50,0,0,50,1180,435)"
       id="g245"
       style="font-size:0.75px;fill:#b20000;stroke:#b20000;stroke-width:0.05;stroke-miterlimit:1;stroke-dasharray:0.2, 0.2">
      <path
         d="m -0.5447,-0.0146 0,-0.2483 0.0673,0 0,0.2458 q 0,0.0582 0.0228,0.0873 0.0227,0.0291 0.0681,0.0291 0.0545,0 0.0862,-0.0348 0.0317,-0.0348 0.0317,-0.0948 l 0,-0.2326 0.0674,0 0,0.4102 -0.0674,0 0,-0.063 q -0.0245,0.0373 -0.057,0.0555 -0.0324,0.0181 -0.0752,0.0181 -0.0707,0 -0.1073,-0.0439 -0.0366,-0.044 -0.0366,-0.1286 z m 0.4339,-0.2483 0.0714,0 0.1282,0.3443 0.1282,-0.3443 0.0714,0 -0.1538,0.4102 -0.0916,0 -0.1538,-0.4102 z m 0.4582,0.1747 0.1973,0 0,0.0601 -0.1973,0 0,-0.0601 z"
         id="path247"
         inkscape:connector-curvature="0"
         style="stroke:none" />
    </g>
    <g
       font-size="0.75"
       stroke-miterlimit="1"
       transform="matrix(50,0,0,50,192.5,528.75)"
       id="g249"
       style="font-size:0.75px;fill:#ffffc8;stroke:#ffffc8;stroke-width:0.05;stroke-miterlimit:1;stroke-dasharray:0.2, 0.2">
      <rect
         height="1.2"
         width="2.4503"
         x="-1.2251"
         y="-0.60000002"
         id="rect251"
         style="stroke:none" />
      <rect
         height="1.2"
         width="2.4503"
         x="-1.2251"
         y="-0.60000002"
         id="rect253"
         style="fill:none;stroke:#808080;stroke-width:0.02" />
    </g>
    <g
       font-size="0.5"
       stroke-miterlimit="1"
       transform="matrix(50,0,0,50,192.5,528.75)"
       id="g255"
       style="font-size:0.5px;stroke-width:0.02;stroke-miterlimit:1;stroke-dasharray:0.2, 0.2">
      <path
         d="m -0.7717,0.0214 0,0.022 -0.2066,0 q 0.003,0.0464 0.028,0.0707 0.025,0.0243 0.0697,0.0243 0.0259,0 0.0502,-0.0064 0.0242,-0.0063 0.0482,-0.019 l 0,0.0424 q -0.0242,0.0103 -0.0496,0.0157 -0.0254,0.0053 -0.0515,0.0053 -0.0654,0 -0.1036,-0.038 -0.0382,-0.0381 -0.0382,-0.1031 0,-0.0671 0.0362,-0.1065 0.0363,-0.0395 0.0978,-0.0395 0.0552,0 0.0873,0.0356 0.0321,0.0355 0.0321,0.0965 z m -0.045,-0.0132 q -4e-4,-0.0368 -0.0206,-0.0588 -0.0201,-0.022 -0.0533,-0.022 -0.0376,0 -0.0602,0.0213 -0.0226,0.0212 -0.026,0.0598 l 0.1601,-3e-4 z m 0.243,0.0237 q -0.0545,0 -0.0755,0.0125 -0.021,0.0124 -0.021,0.0424 0,0.024 0.0158,0.038 0.0157,0.014 0.0428,0.014 0.0374,0 0.06,-0.0264 0.0225,-0.0265 0.0225,-0.0705 l 0,-0.01 -0.0446,0 z m 0.0896,-0.0185 0,0.156 -0.045,0 0,-0.0415 q -0.0153,0.0249 -0.0383,0.0367 -0.0229,0.0118 -0.0561,0.0118 -0.042,0 -0.0668,-0.0235 -0.0248,-0.0236 -0.0248,-0.0631 0,-0.0462 0.0309,-0.0696 0.0309,-0.0234 0.0922,-0.0234 l 0.0629,0 0,-0.0044 q 0,-0.0311 -0.0203,-0.048 -0.0204,-0.017 -0.0573,-0.017 -0.0234,0 -0.0456,0.0056 -0.0223,0.0056 -0.0428,0.0169 l 0,-0.0415 q 0.0247,-0.0096 0.0479,-0.0143 0.0232,-0.0048 0.0451,-0.0048 0.0594,0 0.0887,0.0308 0.0293,0.0308 0.0293,0.0933 z m 0.2509,-0.0755 q -0.0075,-0.0044 -0.0164,-0.0065 -0.0089,-0.002 -0.0197,-0.002 -0.0381,0 -0.0585,0.0248 -0.0203,0.0247 -0.0203,0.0711 l 0,0.1441 -0.0452,0 0,-0.2735 0.0452,0 0,0.0425 q 0.0141,-0.0249 0.0368,-0.037 0.0227,-0.0121 0.0552,-0.0121 0.0046,0 0.0102,6e-4 0.0057,6e-4 0.0125,0.0019 l 2e-4,0.0461 z m 0.0472,-0.1484 0.0449,0 0,0.3799 -0.0449,0 0,-0.3799 z M 0.0667,0.1948 Q 0.0476,0.2436 0.0295,0.2585 0.0115,0.2734 -0.0188,0.2734 l -0.0359,0 0,-0.0376 0.0264,0 q 0.0185,0 0.0288,-0.0088 0.0102,-0.0088 0.0227,-0.0415 l 0.008,-0.0205 -0.1105,-0.2691 0.0476,0 0.0854,0.2139 0.0855,-0.2139 0.0476,0 -0.1201,0.2989 z m 0.322,-0.3899 0.2863,0 0,0.0376 -0.2304,0.2854 0.2361,0 0,0.0415 -0.2976,0 0,-0.0376 0.2304,-0.2854 -0.2248,0 0,-0.0415 z m 0.6364,0.028 0,0.052 Q 1.0002,-0.1383 0.972,-0.1497 0.9438,-0.1612 0.9121,-0.1612 q -0.0625,0 -0.0957,0.0382 -0.0332,0.0382 -0.0332,0.1105 0,0.072 0.0332,0.1102 0.0332,0.0382 0.0957,0.0382 0.0317,0 0.0599,-0.0115 Q 1.0002,0.113 1.0251,0.0898 l 0,0.0515 Q 0.9993,0.1589 0.9703,0.1677 0.9414,0.1764 0.9092,0.1764 0.8264,0.1764 0.7788,0.1258 0.7312,0.0751 0.7312,-0.0125 q 0,-0.0879 0.0476,-0.1386 0.0476,-0.0506 0.1304,-0.0506 0.0327,0 0.0616,0.0086 0.029,0.0087 0.0543,0.026 z"
         id="path257"
         inkscape:connector-curvature="0"
         style="stroke:none" />
    </g>
    <g
       font-size="0.5"
       transform="matrix(50,0,0,50,1480,285)"
       id="g259"
       style="font-size:0.5px;stroke-width:0.02">
      <path
         d="M -25.2386,3.3807 -23.16,4.42"
         id="path261"
         inkscape:connector-curvature="0"
         style="fill:none" />
      <path
         d="m -23.1264,4.3529 -0.0671,0.1342 0.3913,0.1118 z"
         id="path263"
         inkscape:connector-curvature="0"
         style="stroke:none" />
    </g>
    <g
       font-size="0.5"
       transform="matrix(50,0,0,50,1480,285)"
       id="g265"
       style="font-size:0.5px;stroke-width:0.02">
      <path
         d="m -21.328,3 1.4153,0"
         id="path267"
         inkscape:connector-curvature="0"
         style="fill:none" />
      <path
         d="m -19.9127,2.925 0,0.15 0.4,-0.075 z"
         id="path269"
         inkscape:connector-curvature="0"
         style="stroke:none" />
    </g>
    <g
       font-size="0.5"
       transform="matrix(50,0,0,50,1480,285)"
       id="g271"
       style="font-size:0.5px;stroke-width:0.02">
      <path
         d="m -25.2386,3 2.1666,0"
         id="path273"
         inkscape:connector-curvature="0"
         style="fill:none" />
      <path
         d="m -23.072,2.925 0,0.15 0.4,-0.075 z"
         id="path275"
         inkscape:connector-curvature="0"
         style="stroke:none" />
    </g>
    <g
       font-size="0.5"
       transform="matrix(50,0,0,50,1480,285)"
       id="g277"
       style="font-size:0.5px;stroke-width:0.02">
      <path
         d="m -21.1978,4.7994 5.9799,-1.4949"
         id="path279"
         inkscape:connector-curvature="0"
         style="fill:none" />
      <path
         d="m -15.2361,3.2317 0.0364,0.1455 0.3698,-0.1697 z"
         id="path281"
         inkscape:connector-curvature="0"
         style="stroke:none" />
    </g>
    <g
       font-size="0.5"
       transform="matrix(50,0,0,50,1480,285)"
       id="g283"
       style="font-size:0.5px;stroke-width:0.02">
      <path
         d="m -16.4873,3 1.2574,0"
         id="path285"
         inkscape:connector-curvature="0"
         style="fill:none" />
      <path
         d="m -15.2299,2.925 0,0.15 0.4,-0.075 z"
         id="path287"
         inkscape:connector-curvature="0"
         style="stroke:none" />
    </g>
    <g
       font-size="0.5"
       transform="matrix(50,0,0,50,1480,285)"
       id="g289"
       style="font-size:0.5px;stroke-width:0.02">
      <path
         d="m -13.1701,3 1.0996,0"
         id="path291"
         inkscape:connector-curvature="0"
         style="fill:none" />
      <path
         d="m -12.0705,2.925 0,0.15 0.4,-0.075 z"
         id="path293"
         inkscape:connector-curvature="0"
         style="stroke:none" />
    </g>
    <g
       font-size="0.5"
       transform="matrix(50,0,0,50,1480,285)"
       id="g295"
       style="font-size:0.5px;stroke-width:0.02">
      <path
         d="m -8.3295,3 1.2848,0"
         id="path297"
         inkscape:connector-curvature="0"
         style="fill:none" />
      <path
         d="m -7.0447,2.925 0,0.15 0.4,-0.075 z"
         id="path299"
         inkscape:connector-curvature="0"
         style="stroke:none" />
    </g>
    <g
       font-size="0.5"
       transform="matrix(50,0,0,50,1480,285)"
       id="g301"
       style="font-size:0.5px;stroke-width:0.02">
      <path
         d="M -9.3961,4.698 -7.0025,3.5013"
         id="path303"
         inkscape:connector-curvature="0"
         style="fill:none" />
      <path
         d="M -7.0361,3.4342 -6.969,3.5683 -6.6447,3.3224 z"
         id="path305"
         inkscape:connector-curvature="0"
         style="stroke:none" />
    </g>
    <g
       font-size="0.5"
       transform="matrix(50,0,0,50,1480,285)"
       id="g307"
       style="font-size:0.5px;stroke-width:0.02">
      <path
         d="m -13.1701,3.4149 2.2084,1.1043"
         id="path309"
         inkscape:connector-curvature="0"
         style="fill:none" />
      <path
         d="m -10.9281,4.4521 -0.0671,0.1341 0.3913,0.1118 z"
         id="path311"
         inkscape:connector-curvature="0"
         style="stroke:none" />
    </g>
    <g
       font-size="0.5"
       transform="matrix(50,0,0,50,680,285)"
       id="g313"
       style="font-size:0.5px;stroke-width:0.02">
      <path
         d="M 9.2106,7 7.0724,7"
         id="path315"
         inkscape:connector-curvature="0"
         style="fill:none" />
      <path
         d="m 7.0724,7.075 0,-0.15 -0.4,0.075 z"
         id="path317"
         inkscape:connector-curvature="0"
         style="stroke:none" />
    </g>
    <g
       font-size="0.5"
       transform="matrix(50,0,0,50,680,285)"
       id="g319"
       style="font-size:0.5px;stroke-width:0.02">
      <path
         d="M 5.3276,7 3.913,7"
         id="path321"
         inkscape:connector-curvature="0"
         style="fill:none" />
      <path
         d="m 3.913,7.075 0,-0.15 L 3.513,7 z"
         id="path323"
         inkscape:connector-curvature="0"
         style="stroke:none" />
    </g>
    <g
       font-size="0.5"
       transform="matrix(50,0,0,50,680,285)"
       id="g325"
       style="font-size:0.5px;stroke-width:0.02">
      <path
         d="M 0.487,7 -0.7705,7"
         id="path327"
         inkscape:connector-curvature="0"
         style="fill:none" />
      <path
         d="m -0.7705,7.075 0,-0.15 -0.4,0.075 z"
         id="path329"
         inkscape:connector-curvature="0"
         style="stroke:none" />
    </g>
    <g
       font-size="0.5"
       transform="matrix(50,0,0,50,680,285)"
       id="g331"
       style="font-size:0.5px;stroke-width:0.02">
      <path
         d="M -2.8295,7 -3.9299,7"
         id="path333"
         inkscape:connector-curvature="0"
         style="fill:none" />
      <path
         d="m -3.9299,7.075 0,-0.15 -0.4,0.075 z"
         id="path335"
         inkscape:connector-curvature="0"
         style="stroke:none" />
    </g>
    <g
       font-size="0.5"
       transform="matrix(50,0,0,50,680,285)"
       id="g337"
       style="font-size:0.5px;stroke-width:0.02">
      <path
         d="m -7.6701,7 -1.298,0"
         id="path339"
         inkscape:connector-curvature="0"
         style="fill:none" />
      <path
         d="m -8.9681,7.075 0,-0.15 -0.4,0.075 z"
         id="path341"
         inkscape:connector-curvature="0"
         style="stroke:none" />
    </g>
    <g
       font-size="0.5"
       transform="matrix(50,0,0,50,680,285)"
       id="g343"
       style="font-size:0.5px;stroke-width:0.02">
      <path
         d="M -10.6319,7 -13,7 -13,0.9"
         id="path345"
         inkscape:connector-curvature="0"
         style="fill:none" />
      <path
         d="m -13.075,0.9 0.15,0 L -13,0.5 z"
         id="path347"
         inkscape:connector-curvature="0"
         style="stroke:none" />
    </g>
    <g
       font-size="0.5"
       transform="matrix(50,0,0,50,680,285)"
       id="g349"
       style="font-size:0.5px;stroke-width:0.02">
      <path
         d="m -12.5,0 1.2978,0"
         id="path351"
         inkscape:connector-curvature="0"
         style="fill:none" />
      <path
         d="m -11.2022,-0.075 0,0.15 0.4,-0.075 z"
         id="path353"
         inkscape:connector-curvature="0"
         style="stroke:none" />
    </g>
    <g
       font-size="0.5"
       transform="matrix(50,0,0,50,680,285)"
       id="g355"
       style="font-size:0.5px;stroke-width:0.02">
      <path
         d="m -12.6464,0.3536 1.951,1.951"
         id="path357"
         inkscape:connector-curvature="0"
         style="fill:none" />
      <path
         d="m -10.6424,2.2516 -0.106,0.106 0.3359,0.2299 z"
         id="path359"
         inkscape:connector-curvature="0"
         style="stroke:none" />
    </g>
    <g
       font-size="0.5"
       transform="matrix(50,0,0,50,680,285)"
       id="g361"
       style="font-size:0.5px;stroke-width:0.02">
      <path
         d="m -12.6464,-0.3536 1.951,-1.951"
         id="path363"
         inkscape:connector-curvature="0"
         style="fill:none" />
      <path
         d="m -10.7484,-2.3576 0.106,0.106 0.2299,-0.3359 z"
         id="path365"
         inkscape:connector-curvature="0"
         style="stroke:none" />
    </g>
    <g
       font-size="0.5"
       transform="matrix(50,0,0,50,680,285)"
       id="g367"
       style="font-size:0.5px;stroke-width:0.02">
      <path
         d="M 10.6447,0 12.1,0"
         id="path369"
         inkscape:connector-curvature="0"
         style="fill:none" />
      <path
         d="m 12.1,-0.075 0,0.15 L 12.5,0 z"
         id="path371"
         inkscape:connector-curvature="0"
         style="stroke:none" />
    </g>
    <g
       font-size="0.5"
       transform="matrix(50,0,0,50,680,285)"
       id="g373"
       style="font-size:0.5px;stroke-width:0.02">
      <path
         d="M 13,0.5 13,7 11.1894,7"
         id="path375"
         inkscape:connector-curvature="0"
         style="fill:none" />
      <path
         d="m 11.1894,7.075 0,-0.15 -0.4,0.075 z"
         id="path377"
         inkscape:connector-curvature="0"
         style="stroke:none" />
    </g>
    <g
       font-size="0.5"
       transform="matrix(50,0,0,50,680,285)"
       id="g379"
       style="font-size:0.5px;stroke-width:0.02">
      <path
         d="M 10.3735,2.6265 12.3636,0.6364"
         id="path381"
         inkscape:connector-curvature="0"
         style="fill:none" />
      <path
         d="m 12.3106,0.5834 0.106,0.106 0.2298,-0.3358 z"
         id="path383"
         inkscape:connector-curvature="0"
         style="stroke:none" />
    </g>
    <g
       font-size="0.5"
       transform="matrix(50,0,0,50,680,285)"
       id="g385"
       style="font-size:0.5px;stroke-width:0.02">
      <path
         d="m 10.3735,-2.6265 1.9901,1.9901"
         id="path387"
         inkscape:connector-curvature="0"
         style="fill:none" />
      <path
         d="m 12.4166,-0.6894 -0.106,0.106 0.3358,0.2298 z"
         id="path389"
         inkscape:connector-curvature="0"
         style="stroke:none" />
    </g>
  </g>
</svg>
