<?xml version="1.0" encoding="UTF-8" standalone="no"?>
<svg
   xmlns:dc="http://purl.org/dc/elements/1.1/"
   xmlns:cc="http://creativecommons.org/ns#"
   xmlns:rdf="http://www.w3.org/1999/02/22-rdf-syntax-ns#"
   xmlns:svg="http://www.w3.org/2000/svg"
   xmlns="http://www.w3.org/2000/svg"
   xmlns:sodipodi="http://sodipodi.sourceforge.net/DTD/sodipodi-0.dtd"
   xmlns:inkscape="http://www.inkscape.org/namespaces/inkscape"
   color-interpolation="auto"
   color-rendering="auto"
   font-size="12"
   font-style="normal"
   font-weight="normal"
   height="321.04999"
   image-rendering="auto"
   shape-rendering="auto"
   stroke-miterlimit="10"
   text-rendering="auto"
   width="489.215"
   id="svg2"
   version="1.1"
   inkscape:version="0.48.4 r9939"
   sodipodi:docname="cElement STG.svg"
   style="font-size:12px;font-style:normal;font-weight:normal;fill:#000000;fill-opacity:1;stroke:#000000;stroke-width:1;stroke-linecap:square;stroke-linejoin:miter;stroke-miterlimit:10;stroke-opacity:1;stroke-dasharray:none;stroke-dashoffset:0;font-family:Dialog">
  <metadata
     id="metadata89">
    <rdf:RDF>
      <cc:Work
         rdf:about="">
        <dc:format>image/svg+xml</dc:format>
        <dc:type
           rdf:resource="http://purl.org/dc/dcmitype/StillImage" />
      </cc:Work>
    </rdf:RDF>
  </metadata>
  <sodipodi:namedview
     pagecolor="#ffffff"
     bordercolor="#666666"
     borderopacity="1"
     objecttolerance="10"
     gridtolerance="10"
     guidetolerance="10"
     inkscape:pageopacity="0"
     inkscape:pageshadow="2"
     inkscape:window-width="640"
     inkscape:window-height="480"
     id="namedview87"
     showgrid="false"
     fit-margin-top="0"
     fit-margin-left="0"
     fit-margin-right="0"
     fit-margin-bottom="0"
     inkscape:zoom="0.62082515"
     inkscape:cx="244.5025"
     inkscape:cy="160.525"
     inkscape:window-x="0"
     inkscape:window-y="24"
     inkscape:window-maximized="0"
     inkscape:current-layer="svg2" />
  <!--Generated by the Batik Graphics2D SVG Generator-->
  <defs
     id="genericDefs" />
  <g
     id="g5"
     transform="translate(-9.9975,-4.4749999)">
    <g
       font-size="0.75"
       transform="matrix(50,0,0,50,184.0875,165)"
       id="g7"
       style="font-size:0.75px;fill:#0000b2;stroke:#0000b2">
      <path
         d="m -0.1355,-0.2261 0,0.063 q -0.0286,-0.0158 -0.0573,-0.0237 -0.0288,-0.0078 -0.0581,-0.0078 -0.0655,0 -0.1018,0.0415 -0.0362,0.0416 -0.0362,0.1167 0,0.0751 0.0362,0.1166 0.0363,0.0416 0.1018,0.0416 0.0293,0 0.0581,-0.0079 0.0287,-0.0079 0.0573,-0.0236 l 0,0.0622 q -0.0282,0.0132 -0.0584,0.0198 -0.0302,0.0066 -0.0643,0.0066 -0.0926,0 -0.1472,-0.0582 Q -0.46,0.0625 -0.46,-0.0364 q 0,-0.1004 0.0552,-0.1579 0.0551,-0.0575 0.151,-0.0575 0.0311,0 0.0608,0.0065 0.0297,0.0064 0.0575,0.0192 z m 0.3915,-0.0758 0,0.204 0.204,0 0,0.0622 -0.204,0 0,0.204 -0.0615,0 0,-0.204 -0.204,0 0,-0.0622 0.204,0 0,-0.204 0.0615,0 z"
         id="path9"
         inkscape:connector-curvature="0"
         style="stroke:none" />
    </g>
    <g
       font-size="0.75"
       transform="matrix(50,0,0,50,34.0875,65)"
       id="g11"
       style="font-size:0.75px;fill:#b20000;stroke:#b20000">
      <path
         d="m -0.2697,-0.0379 q -0.0817,0 -0.1132,0.0187 -0.0315,0.0187 -0.0315,0.0637 0,0.0359 0.0236,0.057 0.0237,0.021 0.0643,0.021 0.056,0 0.0899,-0.0397 0.0339,-0.0398 0.0339,-0.1057 l 0,-0.015 -0.067,0 z m 0.1344,-0.0278 0,0.234 -0.0674,0 0,-0.0623 q -0.0231,0.0374 -0.0575,0.0552 -0.0344,0.0177 -0.0842,0.0177 -0.063,0 -0.1002,-0.0353 -0.0372,-0.0354 -0.0372,-0.0947 0,-0.0692 0.0464,-0.1044 0.0463,-0.0351 0.1382,-0.0351 l 0.0945,0 0,-0.0066 q 0,-0.0465 -0.0306,-0.072 -0.0306,-0.0254 -0.0859,-0.0254 -0.0351,0 -0.0684,0.0084 -0.0334,0.0084 -0.0641,0.0253 l 0,-0.0623 q 0.037,-0.0143 0.0718,-0.0214 0.0347,-0.0072 0.0677,-0.0072 0.089,0 0.1329,0.0462 0.044,0.0461 0.044,0.1399 z m 0.4131,-0.2362 0,0.204 0.204,0 0,0.0622 -0.204,0 0,0.204 -0.0615,0 0,-0.204 -0.204,0 0,-0.0622 0.204,0 0,-0.204 0.0615,0 z"
         id="path13"
         inkscape:connector-curvature="0"
         style="stroke:none" />
    </g>
    <g
       font-size="0.75"
       transform="matrix(50,0,0,50,34.0875,265)"
       id="g15"
       style="font-size:0.75px;fill:#b20000;stroke:#b20000">
      <path
         d="m -0.1815,-0.0016 q 0,-0.0743 -0.0305,-0.1166 -0.0306,-0.0423 -0.0841,-0.0423 -0.0535,0 -0.084,0.0423 -0.0306,0.0423 -0.0306,0.1166 0,0.0744 0.0306,0.1167 0.0305,0.0423 0.084,0.0423 0.0535,0 0.0841,-0.0423 0.0305,-0.0423 0.0305,-0.1167 z m -0.2292,-0.1431 q 0.0212,-0.0367 0.0536,-0.0544 0.0325,-0.0178 0.0775,-0.0178 0.0747,0 0.1214,0.0593 0.0467,0.0594 0.0467,0.156 0,0.0967 -0.0467,0.1561 -0.0467,0.0593 -0.1214,0.0593 -0.045,0 -0.0775,-0.0178 -0.0324,-0.0177 -0.0536,-0.0544 l 0,0.0616 -0.0678,0 0,-0.5699 0.0678,0 0,0.222 z m 0.6852,-0.1224 0,0.204 0.204,0 0,0.0623 -0.204,0 0,0.204 -0.0615,0 0,-0.204 -0.204,0 0,-0.0623 0.204,0 0,-0.204 0.0615,0 z"
         id="path17"
         inkscape:connector-curvature="0"
         style="stroke:none" />
    </g>
    <g
       font-size="0.75"
       transform="matrix(50,0,0,50,484.0875,165)"
       id="g19"
       style="font-size:0.75px;fill:#0000b2;stroke:#0000b2">
      <path
         d="m 0.022,-0.2437 0,0.063 q -0.0286,-0.0157 -0.0573,-0.0236 -0.0288,-0.0079 -0.0581,-0.0079 -0.0655,0 -0.1018,0.0416 -0.0363,0.0416 -0.0363,0.1166 0,0.0751 0.0363,0.1167 0.0363,0.0415 0.1018,0.0415 0.0293,0 0.0581,-0.0078 0.0287,-0.0079 0.0573,-0.0237 l 0,0.0623 q -0.0282,0.0132 -0.0584,0.0198 -0.0303,0.0066 -0.0643,0.0066 -0.0927,0 -0.1472,-0.0583 -0.0546,-0.0582 -0.0546,-0.1571 0,-0.1003 0.0551,-0.1578 0.0551,-0.0575 0.1511,-0.0575 0.0311,0 0.0608,0.0064 0.0296,0.0064 0.0575,0.0192 z m 0.0831,0.159 0.1974,0 0,0.06 -0.1974,0 0,-0.06 z"
         id="path21"
         inkscape:connector-curvature="0"
         style="stroke:none" />
    </g>
    <g
       font-size="0.75"
       transform="matrix(50,0,0,50,334.0875,65)"
       id="g23"
       style="font-size:0.75px;fill:#b20000;stroke:#b20000">
      <path
         d="m -0.1123,-0.0554 q -0.0816,0 -0.1131,0.0186 -0.0315,0.0187 -0.0315,0.0638 0,0.0358 0.0236,0.0569 0.0236,0.0211 0.0643,0.0211 0.056,0 0.0899,-0.0398 0.0339,-0.0397 0.0339,-0.1056 l 0,-0.015 -0.0671,0 z m 0.1345,-0.0279 0,0.234 -0.0674,0 0,-0.0622 q -0.0231,0.0373 -0.0575,0.0551 -0.0345,0.0178 -0.0843,0.0178 -0.0629,0 -0.1001,-0.0354 -0.0372,-0.0353 -0.0372,-0.0947 0,-0.0692 0.0463,-0.1043 0.0464,-0.0352 0.1383,-0.0352 l 0.0945,0 0,-0.0066 q 0,-0.0465 -0.0306,-0.0719 -0.0306,-0.0255 -0.0859,-0.0255 -0.0351,0 -0.0685,0.0084 -0.0333,0.0085 -0.0641,0.0253 l 0,-0.0622 q 0.037,-0.0143 0.0718,-0.0215 0.0348,-0.0071 0.0678,-0.0071 0.089,0 0.1329,0.0461 0.044,0.0462 0.044,0.1399 z m 0.1047,-0.0014 0.1974,0 0,0.06 -0.1974,0 0,-0.06 z"
         id="path25"
         inkscape:connector-curvature="0"
         style="stroke:none" />
    </g>
    <g
       font-size="0.75"
       transform="matrix(50,0,0,50,334.0875,265)"
       id="g27"
       style="font-size:0.75px;fill:#b20000;stroke:#b20000">
      <path
         d="m -0.024,-0.0016 q 0,-0.0743 -0.0306,-0.1166 -0.0305,-0.0423 -0.084,-0.0423 -0.0535,0 -0.0841,0.0423 -0.0305,0.0423 -0.0305,0.1166 0,0.0744 0.0305,0.1167 0.0306,0.0423 0.0841,0.0423 0.0535,0 0.084,-0.0423 0.0306,-0.0423 0.0306,-0.1167 z m -0.2292,-0.1431 q 0.0212,-0.0367 0.0536,-0.0544 0.0324,-0.0178 0.0775,-0.0178 0.0747,0 0.1214,0.0593 0.0467,0.0594 0.0467,0.156 0,0.0967 -0.0467,0.1561 -0.0467,0.0593 -0.1214,0.0593 -0.0451,0 -0.0775,-0.0178 Q -0.232,0.1783 -0.2532,0.1416 l 0,0.0616 -0.0678,0 0,-0.5699 0.0678,0 0,0.222 z m 0.3768,0.1124 0.1974,0 0,0.06 -0.1974,0 0,-0.06 z"
         id="path29"
         inkscape:connector-curvature="0"
         style="stroke:none" />
    </g>
    <g
       font-size="0.75"
       transform="matrix(50,0,0,50,184.0875,165)"
       id="g31"
       style="font-size:0.75px;stroke-width:0.02">
      <path
         d="m -2.4183,-1.6122 1.5255,1.017"
         id="path33"
         inkscape:connector-curvature="0"
         style="fill:none" />
      <path
         d="m -0.8512,-0.6576 -0.0832,0.1248 0.3744,0.1595 z"
         id="path35"
         inkscape:connector-curvature="0"
         style="stroke:none" />
    </g>
    <g
       font-size="0.75"
       transform="matrix(50,0,0,50,184.0875,165)"
       id="g37"
       style="font-size:0.75px;stroke-width:0.02">
      <path
         d="M -2.4215,1.6144 -0.8928,0.5952"
         id="path39"
         inkscape:connector-curvature="0"
         style="fill:none" />
      <path
         d="M -0.9344,0.5328 -0.8512,0.6576 -0.56,0.3733 z"
         id="path41"
         inkscape:connector-curvature="0"
         style="stroke:none" />
    </g>
    <g
       font-size="0.75"
       transform="matrix(50,0,0,50,184.0875,165)"
       id="g43"
       style="font-size:0.75px;stroke-width:0.02">
      <path
         d="M 0.56,0.3733 2.2462,1.4975"
         id="path45"
         inkscape:connector-curvature="0"
         style="fill:none" />
      <path
         d="M 2.2878,1.4351 2.2046,1.5599 2.579,1.7193 z"
         id="path47"
         inkscape:connector-curvature="0"
         style="stroke:none" />
    </g>
    <g
       font-size="0.75"
       transform="matrix(50,0,0,50,184.0875,165)"
       id="g49"
       style="font-size:0.75px;stroke-width:0.02">
      <path
         d="M 3.421,1.7193 5.2647,0.4902"
         id="path51"
         inkscape:connector-curvature="0"
         style="fill:none" />
      <path
         d="M 5.2231,0.4278 5.3063,0.5526 5.5975,0.2683 z"
         id="path53"
         inkscape:connector-curvature="0"
         style="stroke:none" />
    </g>
    <g
       font-size="0.75"
       transform="matrix(50,0,0,50,259.0875,315)"
       id="g55"
       style="font-size:0.75px;stroke-width:0.02">
      <circle
         cx="0"
         cy="0"
         r="0.2105"
         id="circle57"
         d="m 0.2105,0 c 0,0.11625594 -0.0942441,0.2105 -0.2105,0.2105 -0.11625594,0 -0.2105,-0.0942441 -0.2105,-0.2105 0,-0.11625594 0.0942441,-0.2105 0.2105,-0.2105 0.11625594,0 0.2105,0.0942441 0.2105,0.2105 z"
         sodipodi:cx="0"
         sodipodi:cy="0"
         sodipodi:rx="0.2105"
         sodipodi:ry="0.2105"
         style="stroke:none" />
    </g>
    <g
       font-size="0.75"
       transform="matrix(50,0,0,50,184.0875,165)"
       id="g59"
       style="font-size:0.75px;stroke-width:0.02">
      <path
         d="M 6,0.3799 6,3 -3,3 -3,2.8773"
         id="path61"
         inkscape:connector-curvature="0"
         style="fill:none" />
      <path
         d="m -3.075,2.8773 0.15,0 -0.075,-0.4 z"
         id="path63"
         inkscape:connector-curvature="0"
         style="stroke:none" />
    </g>
    <g
       font-size="0.75"
       transform="matrix(50,0,0,50,184.0875,165)"
       id="g65"
       style="font-size:0.75px;stroke-width:0.02">
      <path
         d="m 0.56,-0.3733 1.6829,-1.122"
         id="path67"
         inkscape:connector-curvature="0"
         style="fill:none" />
      <path
         d="m 2.2013,-1.5577 0.0832,0.1248 0.2912,-0.2842 z"
         id="path69"
         inkscape:connector-curvature="0"
         style="stroke:none" />
    </g>
    <g
       font-size="0.75"
       transform="matrix(50,0,0,50,184.0875,165)"
       id="g71"
       style="font-size:0.75px;stroke-width:0.02">
      <path
         d="m 3.4243,-1.7171 1.8404,1.2269"
         id="path73"
         inkscape:connector-curvature="0"
         style="fill:none" />
      <path
         d="m 5.3063,-0.5526 -0.0832,0.1248 0.3744,0.1595 z"
         id="path75"
         inkscape:connector-curvature="0"
         style="stroke:none" />
    </g>
    <g
       font-size="0.75"
       transform="matrix(50,0,0,50,259.0875,15)"
       id="g77"
       style="font-size:0.75px;stroke-width:0.02">
      <circle
         cx="0"
         cy="0"
         r="0.2105"
         id="circle79"
         d="m 0.2105,0 c 0,0.11625594 -0.0942441,0.2105 -0.2105,0.2105 -0.11625594,0 -0.2105,-0.0942441 -0.2105,-0.2105 0,-0.11625594 0.0942441,-0.2105 0.2105,-0.2105 0.11625594,0 0.2105,0.0942441 0.2105,0.2105 z"
         sodipodi:cx="0"
         sodipodi:cy="0"
         sodipodi:rx="0.2105"
         sodipodi:ry="0.2105"
         style="stroke:none" />
    </g>
    <g
       font-size="0.75"
       transform="matrix(50,0,0,50,184.0875,165)"
       id="g81"
       style="font-size:0.75px;stroke-width:0.02">
      <path
         d="M 6,-0.3799 6,-3 l -9,0 0,0.1875"
         id="path83"
         inkscape:connector-curvature="0"
         style="fill:none" />
      <path
         d="m -2.925,-2.8125 -0.15,0 0.075,0.4 z"
         id="path85"
         inkscape:connector-curvature="0"
         style="stroke:none" />
    </g>
  </g>
</svg>
